{
classes = (
{
automatic = 1;
code = "alef-ar alef-ar.fina alefHamzaabove-ar alefHamzaabove-ar.fina alefHamzabelow-ar alefHamzabelow-ar.fina alefMadda-ar alefMadda-ar.fina alefMaksura-ar alefWasla-ar alefWasla-ar.fina dal-ar dal-ar.fina ddal-ar hehgoalHamzaabove-ar jeh-ar lam_alef-ar lam_alef-ar.fina lam_alefHamzaabove-ar lam_alefHamzaabove-ar.fina lam_alefHamzabelow-ar lam_alefHamzabelow-ar.fina lam_alefMadda-ar lam_alefMadda-ar.fina lam_alefWasla-ar lam_alefWasla-ar.fina noonghunna-ar noonghunna-ar.fina reh-ar reh-ar.fina rreh-ar tehMarbuta-ar tehMarbutagoal-ar thal-ar thal-ar.fina waw-ar waw-ar.fina wawHamzaabove-ar wawHamzaabove-ar.fina zain-ar zain-ar.fina";
name = ArabicLetters;
},
{
automatic = 1;

glyphs = (
{
glyphname = "dotlessbeh-ar";
lastChange = "2016-03-02 07:58:15 +0000";
layers = (
{
anchors = (
{
name = bottom;
position = "{889, -227}";
},
{
name = top;
position = "{836, 861}";
}
);
layerId = "93A312F7-B931-4485-B08E-C367313EB5E7";
name = Regular;
paths = (
{
closed = 1;
nodes = (
"798 -56 OFFCURVE",
"967 -44 OFFCURVE",
"1141 -13 CURVE SMOOTH",
"1443 35 OFFCURVE",
"1686 126 OFFCURVE",
"1686 412 CURVE SMOOTH",
"1686 504 OFFCURVE",
"1616 788 OFFCURVE",
"1574 964 CURVE SMOOTH",
"1571 976 OFFCURVE",
"1561 977 OFFCURVE",
"1551 968 CURVE SMOOTH",
"1448 864 LINE SMOOTH",
"1442 857 OFFCURVE",
"1440 850 OFFCURVE",
"1442 841 CURVE SMOOTH",
"1570 292 LINE SMOOTH",
"1572 282 OFFCURVE",
"1570 275 OFFCURVE",
"1559 270 CURVE SMOOTH",
"1418 208 OFFCURVE",
"1068 126 OFFCURVE",
"750 132 CURVE SMOOTH",
"480 137 OFFCURVE",
"256 212 OFFCURVE",
"279 443 CURVE SMOOTH",
"293 587 LINE SMOOTH",
"294 597 OFFCURVE",
"289 604 OFFCURVE",
"278 605 CURVE SMOOTH",
"215 611 LINE SMOOTH",
"205 612 OFFCURVE",
"197 605 OFFCURVE",
"195 595 CURVE SMOOTH",
"178 443 LINE SMOOTH",
"138 94 OFFCURVE",
"301 -43 OFFCURVE",
"666 -53 CURVE SMOOTH"
);
}
);
width = 1824;
}
);
unicode = 066E;
userData = {
com.typemytype.robofont.guides = (
{
angle = 0;
isGlobal = 0;
x = 383;
y = 1092;
}
);
};
},
{
glyphname = "hamza-ar";
lastChange = "2016-02-16 15:16:31 +0000";
layers = (
{
anchors = (
{
name = bottom;
position = "{521, -199}";
},
{
name = top;
position = "{521, 925}";
}
);
layerId = "93A312F7-B931-4485-B08E-C367313EB5E7";
name = Regular;
paths = (
{
closed = 1;
nodes = (
"436 81 OFFCURVE",
"631 195 OFFCURVE",
"857 315 CURVE SMOOTH",
"866 320 OFFCURVE",
"871 327 OFFCURVE",
"869 336 CURVE SMOOTH",
"861 466 LINE SMOOTH",
"860 478 OFFCURVE",
"852 484 OFFCURVE",
"841 477 CURVE SMOOTH",
"494 271 LINE SMOOTH",
"486 267 OFFCURVE",
"477 267 OFFCURVE",
"470 274 CURVE SMOOTH",
"271 457 LINE SMOOTH",
"263 465 OFFCURVE",
"262 473 OFFCURVE",
"269 481 CURVE SMOOTH",
"370 599 OFFCURVE",
"507 619 OFFCURVE",
"652 614 CURVE SMOOTH",
"664 613 OFFCURVE",
"670 620 OFFCURVE",
"669 630 CURVE SMOOTH",
"658 719 LINE SMOOTH",
"657 728 OFFCURVE",
"653 735 OFFCURVE",
"643 738 CURVE SMOOTH",
"421 802 OFFCURVE",
"173 667 OFFCURVE",
"173 447 CURVE SMOOTH",
"173 351 OFFCURVE",
"275 248 OFFCURVE",
"346 195 CURVE SMOOTH",
"357 187 OFFCURVE",
"355 178 OFFCURVE",
"345 171 CURVE SMOOTH",
"224 98 LINE SMOOTH",
"216 93 OFFCURVE",
"213 87 OFFCURVE",
"213 77 CURVE SMOOTH",
"212 -26 LINE SMOOTH",
"212 -40 OFFCURVE",
"221 -46 OFFCURVE",
"232 -39 CURVE SMOOTH"
);
}
);
width = 1007;
}
);
unicode = 0621;
},
{
glyphname = "alef-ar";
lastChange = "2016-02-16 15:17:10 +0000";
layers = (
{
anchors = (
{
name = bottom;
position = "{293, -207}";
},
{
name = top;
position = "{259, 1707}";
}
);
layerId = "93A312F7-B931-4485-B08E-C367313EB5E7";
name = Regular;
paths = (
{
closed = 1;
nodes = (
"344 -3 LINE SMOOTH",
"350 -1 OFFCURVE",
"354 3 OFFCURVE",
"354 12 CURVE SMOOTH",
"346 1519 LINE SMOOTH",
"346 1538 OFFCURVE",
"330 1546 OFFCURVE",
"315 1538 CURVE SMOOTH",
"181 1465 LINE SMOOTH",
"176 1463 OFFCURVE",
"173 1458 OFFCURVE",
"173 1451 CURVE SMOOTH",
"232 -15 LINE SMOOTH",
"232 -29 OFFCURVE",
"246 -38 OFFCURVE",
"259 -33 CURVE SMOOTH"
);
}
);
width = 492;
}
);
unicode = 0627;
},
{
glyphname = "alef-ar.fina";
lastChange = "2016-02-16 22:14:55 +0000";
layers = (
{
anchors = (
{
name = bottom;
position = "{486, -173}";
},
{
name = top;
position = "{253, 1702}";
}
);
layerId = "93A312F7-B931-4485-B08E-C367313EB5E7";
name = Regular;
paths = (
{
closed = 1;
nodes = (
"685 0 LINE",
"733 60 OFFCURVE",
"733 119 OFFCURVE",
"685 179 CURVE",
"599 179 LINE SMOOTH",
"545 179 OFFCURVE",
"436 200 OFFCURVE",
"366 243 CURVE SMOOTH",
"358 247 OFFCURVE",
"354 253 OFFCURVE",
"354 263 CURVE SMOOTH",
"335 1520 LINE SMOOTH",
"335 1534 OFFCURVE",
"327 1540 OFFCURVE",
"314 1532 CURVE SMOOTH",
"183 1449 LINE SMOOTH",
"175 1443 OFFCURVE",
"173 1439 OFFCURVE",
"173 1428 CURVE SMOOTH",
"225 393 LINE SMOOTH",
"239 123 OFFCURVE",
"307 0 OFFCURVE",
"551 0 CURVE SMOOTH"
);
}
);
width = 666;
}
);
unicode = FE8E;
},
{
glyphname = "alef-ar.short";
lastChange = "2016-02-16 15:19:05 +0000";
layers = (
{
anchors = (
{
name = bottom;
position = "{293, -206}";
},
{
name = top;
position = "{259, 1533}";
}
);
layerId = "93A312F7-B931-4485-B08E-C367313EB5E7";
name = Regular;
paths = (
{
closed = 1;
nodes = (
"344 -3 LINE SMOOTH",
"350 -1 OFFCURVE",
"354 3 OFFCURVE",
"354 12 CURVE SMOOTH",
"346 1347 LINE SMOOTH",
"346 1365 OFFCURVE",
"330 1373 OFFCURVE",
"315 1365 CURVE SMOOTH",
"181 1293 LINE SMOOTH",
"176 1290 OFFCURVE",
"173 1286 OFFCURVE",
"173 1279 CURVE SMOOTH",
"232 -15 LINE SMOOTH",
"233 -29 OFFCURVE",
"246 -38 OFFCURVE",
"259 -33 CURVE SMOOTH"
);
}
);
width = 492;
}
);
userData = {
com.typemytype.robofont.guides = (
{
angle = 0;
isGlobal = 0;
x = 293;
y = 1187;
}
);
};
},
{
glyphname = "alef-ar.fina.short";
lastChange = "2016-02-16 22:15:07 +0000";
layers = (
{
anchors = (
{
name = bottom;
position = "{469, -173}";
},
{
name = top;
position = "{339, 1523}";
}
);
layerId = "93A312F7-B931-4485-B08E-C367313EB5E7";
name = Regular;
paths = (
{
closed = 1;
nodes = (
"686 0 LINE",
"734 60 OFFCURVE",
"734 119 OFFCURVE",
"686 179 CURVE",
"599 179 LINE SMOOTH",
"545 179 OFFCURVE",
"436 200 OFFCURVE",
"366 243 CURVE SMOOTH",
"358 247 OFFCURVE",
"354 253 OFFCURVE",
"354 263 CURVE SMOOTH",
"335 1336 LINE SMOOTH",
"335 1350 OFFCURVE",
"327 1356 OFFCURVE",
"314 1348 CURVE SMOOTH",
"183 1265 LINE SMOOTH",
"175 1259 OFFCURVE",
"172 1255 OFFCURVE",
"173 1244 CURVE SMOOTH",
"225 393 LINE SMOOTH",
"243 123 OFFCURVE",
"307 0 OFFCURVE",
"551 0 CURVE SMOOTH"
);
}
);
width = 666;
}
);
rightMetricsKey = z;
userData = {
com.schriftgestaltung.Glyphs.rightMetricsKey = z;
com.typemytype.robofont.guides = (
{
angle = 0;
isGlobal = 0;
x = 285;
y = 1176;
}
);
};
},
{
glyphname = "dotlessbeh-ar.fina";
lastChange = "2016-02-16 22:15:24 +0000";
layers = (
{
anchors = (
{
name = bottom;
position = "{889, -227}";
},
{
name = top;
position = "{836, 861}";
}
);
layerId = "93A312F7-B931-4485-B08E-C367313EB5E7";
name = Regular;
paths = (
{
closed = 1;
nodes = (
"969 -60 OFFCURVE",
"1502 16 OFFCURVE",
"1624 161 CURVE SMOOTH",
"1633 171 OFFCURVE",
"1641 170 OFFCURVE",
"1647 159 CURVE SMOOTH",
"1705 52 OFFCURVE",
"1828 0 OFFCURVE",
"1948 0 CURVE SMOOTH",
"2014 0 LINE",
"2062 60 OFFCURVE",
"2062 119 OFFCURVE",
"2014 179 CURVE",
"1948 179 LINE SMOOTH",
"1792 179 OFFCURVE",
"1689 239 OFFCURVE",
"1666 414 CURVE SMOOTH",
"1625 721 LINE SMOOTH",
"1624 734 OFFCURVE",
"1611 739 OFFCURVE",
"1602 729 CURVE SMOOTH",
"1510 634 LINE SMOOTH",
"1504 627 OFFCURVE",
"1502 620 OFFCURVE",
"1503 611 CURVE SMOOTH",
"1558 267 LINE SMOOTH",
"1559 256 OFFCURVE",
"1557 250 OFFCURVE",
"1547 246 CURVE SMOOTH",
"1387 189 OFFCURVE",
"1029 128 OFFCURVE",
"750 133 CURVE SMOOTH",
"480 139 OFFCURVE",
"256 213 OFFCURVE",
"279 444 CURVE SMOOTH",
"293 588 LINE SMOOTH",
"294 598 OFFCURVE",
"289 605 OFFCURVE",
"278 606 CURVE SMOOTH",
"215 612 LINE SMOOTH",
"205 613 OFFCURVE",
"197 606 OFFCURVE",
"195 596 CURVE SMOOTH",
"178 444 LINE SMOOTH",
"138 95 OFFCURVE",
"301 -45 OFFCURVE",
"666 -53 CURVE SMOOTH"
);
}
);
width = 1994;
}
);
},
{
glyphname = "dotlessbeh-ar.medi";
lastChange = "2016-03-02 07:57:28 +0000";
layers = (
{
anchors = (
{
name = bottom;
position = "{370, -178}";
},
{
name = top;
position = "{529, 790}";
}
);
layerId = "93A312F7-B931-4485-B08E-C367313EB5E7";
name = Regular;
paths = (
{
closed = 1;
nodes = (
"44 0 LINE SMOOTH",
"168 0 OFFCURVE",
"324 15 OFFCURVE",
"440 120 CURVE SMOOTH",
"448 126 OFFCURVE",
"457 126 OFFCURVE",
"465 118 CURVE SMOOTH",
"550 29 OFFCURVE",
"710 0 OFFCURVE",
"883 0 CURVE SMOOTH",
"933 0 LINE",
"981 60 OFFCURVE",
"981 119 OFFCURVE",
"933 179 CURVE",
"867 179 LINE SMOOTH",
"788 179 OFFCURVE",
"646 197 OFFCURVE",
"567 224 CURVE SMOOTH",
"558 228 OFFCURVE",
"554 235 OFFCURVE",
"555 245 CURVE SMOOTH",
"580 591 LINE SMOOTH",
"581 601 OFFCURVE",
"576 610 OFFCURVE",
"566 611 CURVE SMOOTH",
"504 614 LINE SMOOTH",
"493 615 OFFCURVE",
"484 610 OFFCURVE",
"483 599 CURVE SMOOTH",
"454 357 LINE SMOOTH",
"434 189 OFFCURVE",
"182 179 OFFCURVE",
"51 179 CURVE SMOOTH",
"-20 179 LINE SMOOTH",
"-138 179 OFFCURVE",
"-138 0 OFFCURVE",
"-20 0 CURVE SMOOTH"
);
}
);
width = 913;
}
);
},
{
glyphname = "dotlessbeh-ar.init";
lastChange = "2016-02-16 16:08:40 +0000";
layers = (
{
anchors = (
{
name = bottom;
position = "{292, -179}";
},
{
name = top;
position = "{415, 1128}";
}
);
layerId = "93A312F7-B931-4485-B08E-C367313EB5E7";
name = Regular;
paths = (
{
closed = 1;
nodes = (
"393 0 OFFCURVE",
"608 105 OFFCURVE",
"608 389 CURVE SMOOTH",
"608 481 OFFCURVE",
"538 765 OFFCURVE",
"497 941 CURVE SMOOTH",
"493 953 OFFCURVE",
"483 954 OFFCURVE",
"474 945 CURVE SMOOTH",
"370 841 LINE SMOOTH",
"365 834 OFFCURVE",
"362 828 OFFCURVE",
"365 818 CURVE SMOOTH",
"492 281 LINE SMOOTH",
"494 270 OFFCURVE",
"492 263 OFFCURVE",
"482 259 CURVE SMOOTH",
"363 206 OFFCURVE",
"240 179 OFFCURVE",
"0 179 CURVE SMOOTH",
"-20 179 LINE SMOOTH",
"-138 179 OFFCURVE",
"-138 0 OFFCURVE",
"-20 0 CURVE SMOOTH",
"0 0 LINE SMOOTH"
);
}
);
width = 746;
}
);
},
{
glyphname = "peh-ar.init";
lastChange = "2016-02-16 16:06:58 +0000";
layers = (
{
anchors = (
{
name = top;
position = "{544, 1159}";
}
);
components = (
{
name = "threedotsdownbelow-ar";
transform = "{1, 0, 0, 1, 25, -24}";
}
);
layerId = "93A312F7-B931-4485-B08E-C367313EB5E7";
name = Regular;
paths = (
{
closed = 1;
nodes = (
"92 0 LINE SMOOTH",
"299 0 OFFCURVE",
"599 91 OFFCURVE",
"628 209 CURVE",
"651 278 OFFCURVE",
"665 361 OFFCURVE",
"665 423 CURVE SMOOTH",
"665 515 OFFCURVE",
"595 799 OFFCURVE",
"553 975 CURVE SMOOTH",
"550 988 OFFCURVE",
"539 989 OFFCURVE",
"530 980 CURVE SMOOTH",
"427 875 LINE SMOOTH",
"421 868 OFFCURVE",
"419 861 OFFCURVE",
"421 852 CURVE SMOOTH",
"568 319 LINE SMOOTH",
"576 290 OFFCURVE",
"563 279 OFFCURVE",
"544 271 CURVE SMOOTH",
"461 236 OFFCURVE",
"311 179 OFFCURVE",
"92 179 CURVE SMOOTH",
"-20 179 LINE SMOOTH",
"-138 179 OFFCURVE",
"-138 0 OFFCURVE",
"-20 0 CURVE SMOOTH"
);
}
);
width = 803;
}
);
unicode = FB58;
},
{
glyphname = "hah-ar";
lastChange = "2016-03-07 08:20:51 +0000";
layers = (
{
anchors = (
{
name = bottom;
position = "{805, -968}";
},
{
name = center;
position = "{870, 0}";
},
{
name = top;
position = "{447, 1042}";
}
);
layerId = "93A312F7-B931-4485-B08E-C367313EB5E7";
name = Regular;
paths = (
{
closed = 1;
nodes = (
"1235 -672 OFFCURVE",
"1281 -636 OFFCURVE",
"1336 -497 CURVE SMOOTH",
"1342 -482 OFFCURVE",
"1327 -470 OFFCURVE",
"1309 -474 CURVE SMOOTH",
"977 -542 OFFCURVE",
"478 -597 OFFCURVE",
"320 -312 CURVE SMOOTH",
"288 -251 OFFCURVE",
"277 -168 OFFCURVE",
"302 -66 CURVE SMOOTH",
"400 328 OFFCURVE",
"812 497 OFFCURVE",
"1228 503 CURVE SMOOTH",
"1235 503 OFFCURVE",
"1241 507 OFFCURVE",
"1243 513 CURVE SMOOTH",
"1298 681 LINE SMOOTH",
"1303 695 OFFCURVE",
"1293 708 OFFCURVE",
"1277 707 CURVE SMOOTH",
"946 690 OFFCURVE",
"784 780 OFFCURVE",
"614 833 CURVE SMOOTH",
"420 892 OFFCURVE",
"344 873 OFFCURVE",
"193 710 CURVE SMOOTH",
"189 705 OFFCURVE",
"187 700 OFFCURVE",
"189 695 CURVE SMOOTH",
"224 600 LINE SMOOTH",
"230 584 OFFCURVE",
"247 581 OFFCURVE",
"260 593 CURVE SMOOTH",
"376 708 OFFCURVE",
"422 703 OFFCURVE",
"541 666 CURVE SMOOTH",
"795 587 LINE",
"448 486 OFFCURVE",
"177 180 OFFCURVE",
"173 -183 CURVE SMOOTH",
"167 -743 OFFCURVE",
"615 -764 OFFCURVE",
"1037 -702 CURVE SMOOTH"
);
}
);
width = 1438;
}
);
unicode = 062D;
},
{
glyphname = "hah-ar.fina";
lastChange = "2016-03-07 08:19:02 +0000";
layers = (
{
anchors = (
{
name = bottom;
position = "{793, -945}";
},
{
name = center;
position = "{679, -120}";
},
{
name = top;
position = "{484, 1063}";
}
);
layerId = "93A312F7-B931-4485-B08E-C367313EB5E7";
name = Regular;
paths = (
{
closed = 1;
nodes = (
"1255 -669 OFFCURVE",
"1311 -633 OFFCURVE",
"1366 -494 CURVE SMOOTH",
"1372 -479 OFFCURVE",
"1357 -468 OFFCURVE",
"1339 -471 CURVE SMOOTH",
"1007 -535 OFFCURVE",
"478 -594 OFFCURVE",
"320 -309 CURVE SMOOTH",
"288 -248 OFFCURVE",
"277 -165 OFFCURVE",
"302 -63 CURVE SMOOTH",
"359 165 OFFCURVE",
"520 291 OFFCURVE",
"727 399 CURVE",
"811 145 OFFCURVE",
"977 0 OFFCURVE",
"1219 0 CURVE SMOOTH",
"1301 0 LINE",
"1349 60 OFFCURVE",
"1349 119 OFFCURVE",
"1301 179 CURVE",
"1235 179 LINE SMOOTH",
"1104 179 OFFCURVE",
"907 232 OFFCURVE",
"834 448 CURVE",
"958 497 OFFCURVE",
"1093 523 OFFCURVE",
"1228 526 CURVE SMOOTH",
"1235 526 OFFCURVE",
"1241 530 OFFCURVE",
"1243 536 CURVE SMOOTH",
"1298 704 LINE SMOOTH",
"1303 718 OFFCURVE",
"1293 731 OFFCURVE",
"1277 730 CURVE SMOOTH",
"946 713 OFFCURVE",
"784 803 OFFCURVE",
"614 856 CURVE SMOOTH",
"420 915 OFFCURVE",
"344 896 OFFCURVE",
"193 733 CURVE SMOOTH",
"189 728 OFFCURVE",
"187 723 OFFCURVE",
"189 718 CURVE SMOOTH",
"224 623 LINE SMOOTH",
"230 607 OFFCURVE",
"247 604 OFFCURVE",
"260 616 CURVE SMOOTH",
"376 731 OFFCURVE",
"422 726 OFFCURVE",
"541 689 CURVE SMOOTH",
"795 610 LINE",
"468 499 OFFCURVE",
"177 193 OFFCURVE",
"173 -180 CURVE SMOOTH",
"166 -740 OFFCURVE",
"635 -761 OFFCURVE",
"1057 -699 CURVE SMOOTH"
);
}
);
width = 1281;
}
);
unicode = FEA2;
},
{
glyphname = "hah-ar.medi";
lastChange = "2016-03-02 07:59:24 +0000";
layers = (
{
anchors = (
{
name = bottom;
position = "{770, -132}";
},
{
name = top;
position = "{516, 968}";
}
);
layerId = "93A312F7-B931-4485-B08E-C367313EB5E7";
name = Regular;
paths = (
{
closed = 1;
nodes = (
"352 0 OFFCURVE",
"679 146 OFFCURVE",
"964 253 CURVE SMOOTH",
"1012 271 OFFCURVE",
"1056 286 OFFCURVE",
"1095 298 CURVE",
"1193 141 OFFCURVE",
"1303 0 OFFCURVE",
"1561 0 CURVE SMOOTH",
"1627 0 LINE",
"1675 60 OFFCURVE",
"1675 119 OFFCURVE",
"1627 179 CURVE",
"1561 179 LINE SMOOTH",
"1402 179 OFFCURVE",
"1306 236 OFFCURVE",
"1245 328 CURVE",
"1312 335 OFFCURVE",
"1373 331 OFFCURVE",
"1446 323 CURVE SMOOTH",
"1456 322 OFFCURVE",
"1462 328 OFFCURVE",
"1465 337 CURVE SMOOTH",
"1521 508 LINE SMOOTH",
"1525 521 OFFCURVE",
"1520 529 OFFCURVE",
"1506 528 CURVE SMOOTH",
"1264 516 OFFCURVE",
"1068 603 OFFCURVE",
"852 690 CURVE SMOOTH",
"561 807 OFFCURVE",
"454 844 OFFCURVE",
"268 643 CURVE SMOOTH",
"261 635 OFFCURVE",
"261 629 OFFCURVE",
"263 620 CURVE SMOOTH",
"298 508 LINE SMOOTH",
"302 496 OFFCURVE",
"311 494 OFFCURVE",
"321 504 CURVE SMOOTH",
"399 587 OFFCURVE",
"442 618 OFFCURVE",
"503 618 CURVE SMOOTH",
"623 618 OFFCURVE",
"887 476 OFFCURVE",
"1074 435 CURVE",
"833 368 OFFCURVE",
"439 179 OFFCURVE",
"0 179 CURVE SMOOTH",
"-20 179 LINE SMOOTH",
"-138 179 OFFCURVE",
"-138 0 OFFCURVE",
"-20 0 CURVE SMOOTH",
"0 0 LINE SMOOTH"
);
}
);
width = 1607;
}
);
unicode = FEA4;
},
{
glyphname = "hah-ar.init";
lastChange = "2016-03-07 08:32:34 +0000";
layers = (
{
anchors = (
{
name = bottom;
position = "{719, -151}";
},
{
name = top;
position = "{508, 973}";
}
);
layerId = "93A312F7-B931-4485-B08E-C367313EB5E7";
name = Regular;
paths = (
{
closed = 1;
nodes = (
"340 0 OFFCURVE",
"679 146 OFFCURVE",
"964 253 CURVE SMOOTH",
"1188 338 OFFCURVE",
"1291 340 OFFCURVE",
"1446 323 CURVE SMOOTH",
"1456 323 OFFCURVE",
"1462 328 OFFCURVE",
"1465 337 CURVE SMOOTH",
"1521 508 LINE SMOOTH",
"1525 521 OFFCURVE",
"1520 528 OFFCURVE",
"1506 528 CURVE SMOOTH",
"1264 516 OFFCURVE",
"1068 603 OFFCURVE",
"852 690 CURVE SMOOTH",
"561 807 OFFCURVE",
"454 856 OFFCURVE",
"268 643 CURVE SMOOTH",
"261 635 OFFCURVE",
"261 629 OFFCURVE",
"263 620 CURVE SMOOTH",
"298 508 LINE SMOOTH",
"301 496 OFFCURVE",
"312 493 OFFCURVE",
"321 504 CURVE SMOOTH",
"399 587 OFFCURVE",
"442 618 OFFCURVE",
"503 618 CURVE SMOOTH",
"623 618 OFFCURVE",
"887 476 OFFCURVE",
"1074 435 CURVE",
"833 368 OFFCURVE",
"439 179 OFFCURVE",
"0 179 CURVE SMOOTH",
"-20 179 LINE SMOOTH",
"-138 179 OFFCURVE",
"-138 0 OFFCURVE",
"-20 0 CURVE SMOOTH",
"0 0 LINE SMOOTH"
);
}
);
width = 1661;
}
);
unicode = FEA3;
},
{
glyphname = "dal-ar";
lastChange = "2016-03-02 09:12:18 +0000";
layers = (
{
anchors = (
{
name = bottom;
position = "{514, -230}";
},
{
name = top;
position = "{622, 1158}";
}
);
layerId = "93A312F7-B931-4485-B08E-C367313EB5E7";
name = Regular;
paths = (
{
closed = 1;
nodes = (
"585 -56 OFFCURVE",
"854 -9 OFFCURVE",
"941 53 CURVE SMOOTH",
"994 91 OFFCURVE",
"1015 154 OFFCURVE",
"1015 229 CURVE SMOOTH",
"1018 430 OFFCURVE",
"942 553 OFFCURVE",
"668 975 CURVE SMOOTH",
"662 984 OFFCURVE",
"650 983 OFFCURVE",
"647 978 CURVE SMOOTH",
"564 836 LINE SMOOTH",
"559 828 OFFCURVE",
"559 819 OFFCURVE",
"565 811 CURVE SMOOTH",
"859 396 OFFCURVE",
"894 273 OFFCURVE",
"908 197 CURVE",
"760 142 OFFCURVE",
"541 106 OFFCURVE",
"366 127 CURVE SMOOTH",
"289 136 OFFCURVE",
"281 183 OFFCURVE",
"275 308 CURVE SMOOTH",
"274 320 OFFCURVE",
"267 325 OFFCURVE",
"257 325 CURVE SMOOTH",
"195 325 LINE SMOOTH",
"185 325 OFFCURVE",
"179 320 OFFCURVE",
"178 309 CURVE SMOOTH",
"162 120 OFFCURVE",
"167 -56 OFFCURVE",
"447 -56 CURVE SMOOTH"
);
}
);
width = 1153;
}
);
unicode = 062F;
},
{
glyphname = "dal-ar.fina";
lastChange = "2016-03-02 09:14:29 +0000";
layers = (
{
anchors = (
{
name = bottom;
position = "{514, -230}";
},
{
name = top;
position = "{880, 1198}";
}
);
layerId = "93A312F7-B931-4485-B08E-C367313EB5E7";
name = Regular;
paths = (
{
closed = 1;
nodes = (
"585 -56 OFFCURVE",
"829 -9 OFFCURVE",
"915 53 CURVE SMOOTH",
"951 78 OFFCURVE",
"971 115 OFFCURVE",
"980 159 CURVE SMOOTH",
"982 171 OFFCURVE",
"987 171 OFFCURVE",
"992 160 CURVE SMOOTH",
"1043 47 OFFCURVE",
"1142 0 OFFCURVE",
"1266 0 CURVE SMOOTH",
"1332 0 LINE",
"1380 60 OFFCURVE",
"1380 119 OFFCURVE",
"1332 179 CURVE",
"1280 179 LINE SMOOTH",
"1078 179 OFFCURVE",
"1028 248 OFFCURVE",
"983 526 CURVE SMOOTH",
"904 1012 LINE SMOOTH",
"902 1025 OFFCURVE",
"892 1029 OFFCURVE",
"882 1021 CURVE SMOOTH",
"762 930 LINE SMOOTH",
"756 925 OFFCURVE",
"751 919 OFFCURVE",
"753 908 CURVE SMOOTH",
"887 205 LINE",
"889 193 OFFCURVE",
"884 187 OFFCURVE",
"875 184 CURVE",
"728 139 OFFCURVE",
"515 107 OFFCURVE",
"369 128 CURVE",
"293 139 OFFCURVE",
"285 166 OFFCURVE",
"278 291 CURVE SMOOTH",
"276 322 OFFCURVE",
"275 325 OFFCURVE",
"257 325 CURVE SMOOTH",
"195 325 LINE SMOOTH",
"185 325 OFFCURVE",
"179 320 OFFCURVE",
"178 309 CURVE SMOOTH",
"162 120 OFFCURVE",
"168 -56 OFFCURVE",
"447 -56 CURVE SMOOTH"
);
}
);
width = 1312;
}
);
unicode = FEAA;
userData = {
com.typemytype.robofont.guides = (
{
angle = 0;
isGlobal = 0;
x = 2480;
y = "-225";
}
);
};
},
{
glyphname = "reh-ar";
lastChange = "2016-03-07 08:16:14 +0000";
layers = (
{
anchors = (
{
name = bottom;
position = "{299, -650}";
},
{
name = top;
position = "{558, 976}";
}
);
layerId = "93A312F7-B931-4485-B08E-C367313EB5E7";
name = Regular;
paths = (
{
closed = 1;
nodes = (
"613 -319 OFFCURVE",
"751 -88 OFFCURVE",
"773 126 CURVE SMOOTH",
"787 265 OFFCURVE",
"719 472 OFFCURVE",
"664 692 CURVE SMOOTH",
"661 704 OFFCURVE",
"650 705 OFFCURVE",
"641 696 CURVE SMOOTH",
"537 592 LINE SMOOTH",
"531 585 OFFCURVE",
"528 578 OFFCURVE",
"531 569 CURVE SMOOTH",
"674 127 LINE SMOOTH",
"677 118 OFFCURVE",
"676 112 OFFCURVE",
"673 104 CURVE SMOOTH",
"534 -211 OFFCURVE",
"347 -357 OFFCURVE",
"-40 -272 CURVE SMOOTH",
"-51 -270 OFFCURVE",
"-58 -277 OFFCURVE",
"-61 -287 CURVE SMOOTH",
"-84 -354 LINE SMOOTH",
"-87 -363 OFFCURVE",
"-82 -369 OFFCURVE",
"-71 -373 CURVE SMOOTH",
"166 -452 OFFCURVE",
"331 -477 OFFCURVE",
"471 -398 CURVE SMOOTH"
);
}
);
width = 913;
}
);
unicode = 0631;
userData = {
com.typemytype.robofont.guides = (
{
angle = 0;
isGlobal = 0;
x = "-844";
y = "-463";
}
);
};
},
{
glyphname = "reh-ar.fina";
lastChange = "2016-03-07 08:26:06 +0000";
layers = (
{
anchors = (
{
name = bottom;
position = "{334, -650}";
},
{
name = top;
position = "{644, 857}";
}
);
layerId = "93A312F7-B931-4485-B08E-C367313EB5E7";
name = Regular;
paths = (
{
closed = 1;
nodes = (
"620 -371 OFFCURVE",
"790 -115 OFFCURVE",
"816 103 CURVE",
"877 29 OFFCURVE",
"952 0 OFFCURVE",
"1053 0 CURVE SMOOTH",
"1180 0 LINE",
"1228 60 OFFCURVE",
"1228 119 OFFCURVE",
"1180 179 CURVE",
"1053 179 LINE SMOOTH",
"866 179 OFFCURVE",
"828 259 OFFCURVE",
"766 522 CURVE SMOOTH",
"730 675 LINE SMOOTH",
"726 692 OFFCURVE",
"711 698 OFFCURVE",
"698 687 CURVE SMOOTH",
"598 596 LINE SMOOTH",
"592 591 OFFCURVE",
"590 587 OFFCURVE",
"592 580 CURVE SMOOTH",
"708 99 LINE SMOOTH",
"710 91 OFFCURVE",
"709 84 OFFCURVE",
"706 77 CURVE SMOOTH",
"571 -253 OFFCURVE",
"380 -394 OFFCURVE",
"6 -320 CURVE SMOOTH",
"-5 -318 OFFCURVE",
"-11 -325 OFFCURVE",
"-15 -335 CURVE SMOOTH",
"-38 -402 LINE SMOOTH",
"-41 -411 OFFCURVE",
"-36 -418 OFFCURVE",
"-25 -421 CURVE SMOOTH",
"212 -500 OFFCURVE",
"329 -523 OFFCURVE",
"471 -448 CURVE SMOOTH"
);
}
);
width = 1160;
}
);
unicode = FEAE;
userData = {
com.typemytype.robofont.guides = (
{
angle = 0;
isGlobal = 0;
x = 618;
y = 606;
}
);
};
},
{
glyphname = "seen-ar";
lastChange = "2016-03-07 07:50:46 +0000";
layers = (
{
anchors = (
{
name = bottom;
position = "{706, -704}";
},
{
name = top;
position = "{742, 713}";
}
);
layerId = "93A312F7-B931-4485-B08E-C367313EB5E7";
name = Regular;
paths = (
{
closed = 1;
nodes = (
"815 -531 OFFCURVE",
"1174 -437 OFFCURVE",
"1294 -271 CURVE SMOOTH",
"1346 -200 OFFCURVE",
"1339 -109 OFFCURVE",
"1327 22 CURVE",
"1436 -26 OFFCURVE",
"1773 -17 OFFCURVE",
"1862 95 CURVE",
"1947 43 OFFCURVE",
"2065 -3 OFFCURVE",
"2170 -6 CURVE SMOOTH",
"2414 -14 OFFCURVE",
"2517 46 OFFCURVE",
"2510 308 CURVE SMOOTH",
"2507 409 OFFCURVE",
"2474 670 OFFCURVE",
"2433 839 CURVE SMOOTH",
"2430 852 OFFCURVE",
"2419 854 OFFCURVE",
"2410 844 CURVE SMOOTH",
"2307 739 LINE SMOOTH",
"2301 733 OFFCURVE",
"2299 726 OFFCURVE",
"2301 716 CURVE SMOOTH",
"2413 213 LINE SMOOTH",
"2416 199 OFFCURVE",
"2406 188 OFFCURVE",
"2393 185 CURVE SMOOTH",
"2234 153 OFFCURVE",
"2098 164 OFFCURVE",
"1958 225 CURVE SMOOTH",
"1953 227 OFFCURVE",
"1948 233 OFFCURVE",
"1949 241 CURVE SMOOTH",
"1988 582 LINE SMOOTH",
"1989 593 OFFCURVE",
"1983 600 OFFCURVE",
"1972 601 CURVE SMOOTH",
"1898 607 LINE SMOOTH",
"1889 608 OFFCURVE",
"1882 603 OFFCURVE",
"1880 592 CURVE SMOOTH",
"1846 347 LINE SMOOTH",
"1826 201 OFFCURVE",
"1704 172 OFFCURVE",
"1546 174 CURVE SMOOTH",
"1403 176 OFFCURVE",
"1310 192 OFFCURVE",
"1294 302 CURVE SMOOTH",
"1256 569 LINE SMOOTH",
"1253 588 OFFCURVE",
"1236 593 OFFCURVE",
"1222 583 CURVE SMOOTH",
"1112 501 LINE SMOOTH",
"1108 498 OFFCURVE",
"1105 492 OFFCURVE",
"1106 486 CURVE SMOOTH",
"1213 -177 LINE SMOOTH",
"1214 -184 OFFCURVE",
"1211 -191 OFFCURVE",
"1204 -194 CURVE SMOOTH",
"1144 -222 OFFCURVE",
"881 -330 OFFCURVE",
"616 -330 CURVE SMOOTH",
"391 -330 OFFCURVE",
"251 -217 OFFCURVE",
"302 61 CURVE SMOOTH",
"337 251 LINE SMOOTH",
"339 262 OFFCURVE",
"331 270 OFFCURVE",
"321 271 CURVE SMOOTH",
"247 282 LINE SMOOTH",
"238 283 OFFCURVE",
"230 278 OFFCURVE",
"228 268 CURVE SMOOTH",
"186 38 LINE SMOOTH",
"133 -255 OFFCURVE",
"221 -531 OFFCURVE",
"589 -531 CURVE SMOOTH"
);
}
);
width = 2648;
}
);
unicode = 0633;
},
{
glyphname = "seen-ar.fina";
lastChange = "2016-03-07 07:51:02 +0000";
layers = (
{
anchors = (
{
name = bottom;
position = "{706, -704}";
},
{
name = top;
position = "{742, 713}";
}
);
layerId = "93A312F7-B931-4485-B08E-C367313EB5E7";
name = Regular;
paths = (
{
closed = 1;
nodes = (
"816 -531 OFFCURVE",
"1175 -437 OFFCURVE",
"1295 -271 CURVE SMOOTH",
"1347 -200 OFFCURVE",
"1340 -110 OFFCURVE",
"1328 21 CURVE",
"1404 0 OFFCURVE",
"1490 -9 OFFCURVE",
"1561 -9 CURVE SMOOTH",
"1689 -8 OFFCURVE",
"1817 28 OFFCURVE",
"1864 87 CURVE",
"1949 35 OFFCURVE",
"2068 -1 OFFCURVE",
"2172 -3 CURVE SMOOTH",
"2337 -9 OFFCURVE",
"2456 16 OFFCURVE",
"2506 115 CURVE SMOOTH",
"2514 130 OFFCURVE",
"2528 132 OFFCURVE",
"2539 118 CURVE SMOOTH",
"2600 41 OFFCURVE",
"2688 0 OFFCURVE",
"2790 0 CURVE SMOOTH",
"2890 0 LINE",
"2938 60 OFFCURVE",
"2938 119 OFFCURVE",
"2890 179 CURVE",
"2790 179 LINE SMOOTH",
"2613 179 OFFCURVE",
"2578 260 OFFCURVE",
"2537 522 CURVE SMOOTH",
"2513 675 LINE SMOOTH",
"2511 691 OFFCURVE",
"2493 697 OFFCURVE",
"2481 687 CURVE SMOOTH",
"2381 607 LINE SMOOTH",
"2375 602 OFFCURVE",
"2374 598 OFFCURVE",
"2375 591 CURVE SMOOTH",
"2438 208 LINE SMOOTH",
"2440 198 OFFCURVE",
"2435 188 OFFCURVE",
"2424 186 CURVE SMOOTH",
"2260 154 OFFCURVE",
"2101 162 OFFCURVE",
"1961 228 CURVE SMOOTH",
"1954 231 OFFCURVE",
"1951 237 OFFCURVE",
"1952 244 CURVE SMOOTH",
"1991 582 LINE SMOOTH",
"1992 593 OFFCURVE",
"1985 600 OFFCURVE",
"1975 601 CURVE SMOOTH",
"1901 607 LINE SMOOTH",
"1892 608 OFFCURVE",
"1883 603 OFFCURVE",
"1882 592 CURVE SMOOTH",
"1849 343 LINE SMOOTH",
"1830 199 OFFCURVE",
"1718 173 OFFCURVE",
"1570 173 CURVE SMOOTH",
"1503 173 OFFCURVE",
"1433 175 OFFCURVE",
"1381 193 CURVE SMOOTH",
"1336 209 OFFCURVE",
"1304 239 OFFCURVE",
"1295 301 CURVE SMOOTH",
"1257 569 LINE SMOOTH",
"1254 588 OFFCURVE",
"1237 593 OFFCURVE",
"1224 583 CURVE SMOOTH",
"1113 501 LINE SMOOTH",
"1109 498 OFFCURVE",
"1106 492 OFFCURVE",
"1107 486 CURVE SMOOTH",
"1214 -177 LINE SMOOTH",
"1215 -184 OFFCURVE",
"1212 -191 OFFCURVE",
"1205 -194 CURVE SMOOTH",
"1145 -222 OFFCURVE",
"882 -330 OFFCURVE",
"618 -330 CURVE SMOOTH",
"392 -330 OFFCURVE",
"251 -216 OFFCURVE",
"304 61 CURVE SMOOTH",
"338 239 LINE SMOOTH",
"340 251 OFFCURVE",
"332 259 OFFCURVE",
"322 260 CURVE SMOOTH",
"248 270 LINE SMOOTH",
"239 271 OFFCURVE",
"231 267 OFFCURVE",
"229 256 CURVE SMOOTH",
"187 38 LINE SMOOTH",
"131 -255 OFFCURVE",
"222 -531 OFFCURVE",
"590 -531 CURVE SMOOTH"
);
}
);
width = 2870;
}
);
unicode = FEB2;
},
{
glyphname = "seen-ar.medi";
lastChange = "2016-03-07 08:09:26 +0000";
layers = (
{
anchors = (
{
name = bottom;
position = "{1139, -195}";
},
{
name = top;
position = "{1003, 874}";
}
);
layerId = "93A312F7-B931-4485-B08E-C367313EB5E7";
name = Regular;
paths = (
{
closed = 1;
nodes = (
"866 0 OFFCURVE",
"994 37 OFFCURVE",
"1041 97 CURVE",
"1126 41 OFFCURVE",
"1244 4 OFFCURVE",
"1349 0 CURVE SMOOTH",
"1513 -6 OFFCURVE",
"1633 28 OFFCURVE",
"1682 127 CURVE SMOOTH",
"1689 142 OFFCURVE",
"1706 147 OFFCURVE",
"1716 130 CURVE SMOOTH",
"1767 43 OFFCURVE",
"1864 0 OFFCURVE",
"1966 0 CURVE SMOOTH",
"2055 0 LINE",
"2103 60 OFFCURVE",
"2103 119 OFFCURVE",
"2055 179 CURVE",
"1966 179 LINE SMOOTH",
"1776 179 OFFCURVE",
"1733 265 OFFCURVE",
"1713 522 CURVE SMOOTH",
"1701 675 LINE SMOOTH",
"1700 691 OFFCURVE",
"1681 697 OFFCURVE",
"1669 687 CURVE SMOOTH",
"1569 607 LINE SMOOTH",
"1563 602 OFFCURVE",
"1562 598 OFFCURVE",
"1563 591 CURVE SMOOTH",
"1615 220 LINE SMOOTH",
"1616 210 OFFCURVE",
"1611 200 OFFCURVE",
"1601 198 CURVE SMOOTH",
"1438 163 OFFCURVE",
"1278 173 OFFCURVE",
"1137 228 CURVE SMOOTH",
"1130 231 OFFCURVE",
"1127 237 OFFCURVE",
"1128 244 CURVE SMOOTH",
"1167 582 LINE SMOOTH",
"1168 593 OFFCURVE",
"1162 600 OFFCURVE",
"1151 601 CURVE SMOOTH",
"1075 607 LINE SMOOTH",
"1066 608 OFFCURVE",
"1058 603 OFFCURVE",
"1057 592 CURVE SMOOTH",
"1023 331 LINE SMOOTH",
"1006 199 OFFCURVE",
"895 179 OFFCURVE",
"746 179 CURVE SMOOTH",
"665 179 OFFCURVE",
"562 191 OFFCURVE",
"484 214 CURVE SMOOTH",
"477 216 OFFCURVE",
"475 224 OFFCURVE",
"475 230 CURVE SMOOTH",
"504 582 LINE SMOOTH",
"505 593 OFFCURVE",
"498 600 OFFCURVE",
"486 601 CURVE SMOOTH",
"410 605 LINE SMOOTH",
"401 605 OFFCURVE",
"393 600 OFFCURVE",
"392 590 CURVE SMOOTH",
"371 422 LINE SMOOTH",
"347 229 OFFCURVE",
"324 179 OFFCURVE",
"129 179 CURVE SMOOTH",
"-20 179 LINE SMOOTH",
"-138 179 OFFCURVE",
"-138 0 OFFCURVE",
"-20 0 CURVE SMOOTH",
"113 0 LINE SMOOTH",
"216 0 OFFCURVE",
"315 51 OFFCURVE",
"353 99 CURVE",
"430 13 OFFCURVE",
"610 0 OFFCURVE",
"737 0 CURVE SMOOTH"
);
}
);
width = 2036;
}
);
unicode = FEB4;
},
{
glyphname = "seen-ar.init";
lastChange = "2016-03-07 08:07:26 +0000";
layers = (
{
anchors = (
{
name = bottom;
position = "{1144, -195}";
},
{
name = top;
position = "{1009, 874}";
}
);
layerId = "93A312F7-B931-4485-B08E-C367313EB5E7";
name = Regular;
paths = (
{
closed = 1;
nodes = (
"877 1 OFFCURVE",
"1005 36 OFFCURVE",
"1052 96 CURVE",
"1137 43 OFFCURVE",
"1256 4 OFFCURVE",
"1360 0 CURVE SMOOTH",
"1604 -9 OFFCURVE",
"1708 48 OFFCURVE",
"1701 311 CURVE SMOOTH",
"1696 412 OFFCURVE",
"1653 670 OFFCURVE",
"1612 839 CURVE SMOOTH",
"1609 852 OFFCURVE",
"1598 853 OFFCURVE",
"1589 844 CURVE SMOOTH",
"1486 739 LINE SMOOTH",
"1480 733 OFFCURVE",
"1478 726 OFFCURVE",
"1480 716 CURVE SMOOTH",
"1603 218 LINE SMOOTH",
"1606 204 OFFCURVE",
"1596 192 OFFCURVE",
"1584 190 CURVE SMOOTH",
"1425 164 OFFCURVE",
"1288 176 OFFCURVE",
"1149 231 CURVE SMOOTH",
"1143 233 OFFCURVE",
"1139 239 OFFCURVE",
"1140 247 CURVE SMOOTH",
"1179 582 LINE SMOOTH",
"1180 593 OFFCURVE",
"1173 600 OFFCURVE",
"1163 601 CURVE SMOOTH",
"1088 607 LINE SMOOTH",
"1078 608 OFFCURVE",
"1070 603 OFFCURVE",
"1069 592 CURVE SMOOTH",
"1036 351 LINE SMOOTH",
"1016 207 OFFCURVE",
"906 180 OFFCURVE",
"758 180 CURVE SMOOTH",
"676 180 OFFCURVE",
"565 191 OFFCURVE",
"487 215 CURVE SMOOTH",
"480 217 OFFCURVE",
"476 224 OFFCURVE",
"477 231 CURVE SMOOTH",
"515 582 LINE SMOOTH",
"516 593 OFFCURVE",
"509 600 OFFCURVE",
"498 601 CURVE SMOOTH",
"423 605 LINE SMOOTH",
"414 605 OFFCURVE",
"406 600 OFFCURVE",
"405 590 CURVE SMOOTH",
"384 435 LINE SMOOTH",
"356 228 OFFCURVE",
"324 191 OFFCURVE",
"121 179 CURVE SMOOTH",
"-20 179 LINE SMOOTH",
"-138 179 OFFCURVE",
"-138 0 OFFCURVE",
"-20 0 CURVE SMOOTH",
"124 0 LINE SMOOTH",
"228 0 OFFCURVE",
"327 52 OFFCURVE",
"365 100 CURVE",
"442 21 OFFCURVE",
"621 0 OFFCURVE",
"749 0 CURVE SMOOTH"
);
}
);
width = 1839;
}
);
unicode = FEB3;
},
{
glyphname = "sad-ar";
lastChange = "2016-02-16 18:45:51 +0000";
layers = (
{
anchors = (
{
name = bottom;
position = "{707, -704}";
},
{
name = top;
position = "{742, 713}";
}
);
layerId = "93A312F7-B931-4485-B08E-C367313EB5E7";
name = Regular;
paths = (
{
closed = 1;
nodes = (
"818 -531 OFFCURVE",
"1176 -427 OFFCURVE",
"1296 -271 CURVE SMOOTH",
"1344 -208 OFFCURVE",
"1346 -147 OFFCURVE",
"1324 84 CURVE",
"1578 -72 OFFCURVE",
"2282 -36 OFFCURVE",
"2498 174 CURVE",
"2726 431 OFFCURVE",
"2376 779 OFFCURVE",
"2124 781 CURVE SMOOTH",
"1947 782 OFFCURVE",
"1727 712 OFFCURVE",
"1355 254 CURVE",
"1287 312 OFFCURVE",
"1293 419 OFFCURVE",
"1272 577 CURVE SMOOTH",
"1269 596 OFFCURVE",
"1252 601 OFFCURVE",
"1239 591 CURVE SMOOTH",
"1128 509 LINE SMOOTH",
"1124 506 OFFCURVE",
"1121 500 OFFCURVE",
"1122 494 CURVE SMOOTH",
"1216 -177 LINE SMOOTH",
"1217 -184 OFFCURVE",
"1213 -191 OFFCURVE",
"1206 -194 CURVE SMOOTH",
"1124 -233 OFFCURVE",
"929 -330 OFFCURVE",
"619 -330 CURVE SMOOTH",
"382 -330 OFFCURVE",
"255 -217 OFFCURVE",
"305 61 CURVE SMOOTH",
"339 251 LINE SMOOTH",
"341 262 OFFCURVE",
"334 269 OFFCURVE",
"323 271 CURVE SMOOTH",
"250 282 LINE SMOOTH",
"240 284 OFFCURVE",
"232 278 OFFCURVE",
"230 268 CURVE SMOOTH",
"189 38 LINE SMOOTH",
"137 -255 OFFCURVE",
"200 -531 OFFCURVE",
"591 -531 CURVE SMOOTH"
);
},
{
closed = 1;
nodes = (
"1722 541 OFFCURVE",
"1880 606 OFFCURVE",
"2044 606 CURVE SMOOTH",
"2254 606 OFFCURVE",
"2414 406 OFFCURVE",
"2458 320 CURVE SMOOTH",
"2462 309 OFFCURVE",
"2460 302 OFFCURVE",
"2451 297 CURVE SMOOTH",
"2178 133 OFFCURVE",
"1747 133 OFFCURVE",
"1451 215 CURVE"
);
}
);
width = 2709;
}
);
unicode = 0635;
},
{
glyphname = "sad-ar.fina";
lastChange = "2016-02-16 22:17:56 +0000";
layers = (
{
anchors = (
{
name = bottom;
position = "{707, -704}";
},
{
name = top;
position = "{742, 713}";
}
);
layerId = "93A312F7-B931-4485-B08E-C367313EB5E7";
name = Regular;
paths = (
{
closed = 1;
nodes = (
"815 -531 OFFCURVE",
"1164 -437 OFFCURVE",
"1283 -271 CURVE SMOOTH",
"1330 -206 OFFCURVE",
"1342 -151 OFFCURVE",
"1321 61 CURVE",
"1448 14 OFFCURVE",
"1615 -8 OFFCURVE",
"1784 -6 CURVE SMOOTH",
"1999 -5 OFFCURVE",
"2261 33 OFFCURVE",
"2406 92 CURVE SMOOTH",
"2415 96 OFFCURVE",
"2422 94 OFFCURVE",
"2429 86 CURVE SMOOTH",
"2498 12 OFFCURVE",
"2611 0 OFFCURVE",
"2783 0 CURVE SMOOTH",
"2849 0 LINE",
"2897 60 OFFCURVE",
"2897 119 OFFCURVE",
"2849 179 CURVE",
"2783 179 LINE SMOOTH",
"2722 179 OFFCURVE",
"2601 183 OFFCURVE",
"2519 199 CURVE SMOOTH",
"2507 201 OFFCURVE",
"2502 208 OFFCURVE",
"2506 220 CURVE SMOOTH",
"2589 473 OFFCURVE",
"2369 790 OFFCURVE",
"2106 792 CURVE SMOOTH",
"1937 793 OFFCURVE",
"1709 659 OFFCURVE",
"1360 245 CURVE SMOOTH",
"1353 237 OFFCURVE",
"1346 234 OFFCURVE",
"1337 239 CURVE SMOOTH",
"1298 261 OFFCURVE",
"1294 289 OFFCURVE",
"1255 578 CURVE SMOOTH",
"1253 595 OFFCURVE",
"1243 599 OFFCURVE",
"1233 591 CURVE SMOOTH",
"1117 504 LINE SMOOTH",
"1110 498 OFFCURVE",
"1105 492 OFFCURVE",
"1107 482 CURVE SMOOTH",
"1216 -190 LINE",
"1194 -200 OFFCURVE",
"906 -330 OFFCURVE",
"616 -330 CURVE SMOOTH",
"391 -330 OFFCURVE",
"252 -216 OFFCURVE",
"302 61 CURVE SMOOTH",
"337 252 LINE SMOOTH",
"339 262 OFFCURVE",
"334 269 OFFCURVE",
"323 271 CURVE SMOOTH",
"247 282 LINE SMOOTH",
"237 283 OFFCURVE",
"230 279 OFFCURVE",
"228 268 CURVE SMOOTH",
"186 38 LINE SMOOTH",
"133 -255 OFFCURVE",
"221 -531 OFFCURVE",
"589 -531 CURVE SMOOTH"
);
},
{
closed = 1;
nodes = (
"1717 518 OFFCURVE",
"1904 615 OFFCURVE",
"2067 615 CURVE SMOOTH",
"2272 615 OFFCURVE",
"2399 357 OFFCURVE",
"2420 285 CURVE SMOOTH",
"2423 276 OFFCURVE",
"2418 269 OFFCURVE",
"2408 265 CURVE SMOOTH",
"2078 137 OFFCURVE",
"1732 153 OFFCURVE",
"1455 201 CURVE"
);
}
);
width = 2829;
}
);
unicode = FEBA;
},
{
glyphname = "sad-ar.medi";
lastChange = "2016-02-16 22:18:11 +0000";
layers = (
{
anchors = (
{
name = bottom;
position = "{974, -192}";
},
{
name = top;
position = "{1148, 965}";
}
);
layerId = "93A312F7-B931-4485-B08E-C367313EB5E7";
name = Regular;
paths = (
{
closed = 1;
nodes = (
"1083 -1 OFFCURVE",
"1348 39 OFFCURVE",
"1492 110 CURVE SMOOTH",
"1498 114 OFFCURVE",
"1505 112 OFFCURVE",
"1512 103 CURVE SMOOTH",
"1581 28 OFFCURVE",
"1693 0 OFFCURVE",
"1865 0 CURVE SMOOTH",
"1931 0 LINE",
"1979 60 OFFCURVE",
"1979 119 OFFCURVE",
"1931 179 CURVE",
"1865 179 LINE SMOOTH",
"1804 179 OFFCURVE",
"1684 183 OFFCURVE",
"1601 199 CURVE SMOOTH",
"1589 201 OFFCURVE",
"1585 208 OFFCURVE",
"1588 220 CURVE SMOOTH",
"1671 473 OFFCURVE",
"1451 790 OFFCURVE",
"1188 792 CURVE SMOOTH",
"1019 793 OFFCURVE",
"791 662 OFFCURVE",
"442 247 CURVE SMOOTH",
"436 239 OFFCURVE",
"428 236 OFFCURVE",
"419 240 CURVE SMOOTH",
"382 255 OFFCURVE",
"383 273 OFFCURVE",
"392 369 CURVE SMOOTH",
"411 583 LINE SMOOTH",
"412 593 OFFCURVE",
"405 601 OFFCURVE",
"394 601 CURVE SMOOTH",
"324 604 LINE SMOOTH",
"314 604 OFFCURVE",
"307 600 OFFCURVE",
"306 589 CURVE SMOOTH",
"276 360 LINE SMOOTH",
"260 237 OFFCURVE",
"230 179 OFFCURVE",
"46 179 CURVE SMOOTH",
"-20 179 LINE SMOOTH",
"-138 179 OFFCURVE",
"-138 0 OFFCURVE",
"-20 0 CURVE SMOOTH",
"46 0 LINE SMOOTH",
"155 0 OFFCURVE",
"247 31 OFFCURVE",
"309 102 CURVE",
"438 31 OFFCURVE",
"651 -5 OFFCURVE",
"866 -2 CURVE SMOOTH"
);
},
{
closed = 1;
nodes = (
"799 521 OFFCURVE",
"987 615 OFFCURVE",
"1149 615 CURVE SMOOTH",
"1355 615 OFFCURVE",
"1481 363 OFFCURVE",
"1502 293 CURVE SMOOTH",
"1505 284 OFFCURVE",
"1501 277 OFFCURVE",
"1490 273 CURVE SMOOTH",
"1132 130 OFFCURVE",
"849 150 OFFCURVE",
"537 205 CURVE"
);
}
);
width = 1911;
}
);
unicode = FEBC;
},
{
glyphname = "sad-ar.init";
lastChange = "2016-02-16 18:57:13 +0000";
layers = (
{
anchors = (
{
name = bottom;
position = "{974, -192}";
},
{
name = top;
position = "{1148, 965}";
}
);
layerId = "93A312F7-B931-4485-B08E-C367313EB5E7";
name = Regular;
paths = (
{
closed = 1;
nodes = (
"1106 -2 OFFCURVE",
"1406 52 OFFCURVE",
"1573 197 CURVE SMOOTH",
"1787 386 OFFCURVE",
"1539 790 OFFCURVE",
"1211 792 CURVE SMOOTH",
"1041 793 OFFCURVE",
"812 657 OFFCURVE",
"460 237 CURVE SMOOTH",
"454 229 OFFCURVE",
"446 227 OFFCURVE",
"437 230 CURVE SMOOTH",
"382 247 OFFCURVE",
"382 254 OFFCURVE",
"392 365 CURVE SMOOTH",
"411 583 LINE SMOOTH",
"412 593 OFFCURVE",
"405 601 OFFCURVE",
"394 601 CURVE SMOOTH",
"324 604 LINE SMOOTH",
"314 604 OFFCURVE",
"308 600 OFFCURVE",
"306 589 CURVE SMOOTH",
"276 370 LINE SMOOTH",
"259 247 OFFCURVE",
"230 179 OFFCURVE",
"46 179 CURVE SMOOTH",
"-20 179 LINE SMOOTH",
"-138 179 OFFCURVE",
"-138 0 OFFCURVE",
"-20 0 CURVE SMOOTH",
"46 0 LINE SMOOTH",
"152 0 OFFCURVE",
"241 43 OFFCURVE",
"304 109 CURVE",
"432 28 OFFCURVE",
"624 -8 OFFCURVE",
"825 -6 CURVE SMOOTH"
);
},
{
closed = 1;
nodes = (
"822 516 OFFCURVE",
"980 603 OFFCURVE",
"1142 603 CURVE SMOOTH",
"1363 603 OFFCURVE",
"1505 416 OFFCURVE",
"1544 343 CURVE SMOOTH",
"1550 332 OFFCURVE",
"1547 326 OFFCURVE",
"1536 320 CURVE SMOOTH",
"1244 160 OFFCURVE",
"818 151 OFFCURVE",
"560 200 CURVE"
);
}
);
width = 1791;
}
);
unicode = FEBB;
},
{
glyphname = "tah-ar";
lastChange = "2016-03-07 07:58:46 +0000";
layers = (
{
anchors = (
{
name = bottom;
position = "{796, -195}";
},
{
name = top;
position = "{1225, 1018}";
}
);
layerId = "93A312F7-B931-4485-B08E-C367313EB5E7";
name = Regular;
paths = (
{
closed = 1;
nodes = (
"722 -31 OFFCURVE",
"1305 -33 OFFCURVE",
"1587 240 CURVE SMOOTH",
"1799 448 OFFCURVE",
"1544 838 OFFCURVE",
"1243 839 CURVE SMOOTH",
"1055 840 OFFCURVE",
"852 698 OFFCURVE",
"659 484 CURVE",
"689 581 OFFCURVE",
"693 690 OFFCURVE",
"689 844 CURVE SMOOTH",
"669 1511 LINE SMOOTH",
"668 1531 OFFCURVE",
"651 1540 OFFCURVE",
"634 1528 CURVE SMOOTH",
"503 1431 LINE SMOOTH",
"499 1428 OFFCURVE",
"496 1424 OFFCURVE",
"496 1418 CURVE SMOOTH",
"519 1032 OFFCURVE",
"541 795 OFFCURVE",
"546 635 CURVE SMOOTH",
"554 390 OFFCURVE",
"523 329 OFFCURVE",
"396 195 CURVE SMOOTH",
"393 191 OFFCURVE",
"389 191 OFFCURVE",
"384 191 CURVE SMOOTH",
"194 210 LINE SMOOTH",
"181 212 OFFCURVE",
"170 200 OFFCURVE",
"174 185 CURVE SMOOTH",
"209 36 OFFCURVE",
"246 -5 OFFCURVE",
"377 -12 CURVE SMOOTH"
);
},
{
closed = 1;
nodes = (
"871 554 OFFCURVE",
"989 647 OFFCURVE",
"1162 647 CURVE SMOOTH",
"1393 647 OFFCURVE",
"1513 453 OFFCURVE",
"1542 369 CURVE SMOOTH",
"1544 362 OFFCURVE",
"1541 355 OFFCURVE",
"1533 351 CURVE SMOOTH",
"1240 204 OFFCURVE",
"864 167 OFFCURVE",
"512 183 CURVE"
);
}
);
width = 1803;
}
);
unicode = 0637;
},
{
glyphname = "tah-ar.fina";
lastChange = "2016-03-07 07:59:01 +0000";
layers = (
{
anchors = (
{
name = bottom;
position = "{796, -195}";
},
{
name = top;
position = "{1225, 1018}";
}
);
layerId = "93A312F7-B931-4485-B08E-C367313EB5E7";
name = Regular;
paths = (
{
closed = 1;
nodes = (
"645 -15 OFFCURVE",
"1057 -20 OFFCURVE",
"1359 97 CURVE SMOOTH",
"1367 99 OFFCURVE",
"1374 98 OFFCURVE",
"1379 93 CURVE SMOOTH",
"1452 17 OFFCURVE",
"1625 0 OFFCURVE",
"1796 0 CURVE SMOOTH",
"1862 0 LINE",
"1910 60 OFFCURVE",
"1910 119 OFFCURVE",
"1862 179 CURVE",
"1796 179 LINE SMOOTH",
"1736 179 OFFCURVE",
"1619 185 OFFCURVE",
"1538 198 CURVE",
"1555 212 OFFCURVE",
"1572 225 OFFCURVE",
"1587 240 CURVE SMOOTH",
"1799 448 OFFCURVE",
"1544 818 OFFCURVE",
"1243 839 CURVE SMOOTH",
"1055 852 OFFCURVE",
"852 710 OFFCURVE",
"659 496 CURVE",
"689 592 OFFCURVE",
"695 702 OFFCURVE",
"689 856 CURVE SMOOTH",
"665 1519 LINE SMOOTH",
"664 1538 OFFCURVE",
"645 1547 OFFCURVE",
"630 1536 CURVE SMOOTH",
"499 1444 LINE SMOOTH",
"495 1441 OFFCURVE",
"492 1436 OFFCURVE",
"492 1432 CURVE SMOOTH",
"516 1036 OFFCURVE",
"538 795 OFFCURVE",
"543 635 CURVE SMOOTH",
"550 392 OFFCURVE",
"518 335 OFFCURVE",
"396 207 CURVE SMOOTH",
"393 203 OFFCURVE",
"389 201 OFFCURVE",
"384 202 CURVE SMOOTH",
"194 222 LINE SMOOTH",
"181 223 OFFCURVE",
"171 212 OFFCURVE",
"174 197 CURVE SMOOTH",
"209 47 OFFCURVE",
"246 7 OFFCURVE",
"377 0 CURVE SMOOTH"
);
},
{
closed = 1;
nodes = (
"871 566 OFFCURVE",
"989 657 OFFCURVE",
"1162 647 CURVE SMOOTH",
"1393 633 OFFCURVE",
"1513 451 OFFCURVE",
"1542 369 CURVE SMOOTH",
"1545 362 OFFCURVE",
"1541 355 OFFCURVE",
"1533 351 CURVE SMOOTH",
"1240 204 OFFCURVE",
"864 178 OFFCURVE",
"512 194 CURVE"
);
}
);
width = 1842;
}
);
unicode = FEC2;
},
{
glyphname = "tah-ar.medi";
lastChange = "2016-03-07 07:59:10 +0000";
layers = (
{
anchors = (
{
name = bottom;
position = "{690, -173}";
},
{
name = top;
position = "{1097, 1017}";
}
);
layerId = "93A312F7-B931-4485-B08E-C367313EB5E7";
name = Regular;
paths = (
{
closed = 1;
nodes = (
"639 0 OFFCURVE",
"967 1 OFFCURVE",
"1218 95 CURVE SMOOTH",
"1225 98 OFFCURVE",
"1231 95 OFFCURVE",
"1235 91 CURVE SMOOTH",
"1310 16 OFFCURVE",
"1480 0 OFFCURVE",
"1651 0 CURVE SMOOTH",
"1717 0 LINE",
"1765 60 OFFCURVE",
"1765 119 OFFCURVE",
"1717 179 CURVE",
"1651 179 LINE SMOOTH",
"1595 179 OFFCURVE",
"1487 185 OFFCURVE",
"1406 197 CURVE",
"1425 210 OFFCURVE",
"1442 224 OFFCURVE",
"1458 240 CURVE SMOOTH",
"1670 448 OFFCURVE",
"1415 838 OFFCURVE",
"1114 839 CURVE SMOOTH",
"926 840 OFFCURVE",
"723 698 OFFCURVE",
"530 484 CURVE",
"560 581 OFFCURVE",
"565 690 OFFCURVE",
"560 844 CURVE SMOOTH",
"541 1515 LINE SMOOTH",
"540 1533 OFFCURVE",
"522 1544 OFFCURVE",
"506 1532 CURVE SMOOTH",
"383 1440 LINE SMOOTH",
"378 1436 OFFCURVE",
"376 1432 OFFCURVE",
"376 1427 CURVE SMOOTH",
"392 1028 OFFCURVE",
"410 787 OFFCURVE",
"411 626 CURVE SMOOTH",
"411 395 OFFCURVE",
"375 324 OFFCURVE",
"241 184 CURVE SMOOTH",
"238 181 OFFCURVE",
"235 179 OFFCURVE",
"231 179 CURVE SMOOTH",
"-20 179 LINE SMOOTH",
"-138 179 OFFCURVE",
"-138 0 OFFCURVE",
"-20 0 CURVE SMOOTH",
"368 0 LINE SMOOTH"
);
},
{
closed = 1;
nodes = (
"742 554 OFFCURVE",
"860 647 OFFCURVE",
"1033 647 CURVE SMOOTH",
"1264 647 OFFCURVE",
"1385 453 OFFCURVE",
"1413 369 CURVE SMOOTH",
"1416 362 OFFCURVE",
"1412 355 OFFCURVE",
"1404 351 CURVE SMOOTH",
"1081 191 OFFCURVE",
"735 190 OFFCURVE",
"383 183 CURVE"
);
}
);
width = 1697;
}
);
unicode = FEC4;
},
{
glyphname = "tah-ar.init";
lastChange = "2016-03-07 07:59:28 +0000";
layers = (
{
anchors = (
{
name = bottom;
position = "{690, -173}";
},
{
name = top;
position = "{1097, 1017}";
}
);
layerId = "93A312F7-B931-4485-B08E-C367313EB5E7";
name = Regular;
paths = (
{
closed = 1;
nodes = (
"368 0 LINE SMOOTH",
"739 0 OFFCURVE",
"1217 6 OFFCURVE",
"1458 240 CURVE SMOOTH",
"1670 448 OFFCURVE",
"1416 838 OFFCURVE",
"1115 839 CURVE SMOOTH",
"927 840 OFFCURVE",
"723 698 OFFCURVE",
"530 484 CURVE",
"560 581 OFFCURVE",
"564 690 OFFCURVE",
"560 844 CURVE SMOOTH",
"541 1515 LINE SMOOTH",
"540 1533 OFFCURVE",
"522 1543 OFFCURVE",
"506 1532 CURVE SMOOTH",
"386 1446 LINE SMOOTH",
"381 1443 OFFCURVE",
"379 1438 OFFCURVE",
"379 1433 CURVE SMOOTH",
"393 1030 OFFCURVE",
"408 785 OFFCURVE",
"406 621 CURVE SMOOTH",
"403 386 OFFCURVE",
"366 317 OFFCURVE",
"241 184 CURVE SMOOTH",
"238 181 OFFCURVE",
"235 179 OFFCURVE",
"231 179 CURVE SMOOTH",
"-20 179 LINE SMOOTH",
"-138 179 OFFCURVE",
"-138 0 OFFCURVE",
"-20 0 CURVE SMOOTH"
);
},
{
closed = 1;
nodes = (
"742 554 OFFCURVE",
"860 647 OFFCURVE",
"1033 647 CURVE SMOOTH",
"1264 647 OFFCURVE",
"1385 453 OFFCURVE",
"1413 369 CURVE SMOOTH",
"1415 362 OFFCURVE",
"1412 355 OFFCURVE",
"1404 351 CURVE SMOOTH",
"1081 191 OFFCURVE",
"735 190 OFFCURVE",
"383 183 CURVE"
);
}
);
width = 1674;
}
);
unicode = FEC3;
},
{
glyphname = "ain-ar";
lastChange = "2016-03-07 08:25:10 +0000";
layers = (
{
anchors = (
{
name = bottom;
position = "{853, -992}";
},
{
name = top;
position = "{592, 1357}";
}
);
layerId = "93A312F7-B931-4485-B08E-C367313EB5E7";
name = Regular;
paths = (
{
closed = 1;
nodes = (
"1171 -486 OFFCURVE",
"993 -517 OFFCURVE",
"819 -504 CURVE SMOOTH",
"459 -477 OFFCURVE",
"319 -305 OFFCURVE",
"361 -80 CURVE SMOOTH",
"423 250 OFFCURVE",
"789 440 OFFCURVE",
"1122 519 CURVE SMOOTH",
"1132 521 OFFCURVE",
"1135 529 OFFCURVE",
"1136 538 CURVE SMOOTH",
"1150 695 LINE SMOOTH",
"1151 709 OFFCURVE",
"1142 714 OFFCURVE",
"1130 710 CURVE SMOOTH",
"942 652 OFFCURVE",
"808 591 OFFCURVE",
"639 511 CURVE SMOOTH",
"603 494 OFFCURVE",
"576 493 OFFCURVE",
"543 519 CURVE SMOOTH",
"417 621 OFFCURVE",
"330 728 OFFCURVE",
"312 868 CURVE SMOOTH",
"311 877 OFFCURVE",
"313 883 OFFCURVE",
"321 890 CURVE SMOOTH",
"457 1021 OFFCURVE",
"637 1051 OFFCURVE",
"885 970 CURVE SMOOTH",
"897 966 OFFCURVE",
"908 974 OFFCURVE",
"905 985 CURVE SMOOTH",
"872 1112 LINE SMOOTH",
"869 1122 OFFCURVE",
"870 1126 OFFCURVE",
"860 1131 CURVE SMOOTH",
"552 1283 OFFCURVE",
"170 1130 OFFCURVE",
"183 806 CURVE SMOOTH",
"190 638 OFFCURVE",
"283 503 OFFCURVE",
"450 353 CURVE",
"217 91 OFFCURVE",
"133 -337 OFFCURVE",
"382 -563 CURVE SMOOTH",
"547 -712 OFFCURVE",
"829 -732 OFFCURVE",
"1094 -682 CURVE SMOOTH",
"1254 -652 OFFCURVE",
"1310 -616 OFFCURVE",
"1365 -477 CURVE SMOOTH",
"1371 -462 OFFCURVE",
"1356 -451 OFFCURVE",
"1338 -454 CURVE SMOOTH"
);
}
);
width = 1289;
}
);
unicode = 0639;
},
{
glyphname = "ain-ar.fina";
lastChange = "2016-03-07 08:14:35 +0000";
layers = (
{
anchors = (
{
name = bottom;
position = "{798, -903}";
},
{
name = top;
position = "{719, 1289}";
}
);
background = {
paths = (
{
closed = 1;
nodes = (
"1278 -702 OFFCURVE",
"1334 -666 OFFCURVE",
"1389 -527 CURVE SMOOTH",
"1395 -512 OFFCURVE",
"1380 -501 OFFCURVE",
"1362 -504 CURVE SMOOTH",
"1195 -536 OFFCURVE",
"979 -567 OFFCURVE",
"785 -554 CURVE SMOOTH",
"425 -530 OFFCURVE",
"277 -354 OFFCURVE",
"327 -90 CURVE SMOOTH",
"356 83 OFFCURVE",
"473 225 OFFCURVE",
"629 332 CURVE SMOOTH",
"637 338 OFFCURVE",
"643 333 OFFCURVE",
"650 325 CURVE SMOOTH",
"923 10 OFFCURVE",
"1104 0 OFFCURVE",
"1275 0 CURVE SMOOTH",
"1322 0 LINE",
"1370 60 OFFCURVE",
"1370 119 OFFCURVE",
"1322 179 CURVE",
"1270 179 LINE SMOOTH",
"1020 179 OFFCURVE",
"898 291 OFFCURVE",
"775 420 CURVE SMOOTH",
"766 429 OFFCURVE",
"768 438 OFFCURVE",
"777 444 CURVE SMOOTH",
"929 545 OFFCURVE",
"1167 652 OFFCURVE",
"1178 812 CURVE SMOOTH",
"1193 1013 OFFCURVE",
"933 1113 OFFCURVE",
"716 1112 CURVE SMOOTH",
"568 1111 OFFCURVE",
"379 1051 OFFCURVE",
"273 1004 CURVE SMOOTH",
"265 1000 OFFCURVE",
"261 995 OFFCURVE",
"258 987 CURVE SMOOTH",
"175 781 LINE SMOOTH",
"170 769 OFFCURVE",
"175 765 OFFCURVE",
"184 759 CURVE SMOOTH",
"313 669 OFFCURVE",
"420 584 OFFCURVE",
"527 485 CURVE SMOOTH",
"536 476 OFFCURVE",
"535 468 OFFCURVE",
"526 461 CURVE SMOOTH",
"492 435 OFFCURVE",
"448 398 OFFCURVE",
"411 356 CURVE SMOOTH",
"158 63 OFFCURVE",
"122 -408 OFFCURVE",
"348 -613 CURVE SMOOTH",
"513 -762 OFFCURVE",
"815 -771 OFFCURVE",
"1080 -732 CURVE SMOOTH"
);
},
{
closed = 1;
nodes = (
"671 564 OFFCURVE",
"663 567 OFFCURVE",
"656 574 CURVE SMOOTH",
"522 709 OFFCURVE",
"402 808 OFFCURVE",
"356 843 CURVE SMOOTH",
"348 849 OFFCURVE",
"349 861 OFFCURVE",
"359 865 CURVE SMOOTH",
"646 975 OFFCURVE",
"926 957 OFFCURVE",
"1058 805 CURVE SMOOTH",
"1066 796 OFFCURVE",
"1064 787 OFFCURVE",
"1053 781 CURVE SMOOTH",
"680 569 LINE SMOOTH"
);
}
);
};
layerId = "93A312F7-B931-4485-B08E-C367313EB5E7";
name = Regular;
paths = (
{
closed = 1;
nodes = (
"1195 -476 OFFCURVE",
"979 -507 OFFCURVE",
"785 -494 CURVE SMOOTH",
"425 -470 OFFCURVE",
"277 -294 OFFCURVE",
"327 -90 CURVE SMOOTH",
"369 82 OFFCURVE",
"473 225 OFFCURVE",
"629 332 CURVE SMOOTH",
"637 338 OFFCURVE",
"643 333 OFFCURVE",
"650 325 CURVE SMOOTH",
"923 10 OFFCURVE",
"1104 0 OFFCURVE",
"1275 0 CURVE SMOOTH",
"1322 0 LINE",
"1370 60 OFFCURVE",
"1370 119 OFFCURVE",
"1322 179 CURVE",
"1270 179 LINE SMOOTH",
"1020 179 OFFCURVE",
"898 291 OFFCURVE",
"775 420 CURVE SMOOTH",
"766 429 OFFCURVE",
"768 438 OFFCURVE",
"777 444 CURVE SMOOTH",
"929 545 OFFCURVE",
"1167 652 OFFCURVE",
"1178 812 CURVE SMOOTH",
"1193 1013 OFFCURVE",
"933 1113 OFFCURVE",
"716 1112 CURVE SMOOTH",
"568 1111 OFFCURVE",
"379 1051 OFFCURVE",
"273 1004 CURVE SMOOTH",
"265 1000 OFFCURVE",
"261 995 OFFCURVE",
"258 987 CURVE SMOOTH",
"175 781 LINE SMOOTH",
"170 769 OFFCURVE",
"175 765 OFFCURVE",
"184 759 CURVE SMOOTH",
"313 669 OFFCURVE",
"420 584 OFFCURVE",
"527 485 CURVE SMOOTH",
"536 476 OFFCURVE",
"535 468 OFFCURVE",
"526 461 CURVE SMOOTH",
"218 228 OFFCURVE",
"67 -298 OFFCURVE",
"348 -553 CURVE SMOOTH",
"513 -702 OFFCURVE",
"815 -711 OFFCURVE",
"1080 -672 CURVE SMOOTH",
"1278 -642 OFFCURVE",
"1334 -606 OFFCURVE",
"1389 -467 CURVE SMOOTH",
"1395 -452 OFFCURVE",
"1380 -441 OFFCURVE",
"1362 -444 CURVE SMOOTH"
);
},
{
closed = 1;
nodes = (
"348 849 OFFCURVE",
"349 861 OFFCURVE",
"359 865 CURVE SMOOTH",
"646 975 OFFCURVE",
"926 957 OFFCURVE",
"1058 805 CURVE SMOOTH",
"1066 796 OFFCURVE",
"1064 787 OFFCURVE",
"1053 781 CURVE SMOOTH",
"680 569 LINE SMOOTH",
"671 564 OFFCURVE",
"663 567 OFFCURVE",
"656 574 CURVE SMOOTH",
"522 709 OFFCURVE",
"402 808 OFFCURVE",
"356 843 CURVE SMOOTH"
);
}
);
width = 1302;
}
);
unicode = FECA;
},
{
glyphname = "ain-ar.medi";
lastChange = "2016-02-16 22:19:05 +0000";
layers = (
{
anchors = (
{
name = bottom;
position = "{610, -173}";
},
{
name = top;
position = "{658, 1032}";
}
);
layerId = "93A312F7-B931-4485-B08E-C367313EB5E7";
name = Regular;
paths = (
{
closed = 1;
nodes = (
"46 0 LINE SMOOTH",
"218 0 OFFCURVE",
"444 18 OFFCURVE",
"603 120 CURVE SMOOTH",
"612 126 OFFCURVE",
"619 123 OFFCURVE",
"627 118 CURVE SMOOTH",
"772 24 OFFCURVE",
"981 0 OFFCURVE",
"1173 0 CURVE SMOOTH",
"1239 0 LINE",
"1287 60 OFFCURVE",
"1287 119 OFFCURVE",
"1239 179 CURVE",
"1173 179 LINE SMOOTH",
"1057 179 OFFCURVE",
"867 190 OFFCURVE",
"793 209 CURVE SMOOTH",
"777 213 OFFCURVE",
"775 223 OFFCURVE",
"787 231 CURVE SMOOTH",
"910 317 OFFCURVE",
"1094 446 OFFCURVE",
"1093 557 CURVE SMOOTH",
"1091 761 OFFCURVE",
"841 858 OFFCURVE",
"658 857 CURVE SMOOTH",
"509 856 OFFCURVE",
"321 791 OFFCURVE",
"214 744 CURVE SMOOTH",
"206 741 OFFCURVE",
"202 735 OFFCURVE",
"199 727 CURVE SMOOTH",
"128 514 LINE SMOOTH",
"124 504 OFFCURVE",
"128 496 OFFCURVE",
"137 491 CURVE SMOOTH",
"250 431 OFFCURVE",
"375 347 OFFCURVE",
"492 245 CURVE SMOOTH",
"503 236 OFFCURVE",
"500 225 OFFCURVE",
"488 222 CURVE SMOOTH",
"365 192 OFFCURVE",
"198 179 OFFCURVE",
"46 179 CURVE SMOOTH",
"-20 179 LINE SMOOTH",
"-138 179 OFFCURVE",
"-138 0 OFFCURVE",
"-20 0 CURVE SMOOTH"
);
},
{
closed = 1;
nodes = (
"633 290 OFFCURVE",
"626 292 OFFCURVE",
"618 301 CURVE SMOOTH",
"495 431 OFFCURVE",
"340 537 OFFCURVE",
"286 572 CURVE SMOOTH",
"277 578 OFFCURVE",
"278 590 OFFCURVE",
"287 594 CURVE SMOOTH",
"426 649 OFFCURVE",
"550 681 OFFCURVE",
"639 679 CURVE SMOOTH",
"736 677 OFFCURVE",
"898 638 OFFCURVE",
"971 555 CURVE SMOOTH",
"978 547 OFFCURVE",
"975 538 OFFCURVE",
"966 531 CURVE SMOOTH",
"642 297 LINE SMOOTH"
);
}
);
width = 1219;
}
);
unicode = FECC;
},
{
glyphname = "ain-ar.init";
lastChange = "2016-02-16 19:42:11 +0000";
layers = (
{
anchors = (
{
name = bottom;
position = "{603, -161}";
},
{
name = top;
position = "{591, 1157}";
}
);
layerId = "93A312F7-B931-4485-B08E-C367313EB5E7";
name = Regular;
paths = (
{
closed = 1;
nodes = (
"46 0 LINE SMOOTH",
"454 0 OFFCURVE",
"692 64 OFFCURVE",
"1102 210 CURVE SMOOTH",
"1111 213 OFFCURVE",
"1116 220 OFFCURVE",
"1118 229 CURVE SMOOTH",
"1151 383 LINE SMOOTH",
"1154 396 OFFCURVE",
"1134 405 OFFCURVE",
"1121 399 CURVE SMOOTH",
"946 324 OFFCURVE",
"773 267 OFFCURVE",
"593 230 CURVE SMOOTH",
"574 226 OFFCURVE",
"559 229 OFFCURVE",
"547 244 CURVE SMOOTH",
"423 402 OFFCURVE",
"360 536 OFFCURVE",
"325 683 CURVE SMOOTH",
"323 693 OFFCURVE",
"323 701 OFFCURVE",
"332 707 CURVE SMOOTH",
"500 820 OFFCURVE",
"698 819 OFFCURVE",
"907 733 CURVE SMOOTH",
"919 728 OFFCURVE",
"930 734 OFFCURVE",
"928 745 CURVE SMOOTH",
"910 872 LINE SMOOTH",
"909 882 OFFCURVE",
"907 887 OFFCURVE",
"899 892 CURVE SMOOTH",
"607 1064 OFFCURVE",
"213 964 OFFCURVE",
"191 639 CURVE",
"189 520 OFFCURVE",
"247 376 OFFCURVE",
"374 194 CURVE",
"258 178 OFFCURVE",
"133 179 OFFCURVE",
"46 179 CURVE SMOOTH",
"-20 179 LINE SMOOTH",
"-138 179 OFFCURVE",
"-138 0 OFFCURVE",
"-20 0 CURVE SMOOTH"
);
}
);
width = 1289;
}
);
unicode = FECB;
},
{
glyphname = "dotlessfeh-ar";
lastChange = "2016-02-16 19:43:49 +0000";
layers = (
{
anchors = (
{
name = bottom;
position = "{848, -216}";
},
{
name = top;
position = "{1350, 1293}";
}
);
layerId = "93A312F7-B931-4485-B08E-C367313EB5E7";
name = Regular;
paths = (
{
closed = 1;
nodes = (
"902 -47 OFFCURVE",
"1176 1 OFFCURVE",
"1381 54 CURVE SMOOTH",
"1688 135 OFFCURVE",
"1708 338 OFFCURVE",
"1708 506 CURVE",
"1690 800 OFFCURVE",
"1544 1116 OFFCURVE",
"1355 1116 CURVE SMOOTH",
"1124 1116 OFFCURVE",
"1011 831 OFFCURVE",
"1011 595 CURVE SMOOTH",
"1011 289 OFFCURVE",
"1382 322 OFFCURVE",
"1563 409 CURVE SMOOTH",
"1579 417 OFFCURVE",
"1594 408 OFFCURVE",
"1595 390 CURVE SMOOTH",
"1598 296 LINE",
"1474 236 OFFCURVE",
"1081 138 OFFCURVE",
"750 144 CURVE SMOOTH",
"480 148 OFFCURVE",
"258 223 OFFCURVE",
"279 454 CURVE SMOOTH",
"293 596 LINE SMOOTH",
"294 606 OFFCURVE",
"288 613 OFFCURVE",
"277 614 CURVE SMOOTH",
"214 620 LINE SMOOTH",
"204 621 OFFCURVE",
"195 614 OFFCURVE",
"194 604 CURVE SMOOTH",
"178 454 LINE SMOOTH",
"139 106 OFFCURVE",
"301 -31 OFFCURVE",
"666 -41 CURVE SMOOTH"
);
},
{
closed = 1;
nodes = (
"1129 559 OFFCURVE",
"1112 574 OFFCURVE",
"1112 580 CURVE SMOOTH",
"1114 773 OFFCURVE",
"1187 925 OFFCURVE",
"1314 925 CURVE SMOOTH",
"1428 925 OFFCURVE",
"1543 743 OFFCURVE",
"1578 558 CURVE",
"1580 550 OFFCURVE",
"1332 488 OFFCURVE",
"1163 547 CURVE SMOOTH"
);
}
);
width = 1846;
}
);
unicode = 06A1;
},
{
glyphname = "dotlessfeh-ar.fina";
lastChange = "2016-02-16 22:19:26 +0000";
layers = (
{
anchors = (
{
name = bottom;
position = "{848, -230}";
},
{
name = top;
position = "{1633, 1174}";
}
);
layerId = "93A312F7-B931-4485-B08E-C367313EB5E7";
name = Regular;
paths = (
{
closed = 1;
nodes = (
"950 -57 OFFCURVE",
"1290 2 OFFCURVE",
"1516 86 CURVE SMOOTH",
"1523 89 OFFCURVE",
"1528 88 OFFCURVE",
"1536 85 CURVE SMOOTH",
"1667 36 OFFCURVE",
"1843 0 OFFCURVE",
"2031 0 CURVE SMOOTH",
"2097 0 LINE",
"2145 60 OFFCURVE",
"2145 119 OFFCURVE",
"2097 179 CURVE",
"2031 179 LINE SMOOTH",
"1912 179 OFFCURVE",
"1771 190 OFFCURVE",
"1771 190 CURVE SMOOTH",
"1771 190 OFFCURVE",
"1916 420 OFFCURVE",
"1916 527 CURVE SMOOTH",
"1917 811 OFFCURVE",
"1745 999 OFFCURVE",
"1633 1002 CURVE SMOOTH",
"1439 1006 OFFCURVE",
"1252 699 OFFCURVE",
"1255 427 CURVE SMOOTH",
"1256 344 OFFCURVE",
"1270 275 OFFCURVE",
"1306 197 CURVE",
"1145 164 OFFCURVE",
"923 131 OFFCURVE",
"750 135 CURVE SMOOTH",
"480 139 OFFCURVE",
"258 214 OFFCURVE",
"279 445 CURVE SMOOTH",
"293 633 LINE SMOOTH",
"294 643 OFFCURVE",
"288 650 OFFCURVE",
"277 651 CURVE SMOOTH",
"214 657 LINE SMOOTH",
"204 658 OFFCURVE",
"196 651 OFFCURVE",
"195 641 CURVE SMOOTH",
"178 445 LINE SMOOTH",
"139 97 OFFCURVE",
"301 -41 OFFCURVE",
"666 -51 CURVE SMOOTH"
);
},
{
closed = 1;
nodes = (
"1447 283 OFFCURVE",
"1342 369 OFFCURVE",
"1354 507 CURVE SMOOTH",
"1363 615 OFFCURVE",
"1483 790 OFFCURVE",
"1593 790 CURVE SMOOTH",
"1732 790 OFFCURVE",
"1800 523 OFFCURVE",
"1814 463 CURVE SMOOTH",
"1816 454 OFFCURVE",
"1814 447 OFFCURVE",
"1809 440 CURVE SMOOTH",
"1758 363 OFFCURVE",
"1697 294 OFFCURVE",
"1623 237 CURVE SMOOTH",
"1616 231 OFFCURVE",
"1609 230 OFFCURVE",
"1600 233 CURVE SMOOTH"
);
}
);
width = 2077;
}
);
},
{
glyphname = "dotlessfeh-ar.medi";
lastChange = "2016-03-07 08:39:15 +0000";
layers = (
{
anchors = (
{
name = bottom;
position = "{491, -174}";
},
{
name = top;
position = "{536, 1174}";
}
);
layerId = "93A312F7-B931-4485-B08E-C367313EB5E7";
name = Regular;
paths = (
{
closed = 1;
nodes = (
"46 0 LINE SMOOTH",
"247 0 OFFCURVE",
"384 36 OFFCURVE",
"491 90 CURVE",
"623 38 OFFCURVE",
"804 0 OFFCURVE",
"997 0 CURVE SMOOTH",
"1063 0 LINE",
"1111 60 OFFCURVE",
"1111 119 OFFCURVE",
"1063 179 CURVE",
"997 179 LINE SMOOTH",
"879 179 OFFCURVE",
"737 190 OFFCURVE",
"737 190 CURVE",
"789 260 OFFCURVE",
"876 389 OFFCURVE",
"877 522 CURVE SMOOTH",
"880 752 OFFCURVE",
"761 998 OFFCURVE",
"599 1002 CURVE SMOOTH",
"405 1006 OFFCURVE",
"217 699 OFFCURVE",
"221 427 CURVE SMOOTH",
"222 321 OFFCURVE",
"253 248 OFFCURVE",
"290 193 CURVE",
"241 187 OFFCURVE",
"135 179 OFFCURVE",
"46 179 CURVE SMOOTH",
"-20 179 LINE SMOOTH",
"-138 179 OFFCURVE",
"-138 0 OFFCURVE",
"-20 0 CURVE SMOOTH"
);
},
{
closed = 1;
nodes = (
"414 282 OFFCURVE",
"308 368 OFFCURVE",
"320 507 CURVE SMOOTH",
"329 615 OFFCURVE",
"450 790 OFFCURVE",
"559 790 CURVE SMOOTH",
"702 790 OFFCURVE",
"777 511 OFFCURVE",
"790 459 CURVE SMOOTH",
"791 454 OFFCURVE",
"791 450 OFFCURVE",
"787 445 CURVE SMOOTH",
"723 361 OFFCURVE",
"655 292 OFFCURVE",
"585 236 CURVE SMOOTH",
"580 232 OFFCURVE",
"575 230 OFFCURVE",
"569 232 CURVE SMOOTH"
);
}
);
width = 1043;
}
);
},
{
glyphname = "dotlessfeh-ar.init";
lastChange = "2016-03-07 08:39:06 +0000";
layers = (
{
anchors = (
{
name = bottom;
position = "{399, -173}";
},
{
name = top;
position = "{418, 1280}";
}
);
layerId = "93A312F7-B931-4485-B08E-C367313EB5E7";
name = Regular;
paths = (
{
closed = 1;
nodes = (
"46 0 LINE SMOOTH",
"222 0 OFFCURVE",
"360 -3 OFFCURVE",
"528 35 CURVE SMOOTH",
"844 107 OFFCURVE",
"867 291 OFFCURVE",
"853 520 CURVE SMOOTH",
"836 814 OFFCURVE",
"690 1129 OFFCURVE",
"500 1129 CURVE SMOOTH",
"269 1129 OFFCURVE",
"156 845 OFFCURVE",
"156 608 CURVE SMOOTH",
"156 302 OFFCURVE",
"532 336 OFFCURVE",
"713 423 CURVE SMOOTH",
"729 431 OFFCURVE",
"745 422 OFFCURVE",
"745 404 CURVE SMOOTH",
"744 284 LINE SMOOTH",
"744 278 OFFCURVE",
"742 272 OFFCURVE",
"735 269 CURVE SMOOTH",
"499 173 OFFCURVE",
"105 179 OFFCURVE",
"46 179 CURVE SMOOTH",
"-20 179 LINE SMOOTH",
"-138 179 OFFCURVE",
"-138 0 OFFCURVE",
"-20 0 CURVE SMOOTH"
);
},
{
closed = 1;
nodes = (
"275 573 OFFCURVE",
"258 588 OFFCURVE",
"258 593 CURVE SMOOTH",
"260 787 OFFCURVE",
"332 938 OFFCURVE",
"460 938 CURVE SMOOTH",
"574 938 OFFCURVE",
"689 757 OFFCURVE",
"723 572 CURVE",
"726 564 OFFCURVE",
"477 501 OFFCURVE",
"308 561 CURVE SMOOTH"
);
}
);
width = 995;
}
);
},
{
glyphname = "dotlessqaf-ar";
lastChange = "2016-03-07 08:39:38 +0000";
layers = (
{
anchors = (
{
name = bottom;
position = "{766, -702}";
},
{
name = top;
position = "{1025, 993}";
}
);
layerId = "93A312F7-B931-4485-B08E-C367313EB5E7";
name = Regular;
paths = (
{
closed = 1;
nodes = (
"814 -529 OFFCURVE",
"1295 -466 OFFCURVE",
"1429 -269 CURVE SMOOTH",
"1483 -191 OFFCURVE",
"1488 -83 OFFCURVE",
"1493 57 CURVE SMOOTH",
"1503 386 OFFCURVE",
"1340 802 OFFCURVE",
"1109 802 CURVE SMOOTH",
"877 802 OFFCURVE",
"742 471 OFFCURVE",
"742 235 CURVE SMOOTH",
"742 -125 OFFCURVE",
"1134 -83 OFFCURVE",
"1343 24 CURVE SMOOTH",
"1355 30 OFFCURVE",
"1364 25 OFFCURVE",
"1363 12 CURVE SMOOTH",
"1354 -190 LINE SMOOTH",
"1354 -199 OFFCURVE",
"1348 -205 OFFCURVE",
"1339 -208 CURVE SMOOTH",
"1273 -232 OFFCURVE",
"986 -328 OFFCURVE",
"641 -328 CURVE SMOOTH",
"436 -328 OFFCURVE",
"283 -233 OFFCURVE",
"294 -8 CURVE SMOOTH",
"296 14 OFFCURVE",
"299 37 OFFCURVE",
"343 275 CURVE SMOOTH",
"345 286 OFFCURVE",
"339 294 OFFCURVE",
"329 297 CURVE SMOOTH",
"251 313 LINE SMOOTH",
"240 315 OFFCURVE",
"232 309 OFFCURVE",
"230 299 CURVE SMOOTH",
"187 40 LINE SMOOTH",
"129 -252 OFFCURVE",
"245 -529 OFFCURVE",
"613 -529 CURVE SMOOTH"
);
},
{
closed = 1;
nodes = (
"1175 131 OFFCURVE",
"1012 116 OFFCURVE",
"877 177 CURVE SMOOTH",
"868 181 OFFCURVE",
"866 187 OFFCURVE",
"865 197 CURVE SMOOTH",
"854 370 OFFCURVE",
"919 611 OFFCURVE",
"1068 611 CURVE SMOOTH",
"1199 611 OFFCURVE",
"1336 396 OFFCURVE",
"1354 189 CURVE SMOOTH",
"1355 178 OFFCURVE",
"1349 171 OFFCURVE",
"1339 169 CURVE SMOOTH"
);
}
);
width = 1631;
}
);
unicode = 066F;
},
{
glyphname = "dotlessqaf-ar.fina";
lastChange = "2016-03-07 08:39:32 +0000";
layers = (
{
anchors = (
{
name = bottom;
position = "{766, -702}";
},
{
name = top;
position = "{1025, 974}";
}
);
layerId = "93A312F7-B931-4485-B08E-C367313EB5E7";
name = Regular;
paths = (
{
closed = 1;
nodes = (
"814 -530 OFFCURVE",
"1295 -467 OFFCURVE",
"1429 -270 CURVE SMOOTH",
"1477 -202 OFFCURVE",
"1487 -113 OFFCURVE",
"1492 0 CURVE",
"1682 0 LINE",
"1730 60 OFFCURVE",
"1730 119 OFFCURVE",
"1682 179 CURVE",
"1489 179 LINE",
"1463 480 OFFCURVE",
"1312 800 OFFCURVE",
"1109 800 CURVE SMOOTH",
"877 800 OFFCURVE",
"719 493 OFFCURVE",
"719 256 CURVE SMOOTH",
"719 -69 OFFCURVE",
"1103 -41 OFFCURVE",
"1341 3 CURVE SMOOTH",
"1354 6 OFFCURVE",
"1359 -1 OFFCURVE",
"1359 -13 CURVE SMOOTH",
"1352 -190 LINE SMOOTH",
"1352 -199 OFFCURVE",
"1348 -206 OFFCURVE",
"1339 -209 CURVE SMOOTH",
"1273 -233 OFFCURVE",
"986 -329 OFFCURVE",
"641 -329 CURVE SMOOTH",
"436 -329 OFFCURVE",
"283 -235 OFFCURVE",
"294 -9 CURVE SMOOTH",
"296 13 OFFCURVE",
"300 36 OFFCURVE",
"344 274 CURVE SMOOTH",
"346 285 OFFCURVE",
"340 294 OFFCURVE",
"330 296 CURVE SMOOTH",
"252 312 LINE SMOOTH",
"241 314 OFFCURVE",
"233 308 OFFCURVE",
"231 298 CURVE SMOOTH",
"187 39 LINE SMOOTH",
"129 -253 OFFCURVE",
"245 -530 OFFCURVE",
"613 -530 CURVE SMOOTH"
);
},
{
closed = 1;
nodes = (
"1140 148 OFFCURVE",
"944 159 OFFCURVE",
"833 213 CURVE SMOOTH",
"828 215 OFFCURVE",
"825 221 OFFCURVE",
"825 230 CURVE SMOOTH",
"816 401 OFFCURVE",
"919 610 OFFCURVE",
"1068 610 CURVE SMOOTH",
"1203 610 OFFCURVE",
"1343 384 OFFCURVE",
"1355 171 CURVE"
);
}
);
width = 1662;
}
);
},
{
glyphname = "dotlesskaf-ar";
lastChange = "2016-02-16 19:53:14 +0000";
layers = (
{
anchors = (
{
name = bottom;
position = "{775, -215}";
},
{
name = top;
position = "{722, 928}";
}
);
layerId = "93A312F7-B931-4485-B08E-C367313EB5E7";
name = Regular;
paths = (
{
closed = 1;
nodes = (
"537 -32 OFFCURVE",
"745 -23 OFFCURVE",
"911 -5 CURVE SMOOTH",
"1275 36 OFFCURVE",
"1367 201 OFFCURVE",
"1362 598 CURVE SMOOTH",
"1348 1520 LINE SMOOTH",
"1348 1534 OFFCURVE",
"1340 1541 OFFCURVE",
"1327 1532 CURVE SMOOTH",
"1208 1449 LINE SMOOTH",
"1199 1442 OFFCURVE",
"1197 1439 OFFCURVE",
"1197 1428 CURVE SMOOTH",
"1229 683 OFFCURVE",
"1239 382 OFFCURVE",
"1220 261 CURVE SMOOTH",
"1218 250 OFFCURVE",
"1216 245 OFFCURVE",
"1205 241 CURVE SMOOTH",
"1015 174 OFFCURVE",
"506 143 OFFCURVE",
"193 222 CURVE SMOOTH",
"182 225 OFFCURVE",
"175 221 OFFCURVE",
"174 208 CURVE SMOOTH",
"163 28 OFFCURVE",
"198 7 OFFCURVE",
"370 -13 CURVE SMOOTH"
);
}
);
width = 1500;
}
);
},
{
glyphname = "dotlesskaf-ar.fina";
lastChange = "2016-02-16 22:19:59 +0000";
layers = (
{
anchors = (
{
name = bottom;
position = "{775, -215}";
},
{
name = top;
position = "{721, 928}";
}
);
layerId = "93A312F7-B931-4485-B08E-C367313EB5E7";
name = Regular;
paths = (
{
closed = 1;
nodes = (
"537 -32 OFFCURVE",
"722 -23 OFFCURVE",
"888 -5 CURVE SMOOTH",
"1098 18 OFFCURVE",
"1233 78 OFFCURVE",
"1279 206 CURVE",
"1323 78 OFFCURVE",
"1406 0 OFFCURVE",
"1564 0 CURVE SMOOTH",
"1699 0 LINE",
"1747 60 OFFCURVE",
"1747 119 OFFCURVE",
"1699 179 CURVE",
"1612 179 LINE SMOOTH",
"1512 179 OFFCURVE",
"1367 208 OFFCURVE",
"1366 308 CURVE SMOOTH",
"1348 1520 LINE SMOOTH",
"1348 1534 OFFCURVE",
"1340 1541 OFFCURVE",
"1327 1532 CURVE SMOOTH",
"1208 1449 LINE SMOOTH",
"1199 1442 OFFCURVE",
"1197 1439 OFFCURVE",
"1197 1428 CURVE SMOOTH",
"1229 683 OFFCURVE",
"1239 382 OFFCURVE",
"1220 261 CURVE SMOOTH",
"1218 250 OFFCURVE",
"1216 245 OFFCURVE",
"1205 241 CURVE SMOOTH",
"1015 174 OFFCURVE",
"506 143 OFFCURVE",
"193 222 CURVE SMOOTH",
"182 225 OFFCURVE",
"175 221 OFFCURVE",
"174 208 CURVE SMOOTH",
"163 28 OFFCURVE",
"198 7 OFFCURVE",
"370 -13 CURVE SMOOTH"
);
}
);
width = 1679;
}
);
userData = {
com.typemytype.robofont.guides = (
{
angle = 0;
isGlobal = 0;
x = "-180";
y = 1345;
}
);
};
},
{
glyphname = "kaf-ar.medi";
lastChange = "2016-02-16 22:20:08 +0000";
layers = (
{
anchors = (
{
name = bottom;
position = "{389, -171}";
},
{
name = top;
position = "{505, 1512}";
}
);
layerId = "93A312F7-B931-4485-B08E-C367313EB5E7";
name = Regular;
paths = (
{
closed = 1;
nodes = (
"46 0 LINE SMOOTH",
"252 0 OFFCURVE",
"481 44 OFFCURVE",
"619 101 CURVE SMOOTH",
"637 108 OFFCURVE",
"653 117 OFFCURVE",
"696 193 CURVE SMOOTH",
"703 206 OFFCURVE",
"712 207 OFFCURVE",
"720 195 CURVE SMOOTH",
"827 38 OFFCURVE",
"926 0 OFFCURVE",
"1002 0 CURVE SMOOTH",
"1068 0 LINE",
"1116 60 OFFCURVE",
"1116 119 OFFCURVE",
"1068 179 CURVE",
"1002 179 LINE SMOOTH",
"873 179 OFFCURVE",
"814 224 OFFCURVE",
"751 347 CURVE SMOOTH",
"622 598 OFFCURVE",
"534 849 OFFCURVE",
"201 1057 CURVE SMOOTH",
"189 1065 OFFCURVE",
"190 1075 OFFCURVE",
"204 1080 CURVE SMOOTH",
"942 1310 LINE SMOOTH",
"951 1313 OFFCURVE",
"957 1318 OFFCURVE",
"958 1328 CURVE SMOOTH",
"976 1474 LINE SMOOTH",
"978 1487 OFFCURVE",
"971 1493 OFFCURVE",
"958 1489 CURVE SMOOTH",
"192 1236 LINE SMOOTH",
"183 1233 OFFCURVE",
"179 1229 OFFCURVE",
"175 1221 CURVE SMOOTH",
"54 969 LINE SMOOTH",
"50 961 OFFCURVE",
"53 951 OFFCURVE",
"62 946 CURVE SMOOTH",
"437 742 OFFCURVE",
"577 421 OFFCURVE",
"633 282 CURVE SMOOTH",
"637 273 OFFCURVE",
"633 264 OFFCURVE",
"623 260 CURVE SMOOTH",
"475 199 OFFCURVE",
"256 179 OFFCURVE",
"46 179 CURVE SMOOTH",
"-20 179 LINE SMOOTH",
"-138 179 OFFCURVE",
"-138 0 OFFCURVE",
"-20 0 CURVE SMOOTH"
);
}
);
width = 1048;
}
);
unicode = FEDC;
},
{
glyphname = "kaf-ar.init";
lastChange = "2016-02-16 19:57:45 +0000";
layers = (
{
anchors = (
{
name = bottom;
position = "{388, -171}";
},
{
name = top;
position = "{454, 1464}";
}
);
layerId = "93A312F7-B931-4485-B08E-C367313EB5E7";
name = Regular;
paths = (
{
closed = 1;
nodes = (
"46 0 LINE SMOOTH",
"184 0 OFFCURVE",
"339 17 OFFCURVE",
"469 57 CURVE SMOOTH",
"633 110 OFFCURVE",
"726 197 OFFCURVE",
"705 377 CURVE SMOOTH",
"666 718 OFFCURVE",
"369 958 OFFCURVE",
"170 1059 CURVE SMOOTH",
"156 1066 OFFCURVE",
"158 1076 OFFCURVE",
"173 1081 CURVE SMOOTH",
"827 1287 LINE SMOOTH",
"836 1290 OFFCURVE",
"842 1295 OFFCURVE",
"843 1305 CURVE SMOOTH",
"861 1450 LINE SMOOTH",
"863 1463 OFFCURVE",
"856 1470 OFFCURVE",
"843 1466 CURVE SMOOTH",
"158 1236 LINE SMOOTH",
"148 1233 OFFCURVE",
"144 1229 OFFCURVE",
"140 1221 CURVE SMOOTH",
"21 971 LINE SMOOTH",
"16 961 OFFCURVE",
"20 953 OFFCURVE",
"29 948 CURVE SMOOTH",
"407 743 OFFCURVE",
"573 453 OFFCURVE",
"619 298 CURVE SMOOTH",
"622 288 OFFCURVE",
"619 281 OFFCURVE",
"610 276 CURVE SMOOTH",
"438 191 OFFCURVE",
"247 179 OFFCURVE",
"46 179 CURVE SMOOTH",
"-20 179 LINE SMOOTH",
"-138 179 OFFCURVE",
"-138 0 OFFCURVE",
"-20 0 CURVE SMOOTH"
);
}
);
width = 846;
}
);
unicode = FEDB;
},
{
glyphname = "keheh-ar";
lastChange = "2016-02-16 19:59:55 +0000";
layers = (
{
anchors = (
{
name = bottom;
position = "{785, -202}";
},
{
name = top;
position = "{603, 1081}";
}
);
layerId = "93A312F7-B931-4485-B08E-C367313EB5E7";
name = Regular;
paths = (
{
closed = 1;
nodes = (
"1025 -39 OFFCURVE",
"1349 46 OFFCURVE",
"1494 110 CURVE SMOOTH",
"1497 111 OFFCURVE",
"1499 116 OFFCURVE",
"1503 124 CURVE SMOOTH",
"1539 202 OFFCURVE",
"1572 315 OFFCURVE",
"1564 373 CURVE SMOOTH",
"1525 647 OFFCURVE",
"1243 952 OFFCURVE",
"1044 1058 CURVE SMOOTH",
"1030 1066 OFFCURVE",
"1033 1077 OFFCURVE",
"1047 1081 CURVE SMOOTH",
"1702 1287 LINE SMOOTH",
"1711 1290 OFFCURVE",
"1717 1295 OFFCURVE",
"1718 1305 CURVE SMOOTH",
"1736 1450 LINE SMOOTH",
"1738 1463 OFFCURVE",
"1731 1470 OFFCURVE",
"1718 1466 CURVE SMOOTH",
"1033 1236 LINE SMOOTH",
"1023 1233 OFFCURVE",
"1019 1229 OFFCURVE",
"1015 1221 CURVE SMOOTH",
"895 969 LINE SMOOTH",
"891 960 OFFCURVE",
"893 951 OFFCURVE",
"903 946 CURVE SMOOTH",
"1281 742 OFFCURVE",
"1432 450 OFFCURVE",
"1478 293 CURVE SMOOTH",
"1481 283 OFFCURVE",
"1478 277 OFFCURVE",
"1467 273 CURVE SMOOTH",
"1346 223 OFFCURVE",
"1067 150 OFFCURVE",
"750 155 CURVE SMOOTH",
"480 160 OFFCURVE",
"256 235 OFFCURVE",
"279 466 CURVE SMOOTH",
"293 607 LINE SMOOTH",
"294 618 OFFCURVE",
"288 625 OFFCURVE",
"277 626 CURVE SMOOTH",
"214 631 LINE SMOOTH",
"204 632 OFFCURVE",
"195 626 OFFCURVE",
"194 615 CURVE SMOOTH",
"178 466 LINE SMOOTH",
"141 117 OFFCURVE",
"301 -20 OFFCURVE",
"666 -30 CURVE SMOOTH"
);
}
);
width = 1703;
}
);
unicode = 06A9;
},
{
glyphname = "keheh-ar.fina";
lastChange = "2016-02-16 22:20:25 +0000";
layers = (
{
anchors = (
{
name = bottom;
position = "{785, -202}";
},
{
name = top;
position = "{624, 1202}";
}
);
layerId = "93A312F7-B931-4485-B08E-C367313EB5E7";
name = Regular;
paths = (
{
closed = 1;
nodes = (
"979 -38 OFFCURVE",
"1304 21 OFFCURVE",
"1465 87 CURVE SMOOTH",
"1485 95 OFFCURVE",
"1498 113 OFFCURVE",
"1548 210 CURVE",
"1659 37 OFFCURVE",
"1763 0 OFFCURVE",
"1842 0 CURVE SMOOTH",
"1899 0 LINE",
"1947 60 OFFCURVE",
"1947 119 OFFCURVE",
"1899 179 CURVE",
"1842 179 LINE SMOOTH",
"1713 179 OFFCURVE",
"1655 220 OFFCURVE",
"1592 343 CURVE SMOOTH",
"1459 599 OFFCURVE",
"1370 861 OFFCURVE",
"1018 1072 CURVE",
"1782 1310 LINE SMOOTH",
"1792 1313 OFFCURVE",
"1798 1318 OFFCURVE",
"1799 1328 CURVE SMOOTH",
"1817 1474 LINE SMOOTH",
"1819 1487 OFFCURVE",
"1811 1493 OFFCURVE",
"1799 1489 CURVE SMOOTH",
"1033 1236 LINE SMOOTH",
"1023 1233 OFFCURVE",
"1019 1229 OFFCURVE",
"1015 1221 CURVE SMOOTH",
"895 969 LINE SMOOTH",
"891 960 OFFCURVE",
"894 951 OFFCURVE",
"903 946 CURVE SMOOTH",
"1293 734 OFFCURVE",
"1428 392 OFFCURVE",
"1479 262 CURVE",
"1347 214 OFFCURVE",
"1081 150 OFFCURVE",
"750 155 CURVE SMOOTH",
"480 160 OFFCURVE",
"256 235 OFFCURVE",
"279 466 CURVE SMOOTH",
"293 607 LINE SMOOTH",
"294 618 OFFCURVE",
"288 625 OFFCURVE",
"277 626 CURVE SMOOTH",
"214 631 LINE SMOOTH",
"204 632 OFFCURVE",
"195 626 OFFCURVE",
"194 615 CURVE SMOOTH",
"178 466 LINE SMOOTH",
"141 117 OFFCURVE",
"301 -20 OFFCURVE",
"666 -30 CURVE SMOOTH"
);
}
);
width = 1879;
}
);
unicode = FB8F;
},
{
glyphname = "gaf-ar";
lastChange = "2016-03-02 08:38:45 +0000";
layers = (
{
anchors = (
{
name = bottom;
position = "{785, -202}";
},
{
name = top;
position = "{635, 1212}";
}
);
layerId = "93A312F7-B931-4485-B08E-C367313EB5E7";
name = Regular;
paths = (
{
closed = 1;
nodes = (
"1025 -39 OFFCURVE",
"1349 46 OFFCURVE",
"1494 110 CURVE SMOOTH",
"1497 111 OFFCURVE",
"1499 116 OFFCURVE",
"1503 124 CURVE SMOOTH",
"1539 202 OFFCURVE",
"1572 315 OFFCURVE",
"1564 373 CURVE SMOOTH",
"1525 647 OFFCURVE",
"1243 952 OFFCURVE",
"1044 1058 CURVE SMOOTH",
"1030 1066 OFFCURVE",
"1033 1077 OFFCURVE",
"1047 1081 CURVE SMOOTH",
"1702 1287 LINE SMOOTH",
"1711 1290 OFFCURVE",
"1717 1295 OFFCURVE",
"1718 1305 CURVE SMOOTH",
"1736 1450 LINE SMOOTH",
"1738 1463 OFFCURVE",
"1731 1470 OFFCURVE",
"1718 1466 CURVE SMOOTH",
"1033 1236 LINE SMOOTH",
"1023 1233 OFFCURVE",
"1019 1229 OFFCURVE",
"1015 1221 CURVE SMOOTH",
"895 969 LINE SMOOTH",
"891 960 OFFCURVE",
"893 951 OFFCURVE",
"903 946 CURVE SMOOTH",
"1281 742 OFFCURVE",
"1432 450 OFFCURVE",
"1478 293 CURVE SMOOTH",
"1481 283 OFFCURVE",
"1478 277 OFFCURVE",
"1467 273 CURVE SMOOTH",
"1346 223 OFFCURVE",
"1067 150 OFFCURVE",
"750 155 CURVE SMOOTH",
"480 160 OFFCURVE",
"256 235 OFFCURVE",
"279 466 CURVE SMOOTH",
"293 607 LINE SMOOTH",
"294 618 OFFCURVE",
"288 625 OFFCURVE",
"277 626 CURVE SMOOTH",
"214 631 LINE SMOOTH",
"204 632 OFFCURVE",
"195 626 OFFCURVE",
"194 615 CURVE SMOOTH",
"178 466 LINE SMOOTH",
"141 117 OFFCURVE",
"301 -20 OFFCURVE",
"666 -30 CURVE SMOOTH"
);
},
{
closed = 1;
nodes = (
"1569 1576 LINE SMOOTH",
"1578 1579 OFFCURVE",
"1583 1585 OFFCURVE",
"1585 1593 CURVE SMOOTH",
"1605 1670 LINE SMOOTH",
"1608 1683 OFFCURVE",
"1601 1690 OFFCURVE",
"1588 1686 CURVE SMOOTH",
"1156 1547 LINE SMOOTH",
"1147 1544 OFFCURVE",
"1143 1541 OFFCURVE",
"1139 1532 CURVE SMOOTH",
"1102 1448 LINE SMOOTH",
"1096 1434 OFFCURVE",
"1103 1426 OFFCURVE",
"1117 1431 CURVE SMOOTH"
);
}
);
width = 1703;
}
);
unicode = 06AF;
},
{
glyphname = "gaf-ar.fina";
lastChange = "2016-03-02 08:38:51 +0000";
layers = (
{
anchors = (
{
name = bottom;
position = "{785, -202}";
},
{
name = top;
position = "{598, 1218}";
}
);
layerId = "93A312F7-B931-4485-B08E-C367313EB5E7";
name = Regular;
paths = (
{
closed = 1;
nodes = (
"917 -37 OFFCURVE",
"1176 0 OFFCURVE",
"1352 49 CURVE SMOOTH",
"1480 84 OFFCURVE",
"1489 117 OFFCURVE",
"1536 187 CURVE SMOOTH",
"1546 201 OFFCURVE",
"1554 202 OFFCURVE",
"1562 190 CURVE SMOOTH",
"1667 33 OFFCURVE",
"1766 0 OFFCURVE",
"1842 0 CURVE SMOOTH",
"1899 0 LINE",
"1947 60 OFFCURVE",
"1947 119 OFFCURVE",
"1899 179 CURVE",
"1842 179 LINE SMOOTH",
"1713 179 OFFCURVE",
"1655 220 OFFCURVE",
"1592 343 CURVE SMOOTH",
"1463 593 OFFCURVE",
"1374 849 OFFCURVE",
"1042 1057 CURVE SMOOTH",
"1029 1065 OFFCURVE",
"1030 1076 OFFCURVE",
"1044 1080 CURVE SMOOTH",
"1782 1310 LINE SMOOTH",
"1792 1313 OFFCURVE",
"1798 1318 OFFCURVE",
"1799 1328 CURVE SMOOTH",
"1817 1474 LINE SMOOTH",
"1819 1487 OFFCURVE",
"1811 1493 OFFCURVE",
"1799 1489 CURVE SMOOTH",
"1033 1236 LINE SMOOTH",
"1023 1233 OFFCURVE",
"1019 1229 OFFCURVE",
"1015 1221 CURVE SMOOTH",
"895 969 LINE SMOOTH",
"891 960 OFFCURVE",
"894 951 OFFCURVE",
"903 946 CURVE SMOOTH",
"1278 742 OFFCURVE",
"1418 417 OFFCURVE",
"1473 278 CURVE SMOOTH",
"1477 268 OFFCURVE",
"1473 259 OFFCURVE",
"1463 256 CURVE SMOOTH",
"1326 209 OFFCURVE",
"1068 150 OFFCURVE",
"750 155 CURVE SMOOTH",
"480 160 OFFCURVE",
"256 235 OFFCURVE",
"279 466 CURVE SMOOTH",
"293 607 LINE SMOOTH",
"294 618 OFFCURVE",
"288 625 OFFCURVE",
"277 626 CURVE SMOOTH",
"214 631 LINE SMOOTH",
"204 632 OFFCURVE",
"195 626 OFFCURVE",
"194 615 CURVE SMOOTH",
"178 466 LINE SMOOTH",
"141 117 OFFCURVE",
"301 -20 OFFCURVE",
"666 -30 CURVE SMOOTH"
);
},
{
closed = 1;
nodes = (
"1649 1599 LINE SMOOTH",
"1658 1602 OFFCURVE",
"1663 1608 OFFCURVE",
"1665 1616 CURVE SMOOTH",
"1686 1693 LINE SMOOTH",
"1690 1706 OFFCURVE",
"1681 1713 OFFCURVE",
"1669 1709 CURVE SMOOTH",
"1156 1547 LINE SMOOTH",
"1148 1544 OFFCURVE",
"1143 1541 OFFCURVE",
"1139 1532 CURVE SMOOTH",
"1102 1447 LINE SMOOTH",
"1096 1433 OFFCURVE",
"1103 1425 OFFCURVE",
"1117 1430 CURVE SMOOTH"
);
}
);
width = 1879;
}
);
unicode = FB93;
},
{
glyphname = "gaf-ar.medi";
lastChange = "2016-03-02 08:38:56 +0000";
layers = (
{
anchors = (
{
name = bottom;
position = "{389, -171}";
},
{
name = top;
position = "{550, 1679}";
}
);
layerId = "93A312F7-B931-4485-B08E-C367313EB5E7";
name = Regular;
paths = (
{
closed = 1;
nodes = (
"46 0 LINE SMOOTH",
"231 0 OFFCURVE",
"434 36 OFFCURVE",
"573 84 CURVE SMOOTH",
"653 112 OFFCURVE",
"657 118 OFFCURVE",
"707 215 CURVE",
"819 41 OFFCURVE",
"922 0 OFFCURVE",
"1002 0 CURVE SMOOTH",
"1058 0 LINE",
"1106 60 OFFCURVE",
"1106 119 OFFCURVE",
"1058 179 CURVE",
"1002 179 LINE SMOOTH",
"873 179 OFFCURVE",
"814 224 OFFCURVE",
"751 347 CURVE SMOOTH",
"619 604 OFFCURVE",
"529 861 OFFCURVE",
"177 1072 CURVE",
"942 1310 LINE SMOOTH",
"951 1313 OFFCURVE",
"957 1318 OFFCURVE",
"958 1328 CURVE SMOOTH",
"976 1474 LINE SMOOTH",
"978 1487 OFFCURVE",
"971 1493 OFFCURVE",
"958 1489 CURVE SMOOTH",
"192 1236 LINE SMOOTH",
"183 1233 OFFCURVE",
"179 1229 OFFCURVE",
"175 1221 CURVE SMOOTH",
"54 969 LINE SMOOTH",
"50 961 OFFCURVE",
"53 951 OFFCURVE",
"62 946 CURVE SMOOTH",
"452 734 OFFCURVE",
"588 397 OFFCURVE",
"638 267 CURVE",
"491 200 OFFCURVE",
"263 179 OFFCURVE",
"46 179 CURVE SMOOTH",
"-20 179 LINE SMOOTH",
"-138 179 OFFCURVE",
"-138 0 OFFCURVE",
"-20 0 CURVE SMOOTH"
);
},
{
closed = 1;
nodes = (
"808 1599 LINE SMOOTH",
"818 1602 OFFCURVE",
"823 1608 OFFCURVE",
"825 1616 CURVE SMOOTH",
"845 1693 LINE SMOOTH",
"848 1706 OFFCURVE",
"841 1713 OFFCURVE",
"828 1709 CURVE SMOOTH",
"315 1547 LINE SMOOTH",
"307 1544 OFFCURVE",
"302 1541 OFFCURVE",
"298 1532 CURVE SMOOTH",
"261 1447 LINE SMOOTH",
"255 1433 OFFCURVE",
"262 1425 OFFCURVE",
"276 1430 CURVE SMOOTH"
);
}
);
width = 1038;
}
);
unicode = FB95;
},
{
glyphname = "gaf-ar.init";
lastChange = "2016-03-02 08:39:00 +0000";
layers = (
{
anchors = (
{
name = bottom;
position = "{388, -171}";
},
{
name = top;
position = "{425, 1723}";
}
);
layerId = "93A312F7-B931-4485-B08E-C367313EB5E7";
name = Regular;
paths = (
{
closed = 1;
nodes = (
"46 0 LINE SMOOTH",
"248 0 OFFCURVE",
"489 38 OFFCURVE",
"630 129 CURVE SMOOTH",
"637 133 OFFCURVE",
"640 138 OFFCURVE",
"644 146 CURVE SMOOTH",
"680 223 OFFCURVE",
"712 320 OFFCURVE",
"705 377 CURVE SMOOTH",
"666 718 OFFCURVE",
"369 958 OFFCURVE",
"170 1059 CURVE SMOOTH",
"156 1066 OFFCURVE",
"158 1076 OFFCURVE",
"173 1081 CURVE SMOOTH",
"827 1287 LINE SMOOTH",
"836 1290 OFFCURVE",
"842 1295 OFFCURVE",
"843 1305 CURVE SMOOTH",
"861 1450 LINE SMOOTH",
"863 1463 OFFCURVE",
"856 1470 OFFCURVE",
"843 1466 CURVE SMOOTH",
"158 1236 LINE SMOOTH",
"148 1233 OFFCURVE",
"144 1229 OFFCURVE",
"140 1221 CURVE SMOOTH",
"21 971 LINE SMOOTH",
"16 961 OFFCURVE",
"20 953 OFFCURVE",
"29 948 CURVE SMOOTH",
"407 743 OFFCURVE",
"573 453 OFFCURVE",
"619 298 CURVE SMOOTH",
"622 288 OFFCURVE",
"619 281 OFFCURVE",
"610 276 CURVE SMOOTH",
"438 191 OFFCURVE",
"247 179 OFFCURVE",
"46 179 CURVE SMOOTH",
"-20 179 LINE SMOOTH",
"-138 179 OFFCURVE",
"-138 0 OFFCURVE",
"-20 0 CURVE SMOOTH"
);
},
{
closed = 1;
nodes = (
"693 1576 LINE SMOOTH",
"703 1579 OFFCURVE",
"707 1585 OFFCURVE",
"710 1593 CURVE SMOOTH",
"730 1670 LINE SMOOTH",
"733 1683 OFFCURVE",
"726 1690 OFFCURVE",
"713 1686 CURVE SMOOTH",
"281 1547 LINE SMOOTH",
"271 1544 OFFCURVE",
"267 1541 OFFCURVE",
"263 1532 CURVE SMOOTH",
"227 1448 LINE SMOOTH",
"221 1434 OFFCURVE",
"228 1427 OFFCURVE",
"241 1431 CURVE SMOOTH"
);
}
);
width = 892;
}
);
unicode = FB94;
},
{
glyphname = "lam-ar";
lastChange = "2016-02-16 20:14:54 +0000";
layers = (
{
anchors = (
{
name = bottom;
position = "{703, -697}";
},
{
name = top;
position = "{651, 577}";
}
);
layerId = "93A312F7-B931-4485-B08E-C367313EB5E7";
name = Regular;
paths = (
{
closed = 1;
nodes = (
"839 -524 OFFCURVE",
"1297 -432 OFFCURVE",
"1304 -151 CURVE",
"1264 1541 LINE SMOOTH",
"1264 1556 OFFCURVE",
"1253 1559 OFFCURVE",
"1242 1550 CURVE SMOOTH",
"1102 1444 LINE SMOOTH",
"1095 1439 OFFCURVE",
"1093 1432 OFFCURVE",
"1093 1423 CURVE SMOOTH",
"1179 -218 LINE",
"1179 -218 OFFCURVE",
"905 -330 OFFCURVE",
"604 -330 CURVE SMOOTH",
"397 -330 OFFCURVE",
"240 -218 OFFCURVE",
"308 29 CURVE",
"378 332 LINE SMOOTH",
"381 343 OFFCURVE",
"375 351 OFFCURVE",
"365 353 CURVE SMOOTH",
"294 369 LINE SMOOTH",
"284 371 OFFCURVE",
"277 368 OFFCURVE",
"274 357 CURVE SMOOTH",
"200 47 LINE",
"128 -213 OFFCURVE",
"179 -524 OFFCURVE",
"564 -524 CURVE SMOOTH"
);
}
);
width = 1442;
}
);
unicode = 0644;
},
{
glyphname = "lam-ar.fina";
lastChange = "2016-02-16 22:21:07 +0000";
layers = (
{
anchors = (
{
name = bottom;
position = "{703, -697}";
},
{
name = top;
position = "{688, 616}";
}
);
layerId = "93A312F7-B931-4485-B08E-C367313EB5E7";
name = Regular;
paths = (
{
closed = 1;
nodes = (
"839 -524 OFFCURVE",
"1297 -432 OFFCURVE",
"1304 -151 CURVE",
"1301 46 LINE SMOOTH",
"1301 60 OFFCURVE",
"1309 64 OFFCURVE",
"1321 56 CURVE SMOOTH",
"1367 25 OFFCURVE",
"1431 0 OFFCURVE",
"1540 0 CURVE SMOOTH",
"1606 0 LINE",
"1654 60 OFFCURVE",
"1654 119 OFFCURVE",
"1606 179 CURVE",
"1540 179 LINE SMOOTH",
"1486 179 OFFCURVE",
"1380 200 OFFCURVE",
"1309 222 CURVE SMOOTH",
"1300 225 OFFCURVE",
"1295 232 OFFCURVE",
"1295 241 CURVE SMOOTH",
"1264 1541 LINE SMOOTH",
"1264 1555 OFFCURVE",
"1253 1559 OFFCURVE",
"1242 1550 CURVE SMOOTH",
"1102 1444 LINE SMOOTH",
"1095 1439 OFFCURVE",
"1093 1432 OFFCURVE",
"1093 1423 CURVE SMOOTH",
"1178 -204 LINE SMOOTH",
"1178 -213 OFFCURVE",
"1174 -221 OFFCURVE",
"1165 -224 CURVE SMOOTH",
"1105 -246 OFFCURVE",
"865 -330 OFFCURVE",
"604 -330 CURVE SMOOTH",
"397 -330 OFFCURVE",
"240 -218 OFFCURVE",
"308 29 CURVE",
"378 332 LINE SMOOTH",
"381 343 OFFCURVE",
"375 351 OFFCURVE",
"365 353 CURVE SMOOTH",
"294 369 LINE SMOOTH",
"284 371 OFFCURVE",
"277 368 OFFCURVE",
"274 357 CURVE SMOOTH",
"200 47 LINE",
"128 -213 OFFCURVE",
"179 -524 OFFCURVE",
"564 -524 CURVE SMOOTH"
);
}
);
width = 1586;
}
);
unicode = FEDE;
},
{
glyphname = "lam-ar.medi";
lastChange = "2016-02-16 22:21:15 +0000";
layers = (
{
anchors = (
{
name = bottom;
position = "{337, -171}";
},
{
name = top;
position = "{311, 1722}";
}
);
layerId = "93A312F7-B931-4485-B08E-C367313EB5E7";
name = Regular;
paths = (
{
closed = 1;
nodes = (
"46 0 LINE SMOOTH",
"144 0 OFFCURVE",
"277 40 OFFCURVE",
"355 107 CURVE SMOOTH",
"363 114 OFFCURVE",
"371 114 OFFCURVE",
"378 107 CURVE SMOOTH",
"430 61 OFFCURVE",
"497 0 OFFCURVE",
"656 0 CURVE SMOOTH",
"722 0 LINE",
"770 60 OFFCURVE",
"770 119 OFFCURVE",
"722 179 CURVE",
"656 179 LINE SMOOTH",
"601 179 OFFCURVE",
"496 201 OFFCURVE",
"424 223 CURVE SMOOTH",
"415 226 OFFCURVE",
"411 233 OFFCURVE",
"411 243 CURVE SMOOTH",
"391 1528 LINE SMOOTH",
"391 1543 OFFCURVE",
"382 1547 OFFCURVE",
"370 1539 CURVE SMOOTH",
"240 1447 LINE SMOOTH",
"233 1442 OFFCURVE",
"230 1435 OFFCURVE",
"230 1425 CURVE SMOOTH",
"286 239 LINE SMOOTH",
"286 230 OFFCURVE",
"283 223 OFFCURVE",
"274 220 CURVE SMOOTH",
"215 200 OFFCURVE",
"131 179 OFFCURVE",
"46 179 CURVE SMOOTH",
"-20 179 LINE SMOOTH",
"-138 179 OFFCURVE",
"-138 0 OFFCURVE",
"-20 0 CURVE SMOOTH"
);
}
);
width = 702;
}
);
unicode = FEE0;
},
{
glyphname = "lam-ar.init";
lastChange = "2016-02-16 20:19:30 +0000";
layers = (
{
anchors = (
{
name = bottom;
position = "{148, -173}";
},
{
name = top;
position = "{241, 1727}";
}
);
layerId = "93A312F7-B931-4485-B08E-C367313EB5E7";
name = Regular;
paths = (
{
closed = 1;
nodes = (
"46 0 LINE SMOOTH",
"311 0 OFFCURVE",
"420 100 OFFCURVE",
"401 373 CURVE SMOOTH",
"323 1529 LINE SMOOTH",
"322 1543 OFFCURVE",
"314 1548 OFFCURVE",
"302 1540 CURVE SMOOTH",
"171 1447 LINE SMOOTH",
"164 1442 OFFCURVE",
"160 1435 OFFCURVE",
"161 1425 CURVE SMOOTH",
"298 240 LINE SMOOTH",
"299 230 OFFCURVE",
"296 223 OFFCURVE",
"285 220 CURVE SMOOTH",
"222 200 OFFCURVE",
"109 179 OFFCURVE",
"46 179 CURVE SMOOTH",
"-20 179 LINE SMOOTH",
"-138 179 OFFCURVE",
"-138 0 OFFCURVE",
"-20 0 CURVE SMOOTH"
);
}
);
width = 542;
}
);
unicode = FEDF;
},
{
glyphname = "meem-ar";
lastChange = "2016-03-07 08:27:17 +0000";
layers = (
{
anchors = (
{
name = bottom;
position = "{298, -957}";
},
{
name = top;
position = "{638, 1056}";
}
);
layerId = "93A312F7-B931-4485-B08E-C367313EB5E7";
name = Regular;
paths = (
{
closed = 1;
nodes = (
"356 -619 LINE SMOOTH",
"366 -615 OFFCURVE",
"368 -608 OFFCURVE",
"367 -598 CURVE SMOOTH",
"285 35 LINE SMOOTH",
"282 55 OFFCURVE",
"291 69 OFFCURVE",
"311 76 CURVE SMOOTH",
"523 148 OFFCURVE",
"802 159 OFFCURVE",
"1034 138 CURVE SMOOTH",
"1055 136 OFFCURVE",
"1067 147 OFFCURVE",
"1072 168 CURVE SMOOTH",
"1109 335 LINE SMOOTH",
"1112 350 OFFCURVE",
"1113 361 OFFCURVE",
"1113 376 CURVE SMOOTH",
"1112 424 OFFCURVE",
"1097 477 OFFCURVE",
"1071 528 CURVE SMOOTH",
"980 710 OFFCURVE",
"766 882 OFFCURVE",
"636 882 CURVE SMOOTH",
"406 882 OFFCURVE",
"340 631 OFFCURVE",
"339 454 CURVE SMOOTH",
"338 250 LINE",
"243 198 OFFCURVE",
"162 94 OFFCURVE",
"175 -137 CURVE SMOOTH",
"205 -660 LINE SMOOTH",
"206 -673 OFFCURVE",
"214 -678 OFFCURVE",
"226 -673 CURVE SMOOTH"
);
},
{
closed = 1;
nodes = (
"489 294 OFFCURVE",
"474 301 OFFCURVE",
"468 323 CURVE SMOOTH",
"436 434 LINE SMOOTH",
"431 451 OFFCURVE",
"432 462 OFFCURVE",
"437 478 CURVE SMOOTH",
"467 568 OFFCURVE",
"519 685 OFFCURVE",
"615 685 CURVE SMOOTH",
"757 685 OFFCURVE",
"920 513 OFFCURVE",
"1014 316 CURVE",
"837 330 OFFCURVE",
"668 328 OFFCURVE",
"509 298 CURVE SMOOTH"
);
}
);
width = 1251;
}
);
unicode = 0645;
},
{
glyphname = "meem-ar.fina";
lastChange = "2016-03-07 08:27:32 +0000";
layers = (
{
anchors = (
{
name = bottom;
position = "{337, -956}";
},
{
name = top;
position = "{883, 837}";
}
);
layerId = "93A312F7-B931-4485-B08E-C367313EB5E7";
name = Regular;
paths = (
{
closed = 1;
nodes = (
"378 -629 LINE SMOOTH",
"387 -625 OFFCURVE",
"392 -618 OFFCURVE",
"391 -608 CURVE SMOOTH",
"290 244 LINE SMOOTH",
"289 253 OFFCURVE",
"295 259 OFFCURVE",
"302 265 CURVE SMOOTH",
"353 308 OFFCURVE",
"409 340 OFFCURVE",
"463 359 CURVE SMOOTH",
"484 366 OFFCURVE",
"496 354 OFFCURVE",
"496 339 CURVE SMOOTH",
"496 110 OFFCURVE",
"564 -125 OFFCURVE",
"753 -212 CURVE SMOOTH",
"867 -263 OFFCURVE",
"910 -235 OFFCURVE",
"991 -112 CURVE SMOOTH",
"1128 95 LINE SMOOTH",
"1135 106 OFFCURVE",
"1143 106 OFFCURVE",
"1152 98 CURVE SMOOTH",
"1228 30 OFFCURVE",
"1323 0 OFFCURVE",
"1458 0 CURVE SMOOTH",
"1478 0 LINE",
"1526 60 OFFCURVE",
"1526 119 OFFCURVE",
"1478 179 CURVE",
"1412 179 LINE SMOOTH",
"1181 179 OFFCURVE",
"1067 429 OFFCURVE",
"972 620 CURVE SMOOTH",
"954 657 OFFCURVE",
"925 669 OFFCURVE",
"883 662 CURVE SMOOTH",
"314 564 OFFCURVE",
"153 358 OFFCURVE",
"174 86 CURVE SMOOTH",
"233 -670 LINE SMOOTH",
"234 -684 OFFCURVE",
"241 -689 OFFCURVE",
"254 -683 CURVE SMOOTH"
);
},
{
closed = 1;
nodes = (
"770 -56 OFFCURVE",
"596 106 OFFCURVE",
"596 371 CURVE SMOOTH",
"596 392 OFFCURVE",
"604 401 OFFCURVE",
"613 405 CURVE SMOOTH",
"692 437 OFFCURVE",
"776 461 OFFCURVE",
"868 474 CURVE SMOOTH",
"877 475 OFFCURVE",
"885 471 OFFCURVE",
"890 462 CURVE SMOOTH",
"938 369 OFFCURVE",
"990 281 OFFCURVE",
"1042 220 CURVE SMOOTH",
"1048 213 OFFCURVE",
"1051 205 OFFCURVE",
"1047 197 CURVE SMOOTH",
"917 -56 LINE SMOOTH",
"911 -68 OFFCURVE",
"906 -70 OFFCURVE",
"896 -69 CURVE SMOOTH"
);
}
);
width = 1458;
}
);
unicode = FEE2;
},
{
glyphname = "meem-ar.medi";
lastChange = "2016-03-07 07:45:57 +0000";
layers = (
{
anchors = (
{
name = bottom;
position = "{662, -200}";
},
{
name = top;
position = "{742, 999}";
}
);
layerId = "93A312F7-B931-4485-B08E-C367313EB5E7";
name = Regular;
paths = (
{
closed = 1;
nodes = (
"923 -27 OFFCURVE",
"976 26 OFFCURVE",
"1028 129 CURVE",
"1091 37 OFFCURVE",
"1195 0 OFFCURVE",
"1274 0 CURVE SMOOTH",
"1340 0 LINE",
"1388 60 OFFCURVE",
"1388 119 OFFCURVE",
"1340 179 CURVE",
"1320 179 LINE SMOOTH",
"1121 179 OFFCURVE",
"1053 284 OFFCURVE",
"1013 374 CURVE SMOOTH",
"861 719 LINE SMOOTH",
"839 770 OFFCURVE",
"782 865 OFFCURVE",
"695 845 CURVE SMOOTH",
"478 795 OFFCURVE",
"287 494 OFFCURVE",
"248 229 CURVE SMOOTH",
"247 220 OFFCURVE",
"241 215 OFFCURVE",
"232 212 CURVE SMOOTH",
"181 195 OFFCURVE",
"101 179 OFFCURVE",
"0 179 CURVE SMOOTH",
"-20 179 LINE SMOOTH",
"-138 179 OFFCURVE",
"-138 0 OFFCURVE",
"-20 0 CURVE SMOOTH",
"0 0 LINE SMOOTH",
"132 0 OFFCURVE",
"212 22 OFFCURVE",
"290 99 CURVE SMOOTH",
"296 105 OFFCURVE",
"304 107 OFFCURVE",
"313 105 CURVE SMOOTH",
"744 12 LINE SMOOTH"
);
},
{
closed = 1;
nodes = (
"371 285 LINE SMOOTH",
"361 288 OFFCURVE",
"356 294 OFFCURVE",
"359 306 CURVE SMOOTH",
"413 494 OFFCURVE",
"564 613 OFFCURVE",
"679 657 CURVE SMOOTH",
"697 664 OFFCURVE",
"703 646 OFFCURVE",
"705 642 CURVE SMOOTH",
"922 169 LINE SMOOTH",
"928 156 OFFCURVE",
"921 148 OFFCURVE",
"907 151 CURVE SMOOTH"
);
}
);
width = 1320;
}
);
unicode = FEE4;
},
{
glyphname = "meem-ar.init";
lastChange = "2016-03-07 07:45:04 +0000";
layers = (
{
anchors = (
{
name = bottom;
position = "{619, -230}";
},
{
name = top;
position = "{751, 1011}";
}
);
layerId = "93A312F7-B931-4485-B08E-C367313EB5E7";
name = Regular;
paths = (
{
closed = 1;
nodes = (
"46 0 LINE SMOOTH",
"141 0 OFFCURVE",
"236 72 OFFCURVE",
"351 216 CURVE",
"419 147 OFFCURVE",
"426 130 OFFCURVE",
"742 32 CURVE SMOOTH",
"858 -4 OFFCURVE",
"931 -25 OFFCURVE",
"1022 68 CURVE SMOOTH",
"1075 122 OFFCURVE",
"1104 200 OFFCURVE",
"1083 311 CURVE SMOOTH",
"1033 574 OFFCURVE",
"933 838 OFFCURVE",
"751 838 CURVE SMOOTH",
"516 838 OFFCURVE",
"407 546 OFFCURVE",
"277 351 CURVE SMOOTH",
"184 213 OFFCURVE",
"131 179 OFFCURVE",
"0 179 CURVE SMOOTH",
"-20 179 LINE SMOOTH",
"-138 179 OFFCURVE",
"-138 0 OFFCURVE",
"-20 0 CURVE SMOOTH"
);
},
{
closed = 1;
nodes = (
"429 329 LINE SMOOTH",
"419 333 OFFCURVE",
"414 340 OFFCURVE",
"420 351 CURVE SMOOTH",
"469 442 OFFCURVE",
"562 638 OFFCURVE",
"703 638 CURVE SMOOTH",
"836 638 OFFCURVE",
"898 387 OFFCURVE",
"944 184 CURVE SMOOTH",
"947 170 OFFCURVE",
"932 149 OFFCURVE",
"915 155 CURVE SMOOTH"
);
}
);
width = 1265;
}
);
unicode = FEE3;
},
{
glyphname = "noonghunna-ar";
lastChange = "2016-03-07 08:00:27 +0000";
layers = (
{
anchors = (
{
name = bottom;
position = "{734, -704}";
},
{
name = top;
position = "{707, 422}";
}
);
layerId = "93A312F7-B931-4485-B08E-C367313EB5E7";
name = Regular;
paths = (
{
closed = 1;
nodes = (
"818 -531 OFFCURVE",
"1196 -427 OFFCURVE",
"1316 -271 CURVE SMOOTH",
"1370 -201 OFFCURVE",
"1366 -125 OFFCURVE",
"1349 6 CURVE SMOOTH",
"1278 569 LINE SMOOTH",
"1276 588 OFFCURVE",
"1259 593 OFFCURVE",
"1245 583 CURVE SMOOTH",
"1134 501 LINE SMOOTH",
"1130 498 OFFCURVE",
"1128 492 OFFCURVE",
"1129 486 CURVE SMOOTH",
"1236 -177 LINE SMOOTH",
"1237 -184 OFFCURVE",
"1232 -190 OFFCURVE",
"1226 -194 CURVE SMOOTH",
"1167 -233 OFFCURVE",
"929 -330 OFFCURVE",
"619 -330 CURVE SMOOTH",
"393 -330 OFFCURVE",
"249 -215 OFFCURVE",
"305 61 CURVE SMOOTH",
"339 228 LINE SMOOTH",
"341 239 OFFCURVE",
"334 246 OFFCURVE",
"323 248 CURVE SMOOTH",
"250 259 LINE SMOOTH",
"240 261 OFFCURVE",
"232 255 OFFCURVE",
"230 245 CURVE SMOOTH",
"189 38 LINE SMOOTH",
"131 -254 OFFCURVE",
"223 -531 OFFCURVE",
"591 -531 CURVE SMOOTH"
);
}
);
width = 1497;
}
);
unicode = 06BA;
},
{
glyphname = "noonghunna-ar.fina";
lastChange = "2016-03-07 08:00:47 +0000";
layers = (
{
anchors = (
{
name = bottom;
position = "{736, -704}";
},
{
name = top;
position = "{709, 422}";
}
);
layerId = "93A312F7-B931-4485-B08E-C367313EB5E7";
name = Regular;
paths = (
{
closed = 1;
nodes = (
"820 -531 OFFCURVE",
"1199 -427 OFFCURVE",
"1318 -271 CURVE SMOOTH",
"1367 -208 OFFCURVE",
"1368 -170 OFFCURVE",
"1346 62 CURVE",
"1397 22 OFFCURVE",
"1451 0 OFFCURVE",
"1620 0 CURVE SMOOTH",
"1686 0 LINE",
"1734 60 OFFCURVE",
"1734 119 OFFCURVE",
"1686 179 CURVE",
"1620 179 LINE SMOOTH",
"1397 179 OFFCURVE",
"1333 198 OFFCURVE",
"1306 365 CURVE",
"1295 490 LINE SMOOTH",
"1293 508 OFFCURVE",
"1276 514 OFFCURVE",
"1262 504 CURVE SMOOTH",
"1152 422 LINE SMOOTH",
"1148 419 OFFCURVE",
"1145 413 OFFCURVE",
"1146 407 CURVE SMOOTH",
"1238 -177 LINE SMOOTH",
"1239 -184 OFFCURVE",
"1236 -191 OFFCURVE",
"1229 -194 CURVE SMOOTH",
"1146 -233 OFFCURVE",
"931 -330 OFFCURVE",
"621 -330 CURVE SMOOTH",
"384 -330 OFFCURVE",
"249 -215 OFFCURVE",
"307 61 CURVE SMOOTH",
"342 228 LINE SMOOTH",
"344 239 OFFCURVE",
"336 246 OFFCURVE",
"325 248 CURVE SMOOTH",
"252 259 LINE SMOOTH",
"243 260 OFFCURVE",
"234 255 OFFCURVE",
"232 245 CURVE SMOOTH",
"191 38 LINE SMOOTH",
"133 -254 OFFCURVE",
"202 -531 OFFCURVE",
"593 -531 CURVE SMOOTH"
);
}
);
width = 1666;
}
);
unicode = FB9F;
},
{
glyphname = "heh-ar";
lastChange = "2016-03-02 08:57:16 +0000";
layers = (
{
anchors = (
{
name = bottom;
position = "{443, -278}";
},
{
name = top;
position = "{419, 976}";
}
);
layerId = "93A312F7-B931-4485-B08E-C367313EB5E7";
name = Regular;
paths = (
{
closed = 1;
nodes = (
"668 -122 OFFCURVE",
"856 82 OFFCURVE",
"897 318 CURVE SMOOTH",
"928 494 OFFCURVE",
"658 682 OFFCURVE",
"438 818 CURVE SMOOTH",
"423 827 OFFCURVE",
"408 823 OFFCURVE",
"399 809 CURVE SMOOTH",
"276 595 OFFCURVE",
"179 419 OFFCURVE",
"172 220 CURVE SMOOTH",
"165 22 OFFCURVE",
"269 -122 OFFCURVE",
"446 -122 CURVE SMOOTH"
);
},
{
closed = 1;
nodes = (
"362 59 OFFCURVE",
"275 144 OFFCURVE",
"271 277 CURVE SMOOTH",
"269 373 OFFCURVE",
"312 472 OFFCURVE",
"384 597 CURVE SMOOTH",
"393 613 OFFCURVE",
"407 615 OFFCURVE",
"423 606 CURVE SMOOTH",
"587 520 OFFCURVE",
"688 433 OFFCURVE",
"789 336 CURVE SMOOTH",
"800 325 OFFCURVE",
"800 312 OFFCURVE",
"795 299 CURVE SMOOTH",
"736 144 OFFCURVE",
"607 54 OFFCURVE",
"466 57 CURVE SMOOTH"
);
}
);
width = 1037;
}
);
unicode = 0647;
},
{
glyphname = "heh-ar.fina";
lastChange = "2016-02-16 22:22:44 +0000";
layers = (
{
anchors = (
{
name = bottom;
position = "{505, -164}";
},
{
name = top;
position = "{696, 1271}";
}
);
layerId = "93A312F7-B931-4485-B08E-C367313EB5E7";
name = Regular;
paths = (
{
closed = 1;
nodes = (
"1150 0 LINE",
"1198 60 OFFCURVE",
"1198 119 OFFCURVE",
"1150 179 CURVE",
"1084 179 LINE SMOOTH",
"928 179 OFFCURVE",
"847 240 OFFCURVE",
"831 414 CURVE SMOOTH",
"770 1091 LINE SMOOTH",
"769 1104 OFFCURVE",
"760 1109 OFFCURVE",
"749 1102 CURVE SMOOTH",
"627 1022 LINE SMOOTH",
"620 1017 OFFCURVE",
"616 1011 OFFCURVE",
"618 1000 CURVE SMOOTH",
"650 802 LINE SMOOTH",
"652 792 OFFCURVE",
"647 784 OFFCURVE",
"638 780 CURVE SMOOTH",
"411 666 OFFCURVE",
"193 494 OFFCURVE",
"173 212 CURVE SMOOTH",
"172 204 OFFCURVE",
"174 184 OFFCURVE",
"176 176 CURVE SMOOTH",
"199 75 OFFCURVE",
"389 49 OFFCURVE",
"552 54 CURVE SMOOTH",
"705 59 OFFCURVE",
"735 123 OFFCURVE",
"754 198 CURVE",
"810 57 OFFCURVE",
"910 0 OFFCURVE",
"1084 0 CURVE SMOOTH"
);
},
{
closed = 1;
nodes = (
"574 210 OFFCURVE",
"358 235 OFFCURVE",
"263 297 CURVE SMOOTH",
"258 300 OFFCURVE",
"256 307 OFFCURVE",
"261 317 CURVE SMOOTH",
"315 429 OFFCURVE",
"466 553 OFFCURVE",
"657 638 CURVE SMOOTH",
"668 643 OFFCURVE",
"675 638 OFFCURVE",
"677 627 CURVE SMOOTH",
"730 263 LINE SMOOTH",
"732 252 OFFCURVE",
"727 247 OFFCURVE",
"716 244 CURVE SMOOTH"
);
}
);
width = 1130;
}
);
unicode = FEEA;
},
{
glyphname = "heh-ar.medi";
lastChange = "2016-03-02 08:56:46 +0000";
layers = (
{
anchors = (
{
name = bottom;
position = "{576, -718}";
},
{
name = top;
position = "{635, 1195}";
}
);
layerId = "93A312F7-B931-4485-B08E-C367313EB5E7";
name = Regular;
paths = (
{
closed = 1;
nodes = (
"804 -562 OFFCURVE",
"819 -556 OFFCURVE",
"822 -546 CURVE SMOOTH",
"901 -246 OFFCURVE",
"802 -86 OFFCURVE",
"719 -8 CURVE SMOOTH",
"714 -4 OFFCURVE",
"726 0 OFFCURVE",
"741 0 CURVE SMOOTH",
"977 0 LINE",
"1025 60 OFFCURVE",
"1025 119 OFFCURVE",
"977 179 CURVE",
"911 179 LINE SMOOTH",
"802 179 OFFCURVE",
"735 169 OFFCURVE",
"618 158 CURVE SMOOTH",
"603 157 OFFCURVE",
"599 162 OFFCURVE",
"611 173 CURVE SMOOTH",
"834 375 OFFCURVE",
"799 428 OFFCURVE",
"781 895 CURVE SMOOTH",
"781 906 OFFCURVE",
"776 912 OFFCURVE",
"768 916 CURVE SMOOTH",
"644 986 LINE SMOOTH",
"636 991 OFFCURVE",
"628 991 OFFCURVE",
"620 984 CURVE SMOOTH",
"381 784 OFFCURVE",
"237 521 OFFCURVE",
"161 194 CURVE SMOOTH",
"159 184 OFFCURVE",
"153 179 OFFCURVE",
"143 179 CURVE SMOOTH",
"-20 179 LINE SMOOTH",
"-138 179 OFFCURVE",
"-138 0 OFFCURVE",
"-20 0 CURVE SMOOTH",
"137 0 LINE SMOOTH",
"147 0 OFFCURVE",
"154 -7 OFFCURVE",
"155 -18 CURVE SMOOTH",
"192 -365 OFFCURVE",
"450 -572 OFFCURVE",
"793 -562 CURVE SMOOTH"
);
},
{
closed = 1;
nodes = (
"515 -388 OFFCURVE",
"320 -197 OFFCURVE",
"307 -2 CURVE SMOOTH",
"306 9 OFFCURVE",
"313 15 OFFCURVE",
"324 15 CURVE SMOOTH",
"552 8 OFFCURVE",
"716 -163 OFFCURVE",
"766 -362 CURVE SMOOTH",
"769 -374 OFFCURVE",
"764 -382 OFFCURVE",
"751 -382 CURVE SMOOTH"
);
},
{
closed = 1;
nodes = (
"307 174 OFFCURVE",
"297 177 OFFCURVE",
"299 191 CURVE SMOOTH",
"334 415 OFFCURVE",
"458 623 OFFCURVE",
"610 760 CURVE SMOOTH",
"619 768 OFFCURVE",
"626 762 OFFCURVE",
"627 747 CURVE SMOOTH",
"650 323 OFFCURVE",
"650 339 OFFCURVE",
"626 322 CURVE SMOOTH",
"526 250 OFFCURVE",
"424 206 OFFCURVE",
"319 177 CURVE SMOOTH"
);
}
);
width = 957;
}
);
unicode = FEEC;
},
{
glyphname = "heh-ar.init";
lastChange = "2016-02-16 21:46:29 +0000";
layers = (
{
anchors = (
{
name = bottom;
position = "{651, -97}";
},
{
name = top;
position = "{711, 1264}";
}
);
layerId = "93A312F7-B931-4485-B08E-C367313EB5E7";
name = Regular;
paths = (
{
closed = 1;
nodes = (
"46 0 LINE SMOOTH",
"224 0 OFFCURVE",
"490 79 OFFCURVE",
"615 168 CURVE SMOOTH",
"623 173 OFFCURVE",
"630 175 OFFCURVE",
"638 173 CURVE SMOOTH",
"1219 35 LINE SMOOTH",
"1229 33 OFFCURVE",
"1237 36 OFFCURVE",
"1241 46 CURVE SMOOTH",
"1401 473 OFFCURVE",
"1293 711 OFFCURVE",
"744 1090 CURVE SMOOTH",
"735 1096 OFFCURVE",
"725 1095 OFFCURVE",
"720 1086 CURVE SMOOTH",
"660 982 LINE SMOOTH",
"656 975 OFFCURVE",
"651 970 OFFCURVE",
"643 967 CURVE SMOOTH",
"460 896 OFFCURVE",
"271 611 OFFCURVE",
"269 413 CURVE SMOOTH",
"268 337 OFFCURVE",
"286 283 OFFCURVE",
"331 231 CURVE SMOOTH",
"340 221 OFFCURVE",
"338 211 OFFCURVE",
"325 208 CURVE SMOOTH",
"274 195 OFFCURVE",
"209 179 OFFCURVE",
"46 179 CURVE SMOOTH",
"-20 179 LINE SMOOTH",
"-138 179 OFFCURVE",
"-138 0 OFFCURVE",
"-20 0 CURVE SMOOTH"
);
},
{
closed = 1;
nodes = (
"369 357 OFFCURVE",
"327 499 OFFCURVE",
"420 660 CURVE SMOOTH",
"529 851 OFFCURVE",
"735 828 OFFCURVE",
"812 697 CURVE SMOOTH",
"817 689 OFFCURVE",
"815 682 OFFCURVE",
"811 674 CURVE SMOOTH",
"634 331 LINE SMOOTH",
"630 323 OFFCURVE",
"622 320 OFFCURVE",
"612 321 CURVE SMOOTH"
);
},
{
closed = 1;
nodes = (
"800 325 LINE SMOOTH",
"790 328 OFFCURVE",
"785 336 OFFCURVE",
"789 347 CURVE SMOOTH",
"915 718 LINE SMOOTH",
"919 730 OFFCURVE",
"928 730 OFFCURVE",
"938 723 CURVE SMOOTH",
"1103 607 OFFCURVE",
"1222 408 OFFCURVE",
"1204 228 CURVE SMOOTH",
"1203 216 OFFCURVE",
"1194 211 OFFCURVE",
"1183 214 CURVE SMOOTH"
);
}
);
width = 1447;
}
);
unicode = FEEB;
},
{
glyphname = "hehgoal-ar.fina";
lastChange = "2016-02-16 22:23:07 +0000";
layers = (
{
anchors = (
{
name = bottom;
position = "{608, -177}";
},
{
name = top;
position = "{662, 582}";
}
);
layerId = "93A312F7-B931-4485-B08E-C367313EB5E7";
name = Regular;
paths = (
{
closed = 1;
nodes = (
"227 -92 OFFCURVE",
"236 -91 OFFCURVE",
"244 -82 CURVE SMOOTH",
"530 236 OFFCURVE",
"580 255 OFFCURVE",
"598 255 CURVE SMOOTH",
"685 255 OFFCURVE",
"900 0 OFFCURVE",
"1137 0 CURVE SMOOTH",
"1259 0 LINE",
"1307 60 OFFCURVE",
"1307 119 OFFCURVE",
"1259 179 CURVE",
"1193 179 LINE SMOOTH",
"1070 179 OFFCURVE",
"980 230 OFFCURVE",
"899 283 CURVE SMOOTH",
"808 343 OFFCURVE",
"728 407 OFFCURVE",
"662 409 CURVE SMOOTH",
"560 413 OFFCURVE",
"440 279 OFFCURVE",
"178 -28 CURVE SMOOTH",
"171 -37 OFFCURVE",
"170 -45 OFFCURVE",
"179 -53 CURVE SMOOTH",
"218 -85 LINE SMOOTH"
);
}
);
width = 1239;
}
);
unicode = FBA7;
},
{
glyphname = "hehgoal-ar.medi";
lastChange = "2016-02-16 22:23:58 +0000";
layers = (
{
anchors = (
{
name = bottom;
position = "{690, -839}";
},
{
name = top;
position = "{621, 747}";
}
);
layerId = "93A312F7-B931-4485-B08E-C367313EB5E7";
name = Regular;
paths = (
{
closed = 1;
nodes = (
"880 -469 LINE SMOOTH",
"885 -462 OFFCURVE",
"886 -454 OFFCURVE",
"883 -446 CURVE SMOOTH",
"750 -101 LINE SMOOTH",
"746 -91 OFFCURVE",
"750 -84 OFFCURVE",
"760 -79 CURVE SMOOTH",
"879 -26 OFFCURVE",
"1002 0 OFFCURVE",
"1242 0 CURVE SMOOTH",
"1262 0 LINE",
"1310 60 OFFCURVE",
"1310 119 OFFCURVE",
"1262 179 CURVE",
"1242 179 LINE SMOOTH",
"798 178 OFFCURVE",
"592 46 OFFCURVE",
"691 -348 CURVE",
"605 -133 OFFCURVE",
"550 -3 OFFCURVE",
"555 243 CURVE",
"576 544 LINE SMOOTH",
"577 557 OFFCURVE",
"569 562 OFFCURVE",
"558 561 CURVE SMOOTH",
"492 553 LINE SMOOTH",
"482 552 OFFCURVE",
"476 546 OFFCURVE",
"475 536 CURVE SMOOTH",
"454 354 LINE SMOOTH",
"433 175 OFFCURVE",
"182 179 OFFCURVE",
"51 179 CURVE SMOOTH",
"-20 179 LINE SMOOTH",
"-138 179 OFFCURVE",
"-138 0 OFFCURVE",
"-20 0 CURVE SMOOTH",
"44 0 LINE SMOOTH",
"168 0 OFFCURVE",
"324 13 OFFCURVE",
"440 117 CURVE",
"407 -227 OFFCURVE",
"623 -522 OFFCURVE",
"710 -658 CURVE SMOOTH",
"717 -669 OFFCURVE",
"726 -670 OFFCURVE",
"734 -659 CURVE SMOOTH"
);
}
);
width = 1242;
}
);
unicode = FBA9;
},
{
glyphname = "hehDoachashmee-ar";
lastChange = "2016-02-16 22:26:45 +0000";
layers = (
{
anchors = (
{
name = bottom;
position = "{689, -141}";
},
{
name = top;
position = "{721, 1495}";
}
);
layerId = "93A312F7-B931-4485-B08E-C367313EB5E7";
name = Regular;
paths = (
{
closed = 1;
nodes = (
"334 3 OFFCURVE",
"385 36 OFFCURVE",
"466 154 CURVE SMOOTH",
"584 325 LINE SMOOTH",
"590 334 OFFCURVE",
"597 336 OFFCURVE",
"606 335 CURVE SMOOTH",
"1157 247 LINE SMOOTH",
"1166 246 OFFCURVE",
"1174 250 OFFCURVE",
"1178 259 CURVE SMOOTH",
"1336 607 OFFCURVE",
"1247 833 OFFCURVE",
"689 1319 CURVE SMOOTH",
"679 1327 OFFCURVE",
"671 1328 OFFCURVE",
"665 1316 CURVE SMOOTH",
"583 1160 LINE SMOOTH",
"579 1152 OFFCURVE",
"574 1148 OFFCURVE",
"566 1145 CURVE SMOOTH",
"384 1072 OFFCURVE",
"194 808 OFFCURVE",
"184 605 CURVE SMOOTH",
"178 490 OFFCURVE",
"237 382 OFFCURVE",
"392 332 CURVE SMOOTH",
"405 328 OFFCURVE",
"409 319 OFFCURVE",
"400 309 CURVE SMOOTH",
"198 68 LINE SMOOTH",
"190 59 OFFCURVE",
"192 49 OFFCURVE",
"205 45 CURVE SMOOTH"
);
},
{
closed = 1;
nodes = (
"358 536 OFFCURVE",
"291 603 OFFCURVE",
"294 696 CURVE SMOOTH",
"301 934 OFFCURVE",
"628 1066 OFFCURVE",
"738 875 CURVE SMOOTH",
"743 866 OFFCURVE",
"743 860 OFFCURVE",
"738 852 CURVE SMOOTH",
"545 509 LINE SMOOTH",
"540 500 OFFCURVE",
"534 498 OFFCURVE",
"523 500 CURVE SMOOTH"
);
},
{
closed = 1;
nodes = (
"725 505 LINE SMOOTH",
"713 507 OFFCURVE",
"708 515 OFFCURVE",
"712 526 CURVE SMOOTH",
"838 894 LINE SMOOTH",
"842 906 OFFCURVE",
"852 908 OFFCURVE",
"861 899 CURVE SMOOTH",
"979 783 OFFCURVE",
"1142 581 OFFCURVE",
"1148 440 CURVE SMOOTH",
"1148 429 OFFCURVE",
"1141 423 OFFCURVE",
"1129 425 CURVE SMOOTH"
);
}
);
width = 1386;
}
);
unicode = 06BE;
},
{
glyphname = "hehDoachashmee-ar.fina";
lastChange = "2016-02-16 22:31:06 +0000";
layers = (
{
anchors = (
{
name = bottom;
position = "{712, -276}";
},
{
name = top;
position = "{735, 1254}";
}
);
layerId = "93A312F7-B931-4485-B08E-C367313EB5E7";
name = Regular;
paths = (
{
closed = 1;
nodes = (
"324 -145 OFFCURVE",
"375 -112 OFFCURVE",
"457 6 CURVE SMOOTH",
"575 176 LINE SMOOTH",
"581 185 OFFCURVE",
"588 187 OFFCURVE",
"598 184 CURVE SMOOTH",
"1175 30 OFFCURVE",
"1305 0 OFFCURVE",
"1558 0 CURVE SMOOTH",
"1578 0 LINE",
"1626 60 OFFCURVE",
"1626 119 OFFCURVE",
"1578 179 CURVE",
"1558 179 LINE SMOOTH",
"1462 179 OFFCURVE",
"1241 177 OFFCURVE",
"1167 186 CURVE SMOOTH",
"1156 187 OFFCURVE",
"1150 195 OFFCURVE",
"1153 207 CURVE SMOOTH",
"1221 509 OFFCURVE",
"1156 691 OFFCURVE",
"704 1087 CURVE SMOOTH",
"695 1095 OFFCURVE",
"685 1093 OFFCURVE",
"679 1083 CURVE SMOOTH",
"596 950 LINE SMOOTH",
"591 942 OFFCURVE",
"587 938 OFFCURVE",
"578 935 CURVE SMOOTH",
"406 867 OFFCURVE",
"229 598 OFFCURVE",
"227 412 CURVE SMOOTH",
"225 270 OFFCURVE",
"288 220 OFFCURVE",
"383 182 CURVE SMOOTH",
"394 178 OFFCURVE",
"397 169 OFFCURVE",
"389 159 CURVE SMOOTH",
"189 -81 LINE SMOOTH",
"181 -90 OFFCURVE",
"183 -99 OFFCURVE",
"195 -103 CURVE SMOOTH"
);
},
{
closed = 1;
nodes = (
"311 359 OFFCURVE",
"281 493 OFFCURVE",
"369 645 CURVE SMOOTH",
"472 823 OFFCURVE",
"654 784 OFFCURVE",
"736 680 CURVE SMOOTH",
"742 672 OFFCURVE",
"742 665 OFFCURVE",
"737 656 CURVE SMOOTH",
"560 335 LINE SMOOTH",
"555 326 OFFCURVE",
"549 322 OFFCURVE",
"538 324 CURVE SMOOTH"
);
},
{
closed = 1;
nodes = (
"729 329 LINE SMOOTH",
"719 332 OFFCURVE",
"714 339 OFFCURVE",
"718 351 CURVE SMOOTH",
"836 697 LINE SMOOTH",
"841 710 OFFCURVE",
"850 713 OFFCURVE",
"859 703 CURVE SMOOTH",
"965 596 OFFCURVE",
"1079 420 OFFCURVE",
"1079 248 CURVE SMOOTH",
"1079 237 OFFCURVE",
"1070 231 OFFCURVE",
"1058 235 CURVE SMOOTH"
);
}
);
width = 1558;
}
);
unicode = FBAB;
},
{
glyphname = "hehDoachashmee-ar.medi";
lastChange = "2016-02-16 22:38:27 +0000";
layers = (
{
anchors = (
{
name = bottom;
position = "{592, -168}";
},
{
name = top;
position = "{685, 1264}";
}
);
layerId = "93A312F7-B931-4485-B08E-C367313EB5E7";
name = Regular;
paths = (
{
closed = 1;
nodes = (
"46 0 LINE SMOOTH",
"224 0 OFFCURVE",
"413 90 OFFCURVE",
"535 179 CURVE SMOOTH",
"542 184 OFFCURVE",
"549 187 OFFCURVE",
"559 184 CURVE SMOOTH",
"1147 26 OFFCURVE",
"1266 0 OFFCURVE",
"1520 0 CURVE SMOOTH",
"1540 0 LINE",
"1588 60 OFFCURVE",
"1588 119 OFFCURVE",
"1540 179 CURVE",
"1520 179 LINE SMOOTH",
"1425 179 OFFCURVE",
"1206 187 OFFCURVE",
"1130 190 CURVE SMOOTH",
"1119 190 OFFCURVE",
"1115 197 OFFCURVE",
"1117 208 CURVE SMOOTH",
"1183 509 OFFCURVE",
"1117 692 OFFCURVE",
"666 1087 CURVE SMOOTH",
"657 1095 OFFCURVE",
"647 1093 OFFCURVE",
"641 1083 CURVE SMOOTH",
"558 950 LINE SMOOTH",
"553 942 OFFCURVE",
"549 938 OFFCURVE",
"541 935 CURVE SMOOTH",
"368 867 OFFCURVE",
"191 598 OFFCURVE",
"189 412 CURVE SMOOTH",
"187 340 OFFCURVE",
"205 274 OFFCURVE",
"247 222 CURVE SMOOTH",
"255 212 OFFCURVE",
"253 202 OFFCURVE",
"240 199 CURVE SMOOTH",
"182 185 OFFCURVE",
"97 179 OFFCURVE",
"46 179 CURVE SMOOTH",
"-20 179 LINE SMOOTH",
"-138 179 OFFCURVE",
"-138 0 OFFCURVE",
"-20 0 CURVE SMOOTH"
);
},
{
closed = 1;
nodes = (
"273 359 OFFCURVE",
"243 493 OFFCURVE",
"331 645 CURVE SMOOTH",
"434 823 OFFCURVE",
"616 784 OFFCURVE",
"698 680 CURVE SMOOTH",
"704 672 OFFCURVE",
"704 665 OFFCURVE",
"699 656 CURVE SMOOTH",
"522 335 LINE SMOOTH",
"518 327 OFFCURVE",
"511 322 OFFCURVE",
"500 324 CURVE SMOOTH"
);
},
{
closed = 1;
nodes = (
"691 329 LINE SMOOTH",
"681 332 OFFCURVE",
"676 339 OFFCURVE",
"680 351 CURVE SMOOTH",
"798 697 LINE SMOOTH",
"802 710 OFFCURVE",
"812 713 OFFCURVE",
"821 703 CURVE SMOOTH",
"927 596 OFFCURVE",
"1041 420 OFFCURVE",
"1041 248 CURVE SMOOTH",
"1041 237 OFFCURVE",
"1032 232 OFFCURVE",
"1020 235 CURVE SMOOTH"
);
}
);
width = 1520;
}
);
unicode = FBAD;
},
{
glyphname = "waw-ar";
lastChange = "2016-03-07 08:37:15 +0000";
layers = (
{
anchors = (
{
name = bottom;
position = "{422, -684}";
},
{
name = top;
position = "{526, 1030}";
}
);
layerId = "93A312F7-B931-4485-B08E-C367313EB5E7";
name = Regular;
paths = (
{
closed = 1;
nodes = (
"792 -325 OFFCURVE",
"902 -47 OFFCURVE",
"902 242 CURVE SMOOTH",
"902 540 OFFCURVE",
"777 863 OFFCURVE",
"552 863 CURVE SMOOTH",
"320 863 OFFCURVE",
"173 544 OFFCURVE",
"173 307 CURVE SMOOTH",
"173 8 OFFCURVE",
"373 -77 OFFCURVE",
"769 41 CURVE",
"619 -274 OFFCURVE",
"381 -385 OFFCURVE",
"-7 -300 CURVE SMOOTH",
"-17 -298 OFFCURVE",
"-25 -305 OFFCURVE",
"-28 -315 CURVE SMOOTH",
"-51 -394 LINE SMOOTH",
"-54 -403 OFFCURVE",
"-48 -410 OFFCURVE",
"-38 -413 CURVE SMOOTH",
"199 -492 OFFCURVE",
"408 -524 OFFCURVE",
"551 -450 CURVE SMOOTH"
);
},
{
closed = 1;
nodes = (
"600 183 OFFCURVE",
"402 168 OFFCURVE",
"283 248 CURVE SMOOTH",
"276 253 OFFCURVE",
"273 260 OFFCURVE",
"273 269 CURVE SMOOTH",
"265 442 OFFCURVE",
"384 661 OFFCURVE",
"512 661 CURVE SMOOTH",
"635 661 OFFCURVE",
"769 436 OFFCURVE",
"770 223 CURVE"
);
}
);
width = 1040;
}
);
unicode = 0648;
userData = {
com.typemytype.robofont.guides = (
{
angle = 90;
isGlobal = 0;
x = 787;
y = 236;
}
);
};
},
{
glyphname = "waw-ar.fina";
lastChange = "2016-03-07 08:37:59 +0000";
layers = (
{
anchors = (
{
name = bottom;
position = "{446, -714}";
},
{
name = top;
position = "{549, 1030}";
}
);
layerId = "93A312F7-B931-4485-B08E-C367313EB5E7";
name = Regular;
paths = (
{
closed = 1;
nodes = (
"738 -364 OFFCURVE",
"836 -180 OFFCURVE",
"876 0 CURVE",
"1116 0 LINE",
"1164 60 OFFCURVE",
"1164 119 OFFCURVE",
"1116 179 CURVE",
"902 179 LINE",
"908 425 OFFCURVE",
"805 823 OFFCURVE",
"552 823 CURVE SMOOTH",
"320 823 OFFCURVE",
"173 512 OFFCURVE",
"173 275 CURVE SMOOTH",
"173 -24 OFFCURVE",
"368 -38 OFFCURVE",
"765 1 CURVE",
"642 -298 OFFCURVE",
"374 -395 OFFCURVE",
"-14 -310 CURVE SMOOTH",
"-24 -308 OFFCURVE",
"-32 -315 OFFCURVE",
"-35 -325 CURVE SMOOTH",
"-57 -404 LINE SMOOTH",
"-59 -413 OFFCURVE",
"-55 -420 OFFCURVE",
"-45 -423 CURVE SMOOTH",
"192 -502 OFFCURVE",
"411 -535 OFFCURVE",
"554 -460 CURVE SMOOTH"
);
},
{
closed = 1;
nodes = (
"555 179 OFFCURVE",
"397 173 OFFCURVE",
"286 218 CURVE SMOOTH",
"277 222 OFFCURVE",
"273 229 OFFCURVE",
"273 238 CURVE SMOOTH",
"266 411 OFFCURVE",
"384 621 OFFCURVE",
"512 621 CURVE SMOOTH",
"658 621 OFFCURVE",
"769 376 OFFCURVE",
"770 183 CURVE"
);
}
);
width = 1096;
}
);
unicode = FEEE;
userData = {
com.typemytype.robofont.guides = (
{
angle = 0;
isGlobal = 0;
x = 1013;
y = 156;
}
);
};
},
{
glyphname = "alefMaksura-ar";
lastChange = "2016-03-07 07:55:20 +0000";
layers = (
{
anchors = (
{
name = bottom;
position = "{691, -759}";
},
{
name = top;
position = "{560, 615}";
}
);
layerId = "93A312F7-B931-4485-B08E-C367313EB5E7";
name = Regular;
paths = (
{
closed = 1;
nodes = (
"968 -591 OFFCURVE",
"1502 -372 OFFCURVE",
"1492 -86 CURVE SMOOTH",
"1489 -10 OFFCURVE",
"1447 18 OFFCURVE",
"1311 29 CURVE SMOOTH",
"1076 50 LINE SMOOTH",
"944 65 OFFCURVE",
"868 106 OFFCURVE",
"888 171 CURVE",
"945 304 OFFCURVE",
"1058 417 OFFCURVE",
"1153 481 CURVE SMOOTH",
"1234 535 OFFCURVE",
"1295 523 OFFCURVE",
"1354 490 CURVE SMOOTH",
"1364 485 OFFCURVE",
"1372 488 OFFCURVE",
"1377 500 CURVE SMOOTH",
"1427 611 LINE SMOOTH",
"1431 620 OFFCURVE",
"1431 627 OFFCURVE",
"1425 635 CURVE SMOOTH",
"1393 682 OFFCURVE",
"1334 702 OFFCURVE",
"1275 702 CURVE SMOOTH",
"1124 702 OFFCURVE",
"915 490 OFFCURVE",
"826 271 CURVE SMOOTH",
"712 -9 OFFCURVE",
"762 -108 OFFCURVE",
"1026 -134 CURVE SMOOTH",
"1390 -170 LINE",
"1173 -315 OFFCURVE",
"898 -396 OFFCURVE",
"667 -393 CURVE SMOOTH",
"392 -388 OFFCURVE",
"228 -251 OFFCURVE",
"328 140 CURVE SMOOTH",
"370 304 LINE SMOOTH",
"373 316 OFFCURVE",
"368 323 OFFCURVE",
"358 325 CURVE SMOOTH",
"284 341 LINE SMOOTH",
"274 343 OFFCURVE",
"266 339 OFFCURVE",
"263 328 CURVE SMOOTH",
"217 152 LINE SMOOTH",
"96 -312 OFFCURVE",
"218 -591 OFFCURVE",
"651 -591 CURVE SMOOTH"
);
}
);
width = 1630;
}
);
unicode = 0649;
},
{
glyphname = "alefMaksura-ar.fina";
lastChange = "2016-02-16 22:54:02 +0000";
layers = (
{
anchors = (
{
name = bottom;
position = "{719, -812}";
},
{
name = top;
position = "{673, 471}";
}
);
layerId = "93A312F7-B931-4485-B08E-C367313EB5E7";
name = Regular;
paths = (
{
closed = 1;
nodes = (
"803 -637 OFFCURVE",
"1083 -570 OFFCURVE",
"1272 -450 CURVE SMOOTH",
"1389 -375 OFFCURVE",
"1444 -301 OFFCURVE",
"1444 -190 CURVE SMOOTH",
"1444 -94 OFFCURVE",
"1274 -18 OFFCURVE",
"1189 12 CURVE",
"1257 5 OFFCURVE",
"1523 0 OFFCURVE",
"1577 0 CURVE SMOOTH",
"1643 0 LINE",
"1691 60 OFFCURVE",
"1691 119 OFFCURVE",
"1643 179 CURVE",
"1089 179 LINE SMOOTH",
"1000 179 OFFCURVE",
"991 181 OFFCURVE",
"948 92 CURVE SMOOTH",
"889 -28 OFFCURVE",
"889 -29 OFFCURVE",
"966 -59 CURVE SMOOTH",
"1103 -112 OFFCURVE",
"1245 -175 OFFCURVE",
"1334 -222 CURVE SMOOTH",
"1349 -230 OFFCURVE",
"1349 -236 OFFCURVE",
"1333 -245 CURVE SMOOTH",
"1091 -377 OFFCURVE",
"873 -443 OFFCURVE",
"665 -439 CURVE SMOOTH",
"413 -435 OFFCURVE",
"225 -296 OFFCURVE",
"325 93 CURVE SMOOTH",
"381 311 LINE SMOOTH",
"383 320 OFFCURVE",
"378 329 OFFCURVE",
"368 331 CURVE SMOOTH",
"294 347 LINE SMOOTH",
"285 349 OFFCURVE",
"277 345 OFFCURVE",
"274 335 CURVE SMOOTH",
"214 106 LINE SMOOTH",
"91 -363 OFFCURVE",
"239 -637 OFFCURVE",
"649 -637 CURVE SMOOTH"
);
}
);
width = 1623;
}
);
unicode = FEF0;
},
{
glyphname = "yehTail-ar";
lastChange = "2016-02-16 22:43:47 +0000";
layers = (
{
anchors = (
{
name = bottom;
position = "{1078, -790}";
},
{
name = top;
position = "{927, 518}";
}
);
layerId = "93A312F7-B931-4485-B08E-C367313EB5E7";
name = Regular;
paths = (
{
closed = 1;
nodes = (
"1400 -611 OFFCURVE",
"1933 -392 OFFCURVE",
"1923 -106 CURVE SMOOTH",
"1920 -30 OFFCURVE",
"1878 -2 OFFCURVE",
"1742 9 CURVE SMOOTH",
"1508 30 LINE SMOOTH",
"1375 45 OFFCURVE",
"1300 86 OFFCURVE",
"1319 151 CURVE",
"1377 284 OFFCURVE",
"1489 397 OFFCURVE",
"1585 461 CURVE SMOOTH",
"1665 515 OFFCURVE",
"1726 503 OFFCURVE",
"1785 470 CURVE SMOOTH",
"1795 465 OFFCURVE",
"1803 468 OFFCURVE",
"1808 480 CURVE SMOOTH",
"1858 591 LINE SMOOTH",
"1862 599 OFFCURVE",
"1862 607 OFFCURVE",
"1856 615 CURVE SMOOTH",
"1824 662 OFFCURVE",
"1765 682 OFFCURVE",
"1707 682 CURVE SMOOTH",
"1555 682 OFFCURVE",
"1347 470 OFFCURVE",
"1257 251 CURVE SMOOTH",
"1143 -29 OFFCURVE",
"1194 -128 OFFCURVE",
"1457 -154 CURVE SMOOTH",
"1822 -190 LINE",
"1604 -335 OFFCURVE",
"1329 -416 OFFCURVE",
"1098 -413 CURVE SMOOTH",
"873 -409 OFFCURVE",
"723 -320 OFFCURVE",
"730 -68 CURVE SMOOTH",
"736 131 OFFCURVE",
"792 302 OFFCURVE",
"653 259 CURVE SMOOTH",
"179 113 LINE SMOOTH",
"175 112 OFFCURVE",
"173 109 OFFCURVE",
"173 103 CURVE SMOOTH",
"173 91 OFFCURVE",
"255 -55 OFFCURVE",
"377 -23 CURVE SMOOTH",
"434 -8 OFFCURVE",
"534 30 OFFCURVE",
"635 64 CURVE",
"566 -371 OFFCURVE",
"667 -611 OFFCURVE",
"1082 -611 CURVE SMOOTH"
);
}
);
width = 2061;
}
);
unicode = 06CD;
},
{
glyphname = "yehTail-ar.fina";
lastChange = "2016-02-16 22:53:43 +0000";
layers = (
{
anchors = (
{
name = bottom;
position = "{1074, -805}";
},
{
name = top;
position = "{1097, 494}";
}
);
layerId = "93A312F7-B931-4485-B08E-C367313EB5E7";
name = Regular;
paths = (
{
closed = 1;
nodes = (
"1236 -637 OFFCURVE",
"1516 -570 OFFCURVE",
"1704 -450 CURVE SMOOTH",
"1822 -375 OFFCURVE",
"1877 -301 OFFCURVE",
"1877 -190 CURVE SMOOTH",
"1877 -94 OFFCURVE",
"1707 -18 OFFCURVE",
"1621 12 CURVE",
"1689 5 OFFCURVE",
"1955 0 OFFCURVE",
"2009 0 CURVE SMOOTH",
"2075 0 LINE",
"2123 60 OFFCURVE",
"2123 119 OFFCURVE",
"2075 179 CURVE",
"1521 179 LINE SMOOTH",
"1433 179 OFFCURVE",
"1424 181 OFFCURVE",
"1380 92 CURVE SMOOTH",
"1321 -28 OFFCURVE",
"1321 -29 OFFCURVE",
"1398 -59 CURVE SMOOTH",
"1535 -112 OFFCURVE",
"1678 -175 OFFCURVE",
"1766 -222 CURVE SMOOTH",
"1781 -230 OFFCURVE",
"1781 -236 OFFCURVE",
"1765 -245 CURVE SMOOTH",
"1524 -377 OFFCURVE",
"1306 -443 OFFCURVE",
"1098 -439 CURVE SMOOTH",
"873 -436 OFFCURVE",
"723 -352 OFFCURVE",
"730 -94 CURVE SMOOTH",
"736 105 OFFCURVE",
"782 272 OFFCURVE",
"653 232 CURVE SMOOTH",
"179 86 LINE SMOOTH",
"175 85 OFFCURVE",
"173 83 OFFCURVE",
"173 77 CURVE SMOOTH",
"173 64 OFFCURVE",
"255 -82 OFFCURVE",
"377 -49 CURVE SMOOTH",
"434 -35 OFFCURVE",
"534 3 OFFCURVE",
"635 38 CURVE",
"566 -398 OFFCURVE",
"667 -637 OFFCURVE",
"1082 -637 CURVE SMOOTH"
);
}
);
width = 2055;
}
);
},
{
glyphname = "yehbarree-ar";
lastChange = "2016-02-16 22:45:55 +0000";
layers = (
{
anchors = (
{
name = bottom;
position = "{923, -230}";
},
{
name = top;
position = "{843, 1013}";
}
);
layerId = "93A312F7-B931-4485-B08E-C367313EB5E7";
name = Regular;
paths = (
{
closed = 1;
nodes = (
"1711 -61 LINE",
"1709 15 OFFCURVE",
"1738 122 OFFCURVE",
"1602 122 CURVE SMOOTH",
"447 123 LINE SMOOTH",
"314 123 OFFCURVE",
"260 166 OFFCURVE",
"285 235 CURVE SMOOTH",
"330 357 OFFCURVE",
"679 436 OFFCURVE",
"812 657 CURVE SMOOTH",
"826 680 OFFCURVE",
"918 614 OFFCURVE",
"944 600 CURVE SMOOTH",
"954 595 OFFCURVE",
"962 599 OFFCURVE",
"967 610 CURVE SMOOTH",
"1018 721 LINE SMOOTH",
"1021 729 OFFCURVE",
"1021 737 OFFCURVE",
"1015 745 CURVE SMOOTH",
"983 792 OFFCURVE",
"868 867 OFFCURVE",
"815 841 CURVE SMOOTH",
"743 805 OFFCURVE",
"762 721 OFFCURVE",
"532 590 CURVE SMOOTH",
"379 504 OFFCURVE",
"282 431 OFFCURVE",
"220 286 CURVE SMOOTH",
"123 68 OFFCURVE",
"173 -61 OFFCURVE",
"397 -61 CURVE SMOOTH"
);
}
);
width = 1850;
}
);
unicode = 06D2;
},
{
glyphname = "yehbarree-ar.fina";
lastChange = "2016-02-16 22:53:25 +0000";
layers = (
{
anchors = (
{
name = bottom;
position = "{708, -680}";
},
{
name = top;
position = "{756, 354}";
}
);
layerId = "93A312F7-B931-4485-B08E-C367313EB5E7";
name = Regular;
paths = (
{
closed = 1;
nodes = (
"544 179 OFFCURVE",
"327 77 OFFCURVE",
"220 -171 CURVE SMOOTH",
"123 -390 OFFCURVE",
"173 -507 OFFCURVE",
"397 -507 CURVE SMOOTH",
"1711 -507 LINE",
"1709 -431 OFFCURVE",
"1738 -336 OFFCURVE",
"1602 -336 CURVE SMOOTH",
"447 -335 LINE SMOOTH",
"314 -335 OFFCURVE",
"260 -292 OFFCURVE",
"285 -223 CURVE SMOOTH",
"321 -128 OFFCURVE",
"471 0 OFFCURVE",
"722 0 CURVE SMOOTH",
"1027 0 LINE",
"1075 60 OFFCURVE",
"1075 119 OFFCURVE",
"1027 179 CURVE",
"742 179 LINE SMOOTH"
);
}
);
width = 1007;
}
);
unicode = FBAF;
},
{
glyphname = "yehbarree-ar.fina.001";
lastChange = "2016-02-16 22:53:17 +0000";
layers = (
{
layerId = "93A312F7-B931-4485-B08E-C367313EB5E7";
name = Regular;
paths = (
{
closed = 1;
nodes = (
"1711 -507 LINE",
"1709 -431 OFFCURVE",
"1738 -336 OFFCURVE",
"1602 -336 CURVE SMOOTH",
"447 -335 LINE SMOOTH",
"314 -335 OFFCURVE",
"260 -292 OFFCURVE",
"285 -223 CURVE SMOOTH",
"321 -128 OFFCURVE",
"582 -55 OFFCURVE",
"688 82 CURVE SMOOTH",
"785 207 OFFCURVE",
"841 201 OFFCURVE",
"903 145 CURVE SMOOTH",
"1017 45 OFFCURVE",
"1136 0 OFFCURVE",
"1251 0 CURVE SMOOTH",
"1395 0 LINE",
"1443 60 OFFCURVE",
"1443 119 OFFCURVE",
"1395 179 CURVE",
"1282 179 LINE SMOOTH",
"1084 179 OFFCURVE",
"1056 241 OFFCURVE",
"974 311 CURVE SMOOTH",
"880 391 OFFCURVE",
"810 397 OFFCURVE",
"723 289 CURVE SMOOTH",
"688 245 OFFCURVE",
"634 190 OFFCURVE",
"532 132 CURVE SMOOTH",
"379 46 OFFCURVE",
"282 -26 OFFCURVE",
"220 -171 CURVE SMOOTH",
"123 -390 OFFCURVE",
"173 -507 OFFCURVE",
"397 -507 CURVE SMOOTH"
);
}
);
width = 1375;
}
);
},
{
glyphname = "kashida-ar";
lastChange = "2016-02-16 14:28:33 +0000";
layers = (
{
layerId = "93A312F7-B931-4485-B08E-C367313EB5E7";
name = Regular;
paths = (
{
closed = 1;
nodes = (
"462 0 LINE",
"511 60 OFFCURVE",
"511 120 OFFCURVE",
"462 179 CURVE",
"0 179 LINE SMOOTH",
"-118 179 OFFCURVE",
"-118 0 OFFCURVE",
"0 0 CURVE SMOOTH"
);
}
);
width = 462;
}
);
unicode = 0640;
},
{
glyphname = "lam_alef-ar";
lastChange = "2016-02-16 22:49:50 +0000";
layers = (
{
anchors = (
{
name = bottom_1;
position = "{982, -166}";
},
{
name = bottom_2;
position = "{393, -174}";
},
{
name = caret_1;
position = "{560, 1626}";
},
{
name = top_1;
position = "{969, 1723}";
},
{
name = top_2;
position = "{244, 1503}";
}
);
layerId = "93A312F7-B931-4485-B08E-C367313EB5E7";
name = Regular;
paths = (
{
closed = 1;
nodes = (
"365 -5 OFFCURVE",
"1023 -47 OFFCURVE",
"1088 140 CURVE SMOOTH",
"1160 351 OFFCURVE",
"1063 508 OFFCURVE",
"883 703 CURVE",
"1015 991 OFFCURVE",
"1003 1020 OFFCURVE",
"999 1535 CURVE SMOOTH",
"999 1550 OFFCURVE",
"989 1557 OFFCURVE",
"979 1549 CURVE SMOOTH",
"849 1452 LINE SMOOTH",
"842 1446 OFFCURVE",
"837 1441 OFFCURVE",
"837 1431 CURVE SMOOTH",
"841 958 OFFCURVE",
"877 926 OFFCURVE",
"810 767 CURVE",
"248 1392 LINE SMOOTH",
"239 1403 OFFCURVE",
"229 1400 OFFCURVE",
"224 1386 CURVE SMOOTH",
"174 1234 LINE SMOOTH",
"171 1225 OFFCURVE",
"172 1217 OFFCURVE",
"178 1211 CURVE SMOOTH",
"688 654 LINE",
"354 187 LINE SMOOTH",
"349 180 OFFCURVE",
"342 176 OFFCURVE",
"332 177 CURVE SMOOTH",
"228 189 LINE SMOOTH",
"216 190 OFFCURVE",
"210 183 OFFCURVE",
"212 171 CURVE SMOOTH",
"237 21 LINE SMOOTH",
"239 10 OFFCURVE",
"244 6 OFFCURVE",
"254 5 CURVE SMOOTH"
);
},
{
closed = 1;
nodes = (
"484 176 OFFCURVE",
"480 184 OFFCURVE",
"488 195 CURVE SMOOTH",
"761 592 LINE",
"819 537 OFFCURVE",
"982 355 OFFCURVE",
"1027 254 CURVE SMOOTH",
"1036 233 OFFCURVE",
"1026 218 OFFCURVE",
"1004 213 CURVE SMOOTH",
"850 177 OFFCURVE",
"623 168 OFFCURVE",
"498 175 CURVE SMOOTH"
);
}
);
width = 1250;
}
);
unicode = FEFB;
},
{
glyphname = "lam_alef-ar.fina";
lastChange = "2016-02-16 22:55:27 +0000";
layers = (
{
anchors = (
{
name = bottom_1;
position = "{1175, -174}";
},
{
name = bottom_2;
position = "{291, -327}";
},
{
name = caret_1;
position = "{656, 1532}";
},
{
name = top_1;
position = "{1141, 1639}";
},
{
name = top_2;
position = "{335, 1396}";
}
);
layerId = "93A312F7-B931-4485-B08E-C367313EB5E7";
name = Regular;
paths = (
{
closed = 1;
nodes = (
"800 -83 OFFCURVE",
"926 39 OFFCURVE",
"965 570 CURVE",
"990 133 OFFCURVE",
"1048 0 OFFCURVE",
"1334 0 CURVE SMOOTH",
"1402 0 LINE SMOOTH",
"1422 0 LINE",
"1470 60 OFFCURVE",
"1470 119 OFFCURVE",
"1422 179 CURVE",
"1402 179 LINE SMOOTH",
"1348 179 LINE SMOOTH",
"1290 179 OFFCURVE",
"1183 198 OFFCURVE",
"1113 233 CURVE",
"1073 651 OFFCURVE",
"1056 1070 OFFCURVE",
"1061 1487 CURVE SMOOTH",
"1061 1501 OFFCURVE",
"1051 1504 OFFCURVE",
"1040 1497 CURVE SMOOTH",
"904 1415 OFFCURVE",
"897 1413 OFFCURVE",
"900 1227 CURVE SMOOTH",
"905 887 OFFCURVE",
"894 358 OFFCURVE",
"714 186 CURVE",
"673 453 OFFCURVE",
"371 1080 OFFCURVE",
"304 1221 CURVE SMOOTH",
"298 1234 OFFCURVE",
"286 1235 OFFCURVE",
"279 1224 CURVE SMOOTH",
"194 1078 LINE SMOOTH",
"190 1070 OFFCURVE",
"188 1063 OFFCURVE",
"193 1053 CURVE SMOOTH",
"345 752 OFFCURVE",
"482 460 OFFCURVE",
"605 166 CURVE SMOOTH",
"620 131 OFFCURVE",
"614 106 OFFCURVE",
"580 93 CURVE SMOOTH",
"482 56 OFFCURVE",
"350 25 OFFCURVE",
"186 -8 CURVE SMOOTH",
"175 -10 OFFCURVE",
"169 -19 OFFCURVE",
"176 -30 CURVE SMOOTH",
"245 -137 LINE SMOOTH",
"250 -145 OFFCURVE",
"256 -149 OFFCURVE",
"267 -148 CURVE SMOOTH"
);
}
);
width = 1402;
}
);
unicode = FEFC;
},
{
glyphname = "allah-ar";
lastChange = "2016-03-02 08:08:29 +0000";
layers = (
{
layerId = "93A312F7-B931-4485-B08E-C367313EB5E7";
name = Regular;
paths = (
{
closed = 1;
nodes = (
"1839 -36 OFFCURVE",
"1966 13 OFFCURVE",
"2016 114 CURVE SMOOTH",
"2084 251 OFFCURVE",
"2094 292 OFFCURVE",
"2056 578 CURVE SMOOTH",
"1994 1043 LINE SMOOTH",
"1992 1056 OFFCURVE",
"1983 1060 OFFCURVE",
"1971 1051 CURVE SMOOTH",
"1855 967 OFFCURVE",
"1848 964 OFFCURVE",
"1871 835 CURVE SMOOTH",
"1980 216 LINE SMOOTH",
"1982 207 OFFCURVE",
"1979 199 OFFCURVE",
"1970 194 CURVE SMOOTH",
"1824 110 OFFCURVE",
"1636 94 OFFCURVE",
"1541 205 CURVE SMOOTH",
"1504 249 OFFCURVE",
"1493 292 OFFCURVE",
"1482 514 CURVE SMOOTH",
"1461 925 LINE SMOOTH",
"1460 937 OFFCURVE",
"1451 943 OFFCURVE",
"1440 937 CURVE SMOOTH",
"1328 876 LINE SMOOTH",
"1326 875 OFFCURVE",
"1326 873 OFFCURVE",
"1327 861 CURVE SMOOTH",
"1381 214 LINE SMOOTH",
"1382 204 OFFCURVE",
"1379 198 OFFCURVE",
"1370 193 CURVE SMOOTH",
"1302 158 OFFCURVE",
"1171 130 OFFCURVE",
"1095 131 CURVE SMOOTH",
"862 133 OFFCURVE",
"862 233 OFFCURVE",
"850 735 CURVE SMOOTH",
"843 1033 LINE SMOOTH",
"843 1048 OFFCURVE",
"833 1051 OFFCURVE",
"821 1043 CURVE SMOOTH",
"715 972 LINE SMOOTH",
"707 966 OFFCURVE",
"704 960 OFFCURVE",
"705 950 CURVE SMOOTH",
"718 754 LINE SMOOTH",
"719 745 OFFCURVE",
"714 737 OFFCURVE",
"706 733 CURVE SMOOTH",
"475 619 OFFCURVE",
"195 439 OFFCURVE",
"174 156 CURVE SMOOTH",
"173 148 OFFCURVE",
"172 144 OFFCURVE",
"174 136 CURVE SMOOTH",
"195 39 OFFCURVE",
"357 -3 OFFCURVE",
"516 -8 CURVE SMOOTH",
"715 -8 OFFCURVE",
"728 43 OFFCURVE",
"785 138 CURVE",
"841 15 OFFCURVE",
"954 -31 OFFCURVE",
"1082 -30 CURVE SMOOTH",
"1220 -29 OFFCURVE",
"1371 26 OFFCURVE",
"1446 105 CURVE",
"1495 26 OFFCURVE",
"1589 -38 OFFCURVE",
"1719 -37 CURVE SMOOTH"
);
},
{
closed = 1;
nodes = (
"583 126 OFFCURVE",
"331 161 OFFCURVE",
"260 248 CURVE SMOOTH",
"256 253 OFFCURVE",
"256 259 OFFCURVE",
"261 268 CURVE SMOOTH",
"319 379 OFFCURVE",
"515 506 OFFCURVE",
"710 591 CURVE SMOOTH",
"722 596 OFFCURVE",
"730 591 OFFCURVE",
"731 578 CURVE SMOOTH",
"765 218 LINE SMOOTH",
"766 209 OFFCURVE",
"761 202 OFFCURVE",
"752 198 CURVE SMOOTH"
);
},
{
closed = 1;
nodes = (
"1279 1071 OFFCURVE",
"1358 1087 OFFCURVE",
"1404 1124 CURVE",
"1442 1094 OFFCURVE",
"1509 1089 OFFCURVE",
"1556 1096 CURVE SMOOTH",
"1722 1121 OFFCURVE",
"1659 1318 OFFCURVE",
"1651 1352 CURVE SMOOTH",
"1628 1446 LINE SMOOTH",
"1625 1457 OFFCURVE",
"1618 1461 OFFCURVE",
"1609 1454 CURVE SMOOTH",
"1574 1427 LINE SMOOTH",
"1567 1421 OFFCURVE",
"1563 1417 OFFCURVE",
"1566 1408 CURVE SMOOTH",
"1624 1221 LINE",
"1570 1199 OFFCURVE",
"1523 1179 OFFCURVE",
"1442 1205 CURVE",
"1432 1365 LINE SMOOTH",
"1432 1373 OFFCURVE",
"1425 1378 OFFCURVE",
"1416 1378 CURVE SMOOTH",
"1385 1378 LINE SMOOTH",
"1377 1378 OFFCURVE",
"1372 1371 OFFCURVE",
"1372 1363 CURVE SMOOTH",
"1373 1202 LINE",
"1320 1182 OFFCURVE",
"1268 1167 OFFCURVE",
"1186 1193 CURVE",
"1196 1379 LINE SMOOTH",
"1196 1388 OFFCURVE",
"1191 1395 OFFCURVE",
"1183 1395 CURVE SMOOTH",
"1164 1396 LINE SMOOTH",
"1155 1396 OFFCURVE",
"1149 1392 OFFCURVE",
"1148 1382 CURVE SMOOTH",
"1135 1222 LINE SMOOTH",
"1130 1159 OFFCURVE",
"1151 1098 OFFCURVE",
"1211 1086 CURVE SMOOTH"
);
},
{
closed = 1;
nodes = (
"1416 1452 LINE SMOOTH",
"1425 1457 OFFCURVE",
"1429 1463 OFFCURVE",
"1429 1473 CURVE SMOOTH",
"1431 1762 LINE SMOOTH",
"1431 1777 OFFCURVE",
"1421 1781 OFFCURVE",
"1410 1777 CURVE SMOOTH",
"1360 1758 LINE SMOOTH",
"1350 1754 OFFCURVE",
"1346 1746 OFFCURVE",
"1347 1735 CURVE SMOOTH",
"1365 1449 LINE SMOOTH",
"1366 1433 OFFCURVE",
"1375 1428 OFFCURVE",
"1388 1436 CURVE SMOOTH"
);
},
{
closed = 1;
nodes = (
"2400 -15 OFFCURVE",
"2413 20 OFFCURVE",
"2412 115 CURVE SMOOTH",
"2404 1519 LINE SMOOTH",
"2404 1538 OFFCURVE",
"2385 1549 OFFCURVE",
"2372 1538 CURVE SMOOTH",
"2252 1432 LINE SMOOTH",
"2240 1421 OFFCURVE",
"2230 1411 OFFCURVE",
"2231 1383 CURVE SMOOTH",
"2290 -15 LINE SMOOTH",
"2291 -29 OFFCURVE",
"2302 -36 OFFCURVE",
"2316 -33 CURVE SMOOTH"
);
}
);
width = 2550;
}
);
unicode = FDF2;
},
{
glyphname = "decimalseparator-ar";
lastChange = "2016-02-16 23:04:30 +0000";
layers = (
{
layerId = "93A312F7-B931-4485-B08E-C367313EB5E7";
name = Regular;
paths = (
{
closed = 1;
nodes = (
"201 -414 OFFCURVE",
"209 -409 OFFCURVE",
"212 -402 CURVE SMOOTH",
"638 707 LINE SMOOTH",
"643 719 OFFCURVE",
"636 733 OFFCURVE",
"623 734 CURVE SMOOTH",
"562 741 LINE SMOOTH",
"555 742 OFFCURVE",
"548 737 OFFCURVE",
"545 730 CURVE SMOOTH",
"116 -379 LINE SMOOTH",
"111 -392 OFFCURVE",
"118 -405 OFFCURVE",
"131 -406 CURVE SMOOTH",
"194 -413 LINE SMOOTH"
);
}
);
width = 754;
}
);
unicode = 066B;
},
{
glyphname = "thousandseparator-ar";
lastChange = "2016-02-16 23:05:15 +0000";
layers = (
{
layerId = "93A312F7-B931-4485-B08E-C367313EB5E7";
name = Regular;
paths = (
{
closed = 1;
nodes = (
"197 16 OFFCURVE",
"203 20 OFFCURVE",
"206 26 CURVE SMOOTH",
"476 564 LINE SMOOTH",
"482 576 OFFCURVE",
"475 590 OFFCURVE",
"461 592 CURVE SMOOTH",
"404 599 LINE SMOOTH",
"397 600 OFFCURVE",
"391 596 OFFCURVE",
"388 590 CURVE SMOOTH",
"117 53 LINE SMOOTH",
"110 39 OFFCURVE",
"118 26 OFFCURVE",
"132 24 CURVE SMOOTH",
"190 17 LINE SMOOTH"
);
}
);
width = 593;
}
);
unicode = 066C;
},
{
glyphname = "zero-ar";
lastChange = "2016-02-16 23:05:45 +0000";
layers = (
{
layerId = "93A312F7-B931-4485-B08E-C367313EB5E7";
name = Regular;
paths = (
{
closed = 1;
nodes = (
"388 171 OFFCURVE",
"452 173 OFFCURVE",
"494 216 CURVE SMOOTH",
"687 413 LINE SMOOTH",
"728 455 OFFCURVE",
"728 518 OFFCURVE",
"685 561 CURVE SMOOTH",
"493 753 LINE SMOOTH",
"450 796 OFFCURVE",
"388 796 OFFCURVE",
"345 754 CURVE SMOOTH",
"148 562 LINE SMOOTH",
"105 520 OFFCURVE",
"103 456 OFFCURVE",
"147 412 CURVE SMOOTH",
"344 215 LINE SMOOTH"
);
},
{
closed = 1;
nodes = (
"244 485 LINE",
"417 654 LINE",
"587 485 LINE",
"417 312 LINE"
);
}
);
width = 833;
}
);
unicode = 0660;
userData = {
com.typemytype.robofont.guides = (
{
angle = 90;
isGlobal = 0;
x = "-273";
y = 474;
}
);
};
},
{
glyphname = "one-ar";
lastChange = "2016-02-16 23:06:40 +0000";
layers = (
{
layerId = "93A312F7-B931-4485-B08E-C367313EB5E7";
name = Regular;
paths = (
{
closed = 1;
nodes = (
"437 -3 LINE SMOOTH",
"446 -1 OFFCURVE",
"452 6 OFFCURVE",
"452 16 CURVE SMOOTH",
"447 587 OFFCURVE",
"431 922 OFFCURVE",
"260 1262 CURVE SMOOTH",
"254 1274 OFFCURVE",
"244 1275 OFFCURVE",
"236 1264 CURVE SMOOTH",
"120 1104 LINE SMOOTH",
"114 1096 OFFCURVE",
"113 1089 OFFCURVE",
"118 1080 CURVE SMOOTH",
"335 690 OFFCURVE",
"337 267 OFFCURVE",
"342 -7 CURVE SMOOTH",
"342 -20 OFFCURVE",
"347 -25 OFFCURVE",
"360 -22 CURVE SMOOTH"
);
}
);
width = 567;
}
);
unicode = 0661;
},
{
glyphname = "two-ar";
lastChange = "2016-02-16 23:08:03 +0000";
layers = (
{
layerId = "93A312F7-B931-4485-B08E-C367313EB5E7";
name = Regular;
paths = (
{
closed = 1;
nodes = (
"437 -3 LINE SMOOTH",
"446 -1 OFFCURVE",
"452 5 OFFCURVE",
"452 15 CURVE SMOOTH",
"459 260 OFFCURVE",
"447 526 OFFCURVE",
"404 806 CURVE SMOOTH",
"401 819 OFFCURVE",
"408 825 OFFCURVE",
"421 822 CURVE SMOOTH",
"685 774 OFFCURVE",
"861 903 OFFCURVE",
"872 1263 CURVE SMOOTH",
"872 1275 OFFCURVE",
"865 1278 OFFCURVE",
"853 1280 CURVE SMOOTH",
"776 1294 LINE SMOOTH",
"766 1296 OFFCURVE",
"760 1286 OFFCURVE",
"759 1275 CURVE SMOOTH",
"745 1040 OFFCURVE",
"576 1000 OFFCURVE",
"407 1047 CURVE SMOOTH",
"399 1049 OFFCURVE",
"393 1052 OFFCURVE",
"388 1058 CURVE SMOOTH",
"351 1099 OFFCURVE",
"306 1180 OFFCURVE",
"260 1263 CURVE SMOOTH",
"254 1274 OFFCURVE",
"244 1275 OFFCURVE",
"236 1264 CURVE SMOOTH",
"120 1104 LINE SMOOTH",
"114 1096 OFFCURVE",
"113 1089 OFFCURVE",
"118 1080 CURVE SMOOTH",
"335 690 OFFCURVE",
"337 267 OFFCURVE",
"342 -7 CURVE SMOOTH",
"342 -20 OFFCURVE",
"347 -25 OFFCURVE",
"360 -22 CURVE SMOOTH"
);
}
);
width = 987;
}
);
unicode = 0662;
},
{
glyphname = "three-ar";
lastChange = "2016-02-16 23:09:53 +0000";
layers = (
{
layerId = "93A312F7-B931-4485-B08E-C367313EB5E7";
name = Regular;
paths = (
{
closed = 1;
nodes = (
"437 -3 LINE SMOOTH",
"446 -1 OFFCURVE",
"452 6 OFFCURVE",
"452 16 CURVE SMOOTH",
"448 352 OFFCURVE",
"461 476 OFFCURVE",
"400 827 CURVE",
"539 796 OFFCURVE",
"652 826 OFFCURVE",
"712 908 CURVE",
"918 765 OFFCURVE",
"1142 898 OFFCURVE",
"1137 1156 CURVE SMOOTH",
"1134 1304 LINE SMOOTH",
"1134 1316 OFFCURVE",
"1128 1320 OFFCURVE",
"1118 1321 CURVE SMOOTH",
"1057 1328 LINE SMOOTH",
"1045 1329 OFFCURVE",
"1038 1324 OFFCURVE",
"1038 1312 CURVE SMOOTH",
"1038 1083 OFFCURVE",
"982 997 OFFCURVE",
"757 1059 CURVE",
"761 1303 LINE SMOOTH",
"761 1313 OFFCURVE",
"754 1320 OFFCURVE",
"744 1320 CURVE SMOOTH",
"683 1323 LINE SMOOTH",
"673 1323 OFFCURVE",
"666 1317 OFFCURVE",
"666 1304 CURVE SMOOTH",
"661 1122 OFFCURVE",
"646 1025 OFFCURVE",
"509 1021 CURVE SMOOTH",
"355 1015 OFFCURVE",
"325 1109 OFFCURVE",
"260 1263 CURVE SMOOTH",
"255 1274 OFFCURVE",
"244 1275 OFFCURVE",
"236 1264 CURVE SMOOTH",
"120 1104 LINE SMOOTH",
"114 1096 OFFCURVE",
"113 1089 OFFCURVE",
"118 1080 CURVE SMOOTH",
"335 690 OFFCURVE",
"337 267 OFFCURVE",
"342 -7 CURVE SMOOTH",
"342 -20 OFFCURVE",
"347 -25 OFFCURVE",
"360 -22 CURVE SMOOTH"
);
}
);
width = 1252;
}
);
unicode = 0663;
},
{
glyphname = "four-ar";
lastChange = "2016-02-16 23:10:58 +0000";
layers = (
{
layerId = "93A312F7-B931-4485-B08E-C367313EB5E7";
name = Regular;
paths = (
{
closed = 1;
nodes = (
"818 26 OFFCURVE",
"823 30 OFFCURVE",
"826 40 CURVE SMOOTH",
"872 198 LINE SMOOTH",
"876 212 OFFCURVE",
"869 217 OFFCURVE",
"856 215 CURVE SMOOTH",
"601 169 OFFCURVE",
"220 176 OFFCURVE",
"220 281 CURVE SMOOTH",
"220 348 OFFCURVE",
"446 512 OFFCURVE",
"623 605 CURVE SMOOTH",
"633 610 OFFCURVE",
"636 618 OFFCURVE",
"634 627 CURVE SMOOTH",
"603 776 LINE SMOOTH",
"600 785 OFFCURVE",
"595 791 OFFCURVE",
"584 792 CURVE SMOOTH",
"491 803 OFFCURVE",
"350 829 OFFCURVE",
"258 900 CURVE",
"342 992 OFFCURVE",
"473 1082 OFFCURVE",
"623 1165 CURVE SMOOTH",
"633 1170 OFFCURVE",
"636 1175 OFFCURVE",
"636 1186 CURVE SMOOTH",
"639 1319 LINE SMOOTH",
"639 1332 OFFCURVE",
"631 1338 OFFCURVE",
"620 1332 CURVE SMOOTH",
"374 1202 OFFCURVE",
"153 1028 OFFCURVE",
"153 812 CURVE SMOOTH",
"153 702 OFFCURVE",
"323 661 OFFCURVE",
"423 642 CURVE",
"278 542 OFFCURVE",
"116 365 OFFCURVE",
"115 191 CURVE SMOOTH",
"113 -75 OFFCURVE",
"603 -9 OFFCURVE",
"808 24 CURVE SMOOTH"
);
}
);
width = 988;
}
);
unicode = 0664;
},
{
glyphname = "five-ar";
lastChange = "2016-03-07 08:34:06 +0000";
layers = (
{
layerId = "93A312F7-B931-4485-B08E-C367313EB5E7";
name = Regular;
paths = (
{
closed = 1;
nodes = (
"654 128 OFFCURVE",
"816 361 OFFCURVE",
"816 660 CURVE SMOOTH",
"816 884 OFFCURVE",
"606 1098 OFFCURVE",
"445 1098 CURVE SMOOTH",
"240 1098 OFFCURVE",
"115 704 OFFCURVE",
"115 480 CURVE SMOOTH",
"115 216 OFFCURVE",
"217 138 OFFCURVE",
"365 135 CURVE SMOOTH"
);
},
{
closed = 1;
nodes = (
"298 345 OFFCURVE",
"209 404 OFFCURVE",
"209 531 CURVE SMOOTH",
"209 615 OFFCURVE",
"239 873 OFFCURVE",
"394 873 CURVE SMOOTH",
"516 873 OFFCURVE",
"719 711 OFFCURVE",
"719 554 CURVE SMOOTH",
"719 471 OFFCURVE",
"559 343 OFFCURVE",
"423 344 CURVE SMOOTH"
);
}
);
width = 932;
}
);
unicode = 0665;
},
{
glyphname = "six-ar";
lastChange = "2016-02-16 23:12:14 +0000";
layers = (
{
layerId = "93A312F7-B931-4485-B08E-C367313EB5E7";
name = Regular;
paths = (
{
closed = 1;
nodes = (
"927 77 LINE SMOOTH",
"934 84 OFFCURVE",
"935 92 OFFCURVE",
"931 101 CURVE SMOOTH",
"789 402 OFFCURVE",
"766 728 OFFCURVE",
"812 1073 CURVE SMOOTH",
"813 1081 OFFCURVE",
"813 1088 OFFCURVE",
"811 1095 CURVE SMOOTH",
"773 1239 LINE SMOOTH",
"770 1249 OFFCURVE",
"762 1253 OFFCURVE",
"752 1252 CURVE SMOOTH",
"578 1237 OFFCURVE",
"312 1233 OFFCURVE",
"140 1282 CURVE SMOOTH",
"129 1285 OFFCURVE",
"121 1280 OFFCURVE",
"121 1268 CURVE SMOOTH",
"115 1086 LINE SMOOTH",
"115 1075 OFFCURVE",
"120 1069 OFFCURVE",
"130 1066 CURVE SMOOTH",
"281 1025 OFFCURVE",
"550 1032 OFFCURVE",
"703 1051 CURVE",
"656 642 OFFCURVE",
"646 324 OFFCURVE",
"780 -26 CURVE SMOOTH",
"785 -38 OFFCURVE",
"793 -41 OFFCURVE",
"804 -32 CURVE SMOOTH"
);
}
);
width = 1049;
}
);
unicode = 0666;
},
{
glyphname = "seven-ar";
lastChange = "2016-02-16 23:13:43 +0000";
layers = (
{
layerId = "93A312F7-B931-4485-B08E-C367313EB5E7";
name = Regular;
paths = (
{
closed = 1;
nodes = (
"728 13 LINE SMOOTH",
"736 16 OFFCURVE",
"741 21 OFFCURVE",
"743 30 CURVE SMOOTH",
"811 379 OFFCURVE",
"913 806 OFFCURVE",
"1089 1173 CURVE SMOOTH",
"1093 1182 OFFCURVE",
"1092 1190 OFFCURVE",
"1087 1197 CURVE SMOOTH",
"1009 1313 LINE SMOOTH",
"1001 1325 OFFCURVE",
"992 1324 OFFCURVE",
"986 1312 CURVE SMOOTH",
"828 999 OFFCURVE",
"739 630 OFFCURVE",
"668 298 CURVE",
"624 661 OFFCURVE",
"397 1056 OFFCURVE",
"254 1285 CURVE SMOOTH",
"247 1296 OFFCURVE",
"237 1296 OFFCURVE",
"230 1286 CURVE SMOOTH",
"120 1137 LINE SMOOTH",
"114 1129 OFFCURVE",
"113 1122 OFFCURVE",
"118 1113 CURVE SMOOTH",
"347 747 OFFCURVE",
"488 538 OFFCURVE",
"601 -16 CURVE SMOOTH",
"604 -29 OFFCURVE",
"612 -33 OFFCURVE",
"622 -29 CURVE SMOOTH"
);
}
);
width = 1206;
}
);
unicode = 0667;
},
{
glyphname = "eight-ar";
lastChange = "2016-02-16 23:15:07 +0000";
layers = (
{
layerId = "93A312F7-B931-4485-B08E-C367313EB5E7";
name = Regular;
paths = (
{
closed = 1;
nodes = (
"205 -37 OFFCURVE",
"215 -37 OFFCURVE",
"221 -23 CURVE SMOOTH",
"357 290 OFFCURVE",
"467 680 OFFCURVE",
"515 966 CURVE",
"559 670 OFFCURVE",
"787 212 OFFCURVE",
"929 -21 CURVE SMOOTH",
"936 -32 OFFCURVE",
"946 -32 OFFCURVE",
"953 -22 CURVE SMOOTH",
"1064 126 LINE SMOOTH",
"1070 134 OFFCURVE",
"1072 141 OFFCURVE",
"1065 151 CURVE SMOOTH",
"837 473 OFFCURVE",
"696 769 OFFCURVE",
"583 1301 CURVE SMOOTH",
"580 1313 OFFCURVE",
"570 1317 OFFCURVE",
"560 1309 CURVE SMOOTH",
"463 1236 LINE SMOOTH",
"457 1232 OFFCURVE",
"453 1225 OFFCURVE",
"452 1216 CURVE SMOOTH",
"404 879 OFFCURVE",
"283 460 OFFCURVE",
"117 114 CURVE SMOOTH",
"113 105 OFFCURVE",
"115 98 OFFCURVE",
"120 90 CURVE SMOOTH",
"197 -25 LINE SMOOTH"
);
}
);
width = 1183;
}
);
unicode = 0668;
},
{
glyphname = "nine-ar";
lastChange = "2016-02-16 23:16:12 +0000";
layers = (
{
layerId = "93A312F7-B931-4485-B08E-C367313EB5E7";
name = Regular;
paths = (
{
closed = 1;
nodes = (
"881 116 LINE SMOOTH",
"887 123 OFFCURVE",
"888 130 OFFCURVE",
"884 139 CURVE SMOOTH",
"789 340 OFFCURVE",
"752 541 OFFCURVE",
"735 766 CURVE SMOOTH",
"718 997 OFFCURVE",
"693 1318 OFFCURVE",
"431 1318 CURVE SMOOTH",
"236 1318 OFFCURVE",
"115 1040 OFFCURVE",
"115 838 CURVE SMOOTH",
"115 623 OFFCURVE",
"255 553 OFFCURVE",
"394 558 CURVE SMOOTH",
"481 560 OFFCURVE",
"568 592 OFFCURVE",
"619 635 CURVE",
"629 413 OFFCURVE",
"646 204 OFFCURVE",
"728 -24 CURVE SMOOTH",
"733 -37 OFFCURVE",
"743 -37 OFFCURVE",
"751 -29 CURVE SMOOTH"
);
},
{
closed = 1;
nodes = (
"454 747 OFFCURVE",
"347 737 OFFCURVE",
"235 789 CURVE SMOOTH",
"228 792 OFFCURVE",
"223 797 OFFCURVE",
"222 806 CURVE SMOOTH",
"199 956 OFFCURVE",
"290 1130 OFFCURVE",
"416 1130 CURVE SMOOTH",
"519 1130 OFFCURVE",
"593 974 OFFCURVE",
"606 799 CURVE SMOOTH",
"607 789 OFFCURVE",
"601 782 OFFCURVE",
"591 780 CURVE SMOOTH"
);
}
);
width = 1002;
}
);
unicode = 0669;
},
{
glyphname = "four-persian";
lastChange = "2016-02-16 23:18:26 +0000";
layers = (
{
layerId = "93A312F7-B931-4485-B08E-C367313EB5E7";
name = Regular;
paths = (
{
closed = 1;
nodes = (
"436 -3 LINE SMOOTH",
"445 -1 OFFCURVE",
"451 5 OFFCURVE",
"451 16 CURVE SMOOTH",
"448 304 OFFCURVE",
"443 509 OFFCURVE",
"416 708 CURVE",
"471 685 OFFCURVE",
"543 673 OFFCURVE",
"618 672 CURVE SMOOTH",
"769 669 OFFCURVE",
"936 704 OFFCURVE",
"1015 729 CURVE SMOOTH",
"1025 732 OFFCURVE",
"1028 738 OFFCURVE",
"1030 747 CURVE SMOOTH",
"1059 887 LINE SMOOTH",
"1062 900 OFFCURVE",
"1055 907 OFFCURVE",
"1042 904 CURVE SMOOTH",
"897 873 OFFCURVE",
"733 854 OFFCURVE",
"629 860 CURVE SMOOTH",
"622 860 OFFCURVE",
"618 865 OFFCURVE",
"615 872 CURVE SMOOTH",
"520 1153 LINE SMOOTH",
"516 1164 OFFCURVE",
"521 1172 OFFCURVE",
"530 1175 CURVE SMOOTH",
"657 1220 OFFCURVE",
"776 1205 OFFCURVE",
"914 1186 CURVE SMOOTH",
"926 1184 OFFCURVE",
"933 1191 OFFCURVE",
"931 1203 CURVE SMOOTH",
"915 1320 LINE SMOOTH",
"914 1331 OFFCURVE",
"910 1336 OFFCURVE",
"900 1339 CURVE SMOOTH",
"767 1385 OFFCURVE",
"527 1389 OFFCURVE",
"445 1249 CURVE SMOOTH",
"393 1160 OFFCURVE",
"392 1025 OFFCURVE",
"465 867 CURVE",
"369 873 OFFCURVE",
"306 1105 OFFCURVE",
"255 1237 CURVE SMOOTH",
"250 1249 OFFCURVE",
"240 1250 OFFCURVE",
"232 1240 CURVE SMOOTH",
"120 1104 LINE SMOOTH",
"114 1096 OFFCURVE",
"113 1089 OFFCURVE",
"117 1080 CURVE SMOOTH",
"325 690 OFFCURVE",
"336 267 OFFCURVE",
"340 -7 CURVE SMOOTH",
"340 -20 OFFCURVE",
"346 -25 OFFCURVE",
"359 -22 CURVE SMOOTH"
);
}
);
width = 1174;
}
);
unicode = 06F4;
},
{
glyphname = "four-persian.urdu";
lastChange = "2016-02-16 23:19:30 +0000";
layers = (
{
layerId = "93A312F7-B931-4485-B08E-C367313EB5E7";
name = Regular;
paths = (
{
closed = 1;
nodes = (
"517 -45 OFFCURVE",
"528 -45 OFFCURVE",
"534 -31 CURVE SMOOTH",
"612 144 LINE SMOOTH",
"616 153 OFFCURVE",
"616 158 OFFCURVE",
"612 167 CURVE SMOOTH",
"302 865 LINE SMOOTH",
"181 1129 OFFCURVE",
"217 1262 OFFCURVE",
"323 1262 CURVE SMOOTH",
"457 1263 OFFCURVE",
"596 1052 OFFCURVE",
"645 894 CURVE SMOOTH",
"649 882 OFFCURVE",
"656 878 OFFCURVE",
"667 882 CURVE SMOOTH",
"745 911 LINE SMOOTH",
"753 914 OFFCURVE",
"758 919 OFFCURVE",
"761 927 CURVE SMOOTH",
"819 1066 OFFCURVE",
"885 1181 OFFCURVE",
"1048 1308 CURVE SMOOTH",
"1055 1313 OFFCURVE",
"1058 1319 OFFCURVE",
"1057 1329 CURVE SMOOTH",
"1044 1452 LINE SMOOTH",
"1043 1466 OFFCURVE",
"1034 1472 OFFCURVE",
"1022 1463 CURVE SMOOTH",
"919 1386 OFFCURVE",
"811 1265 OFFCURVE",
"736 1106 CURVE",
"641 1379 OFFCURVE",
"371 1594 OFFCURVE",
"207 1308 CURVE SMOOTH",
"55 1049 OFFCURVE",
"120 857 OFFCURVE",
"201 672 CURVE SMOOTH",
"511 -31 LINE SMOOTH"
);
}
);
width = 1172;
}
);
},
{
glyphname = "five-persian";
lastChange = "2016-02-16 23:21:13 +0000";
layers = (
{
layerId = "93A312F7-B931-4485-B08E-C367313EB5E7";
name = Regular;
paths = (
{
closed = 1;
nodes = (
"798 -21 OFFCURVE",
"913 151 OFFCURVE",
"922 305 CURVE SMOOTH",
"941 591 OFFCURVE",
"721 850 OFFCURVE",
"422 1210 CURVE SMOOTH",
"414 1220 OFFCURVE",
"404 1219 OFFCURVE",
"398 1208 CURVE SMOOTH",
"314 1048 LINE SMOOTH",
"310 1040 OFFCURVE",
"309 1032 OFFCURVE",
"316 1025 CURVE SMOOTH",
"402 928 LINE",
"290 776 OFFCURVE",
"115 520 OFFCURVE",
"115 237 CURVE SMOOTH",
"115 68 OFFCURVE",
"191 -14 OFFCURVE",
"290 -16 CURVE SMOOTH",
"357 -17 OFFCURVE",
"427 25 OFFCURVE",
"477 123 CURVE",
"511 2 OFFCURVE",
"590 -24 OFFCURVE",
"658 -23 CURVE SMOOTH"
);
},
{
closed = 1;
nodes = (
"627 161 OFFCURVE",
"561 193 OFFCURVE",
"549 304 CURVE SMOOTH",
"546 331 OFFCURVE",
"538 346 OFFCURVE",
"527 342 CURVE SMOOTH",
"455 317 LINE SMOOTH",
"446 314 OFFCURVE",
"440 308 OFFCURVE",
"439 299 CURVE SMOOTH",
"427 220 OFFCURVE",
"381 169 OFFCURVE",
"329 169 CURVE SMOOTH",
"265 169 OFFCURVE",
"202 216 OFFCURVE",
"202 302 CURVE SMOOTH",
"202 477 OFFCURVE",
"393 758 OFFCURVE",
"477 845 CURVE",
"621 684 OFFCURVE",
"806 428 OFFCURVE",
"839 293 CURVE",
"810 216 OFFCURVE",
"731 162 OFFCURVE",
"679 162 CURVE SMOOTH"
);
}
);
width = 1038;
}
);
unicode = 06F5;
},
{
glyphname = "six-persian";
lastChange = "2016-02-16 23:22:41 +0000";
layers = (
{
layerId = "93A312F7-B931-4485-B08E-C367313EB5E7";
name = Regular;
paths = (
{
closed = 1;
nodes = (
"259 -38 OFFCURVE",
"268 -37 OFFCURVE",
"275 -26 CURVE SMOOTH",
"439 235 OFFCURVE",
"639 578 OFFCURVE",
"1029 908 CURVE SMOOTH",
"1042 919 OFFCURVE",
"1046 927 OFFCURVE",
"1045 936 CURVE SMOOTH",
"1027 1104 LINE SMOOTH",
"1025 1119 OFFCURVE",
"1017 1121 OFFCURVE",
"1005 1112 CURVE SMOOTH",
"831 971 OFFCURVE",
"677 774 OFFCURVE",
"606 699 CURVE SMOOTH",
"601 693 OFFCURVE",
"596 693 OFFCURVE",
"589 696 CURVE SMOOTH",
"429 765 OFFCURVE",
"266 906 OFFCURVE",
"228 990 CURVE",
"294 1137 OFFCURVE",
"473 1213 OFFCURVE",
"681 1178 CURVE SMOOTH",
"692 1176 OFFCURVE",
"699 1180 OFFCURVE",
"700 1193 CURVE SMOOTH",
"706 1296 LINE SMOOTH",
"707 1306 OFFCURVE",
"703 1312 OFFCURVE",
"692 1316 CURVE SMOOTH",
"351 1425 OFFCURVE",
"138 1214 OFFCURVE",
"116 953 CURVE SMOOTH",
"100 766 OFFCURVE",
"311 619 OFFCURVE",
"474 562 CURVE",
"361 394 OFFCURVE",
"258 215 OFFCURVE",
"179 70 CURVE SMOOTH",
"174 61 OFFCURVE",
"176 54 OFFCURVE",
"183 46 CURVE SMOOTH",
"251 -29 LINE SMOOTH"
);
}
);
width = 1160;
}
);
unicode = 06F6;
},
{
glyphname = "seven-persian.urdu";
lastChange = "2016-02-16 23:23:56 +0000";
layers = (
{
layerId = "93A312F7-B931-4485-B08E-C367313EB5E7";
name = Regular;
paths = (
{
closed = 1;
nodes = (
"421 -29 OFFCURVE",
"677 -26 OFFCURVE",
"918 10 CURVE SMOOTH",
"927 11 OFFCURVE",
"932 17 OFFCURVE",
"935 25 CURVE SMOOTH",
"990 181 LINE SMOOTH",
"995 194 OFFCURVE",
"988 201 OFFCURVE",
"975 199 CURVE SMOOTH",
"738 158 OFFCURVE",
"443 152 OFFCURVE",
"207 190 CURVE",
"207 232 OFFCURVE",
"246 340 OFFCURVE",
"327 455 CURVE SMOOTH",
"481 672 OFFCURVE",
"659 874 OFFCURVE",
"849 1109 CURVE SMOOTH",
"855 1116 OFFCURVE",
"855 1124 OFFCURVE",
"854 1132 CURVE SMOOTH",
"829 1290 LINE SMOOTH",
"827 1305 OFFCURVE",
"817 1308 OFFCURVE",
"807 1296 CURVE SMOOTH",
"627 1068 OFFCURVE",
"309 727 OFFCURVE",
"183 459 CURVE SMOOTH",
"119 322 OFFCURVE",
"99 173 OFFCURVE",
"130 23 CURVE SMOOTH",
"132 13 OFFCURVE",
"138 7 OFFCURVE",
"148 6 CURVE SMOOTH"
);
}
);
width = 1106;
}
);
},
{
glyphname = asterisk;
lastChange = "2016-02-16 23:24:54 +0000";
layers = (
{
layerId = "93A312F7-B931-4485-B08E-C367313EB5E7";
name = Regular;
paths = (
{
closed = 1;
nodes = (
"551 99 OFFCURVE",
"580 128 OFFCURVE",
"578 163 CURVE SMOOTH",
"569 370 LINE",
"708 217 LINE SMOOTH",
"731 192 OFFCURVE",
"774 191 OFFCURVE",
"799 215 CURVE SMOOTH",
"822 240 OFFCURVE",
"822 282 OFFCURVE",
"798 306 CURVE SMOOTH",
"644 445 LINE",
"851 436 LINE SMOOTH",
"885 434 OFFCURVE",
"917 463 OFFCURVE",
"915 499 CURVE SMOOTH",
"915 535 OFFCURVE",
"887 564 OFFCURVE",
"851 562 CURVE SMOOTH",
"644 553 LINE",
"798 692 LINE SMOOTH",
"822 715 OFFCURVE",
"823 758 OFFCURVE",
"799 783 CURVE SMOOTH",
"774 806 OFFCURVE",
"733 806 OFFCURVE",
"708 781 CURVE SMOOTH",
"573 633 LINE",
"582 835 LINE SMOOTH",
"585 869 OFFCURVE",
"554 900 OFFCURVE",
"519 899 CURVE SMOOTH",
"484 899 OFFCURVE",
"455 871 OFFCURVE",
"457 835 CURVE SMOOTH",
"465 631 LINE",
"324 784 LINE SMOOTH",
"302 808 OFFCURVE",
"259 811 OFFCURVE",
"236 785 CURVE SMOOTH",
"210 760 OFFCURVE",
"210 719 OFFCURVE",
"236 695 CURVE SMOOTH",
"391 553 LINE",
"179 562 LINE SMOOTH",
"145 565 OFFCURVE",
"114 535 OFFCURVE",
"115 499 CURVE SMOOTH",
"115 463 OFFCURVE",
"144 435 OFFCURVE",
"179 436 CURVE SMOOTH",
"386 445 LINE",
"233 306 LINE SMOOTH",
"207 284 OFFCURVE",
"207 240 OFFCURVE",
"231 215 CURVE SMOOTH",
"256 192 OFFCURVE",
"298 192 OFFCURVE",
"322 217 CURVE SMOOTH",
"461 370 LINE",
"452 163 LINE SMOOTH",
"450 129 OFFCURVE",
"480 98 OFFCURVE",
"515 99 CURVE SMOOTH"
);
},
{
closed = 1;
nodes = (
"468 412 OFFCURVE",
"428 452 OFFCURVE",
"428 499 CURVE SMOOTH",
"428 546 OFFCURVE",
"468 587 OFFCURVE",
"515 587 CURVE SMOOTH",
"562 587 OFFCURVE",
"603 546 OFFCURVE",
"603 499 CURVE SMOOTH",
"603 453 OFFCURVE",
"561 412 OFFCURVE",
"515 412 CURVE SMOOTH"
);
}
);
width = 1030;
}
);
unicode = 002A;
},
{
glyphname = backslash;
lastChange = "2016-02-16 23:25:46 +0000";
layers = (
{
layerId = "93A312F7-B931-4485-B08E-C367313EB5E7";
name = Regular;
paths = (
{
closed = 1;
nodes = (
"883 -393 LINE SMOOTH",
"898 -393 OFFCURVE",
"909 -381 OFFCURVE",
"903 -366 CURVE SMOOTH",
"227 1381 LINE SMOOTH",
"224 1388 OFFCURVE",
"218 1392 OFFCURVE",
"213 1392 CURVE SMOOTH",
"136 1392 LINE SMOOTH",
"121 1392 OFFCURVE",
"110 1379 OFFCURVE",
"116 1364 CURVE SMOOTH",
"792 -383 LINE SMOOTH",
"795 -390 OFFCURVE",
"800 -393 OFFCURVE",
"806 -393 CURVE SMOOTH"
);
}
);
width = 1019;
}
);
unicode = 005C;
},
{
glyphname = bullet;
lastChange = "2016-02-16 14:28:33 +0000";
layers = (
{
layerId = "93A312F7-B931-4485-B08E-C367313EB5E7";
name = Regular;
paths = (
{
closed = 1;
nodes = (
"697 124 OFFCURVE",
"865 292 OFFCURVE",
"865 500 CURVE SMOOTH",
"865 707 OFFCURVE",
"697 875 OFFCURVE",
"490 875 CURVE SMOOTH",
"283 875 OFFCURVE",
"115 707 OFFCURVE",
"115 500 CURVE SMOOTH",
"115 292 OFFCURVE",
"283 124 OFFCURVE",
"490 124 CURVE SMOOTH"
);
}
);
width = 980;
}
);
unicode = 2022;
},
{
glyphname = comma;
lastChange = "2016-02-16 23:26:20 +0000";
layers = (
{
layerId = "93A312F7-B931-4485-B08E-C367313EB5E7";
name = Regular;
paths = (
{
closed = 1;
nodes = (
"301 -123 OFFCURVE",
"328 -61 OFFCURVE",
"329 197 CURVE SMOOTH",
"329 208 OFFCURVE",
"322 215 OFFCURVE",
"312 215 CURVE SMOOTH",
"132 215 LINE SMOOTH",
"122 215 OFFCURVE",
"115 208 OFFCURVE",
"115 198 CURVE SMOOTH",
"115 17 LINE SMOOTH",
"115 7 OFFCURVE",
"122 0 OFFCURVE",
"132 0 CURVE SMOOTH",
"228 0 LINE SMOOTH",
"239 0 OFFCURVE",
"247 -7 OFFCURVE",
"245 -18 CURVE SMOOTH",
"236 -79 OFFCURVE",
"201 -123 OFFCURVE",
"164 -159 CURVE SMOOTH",
"156 -167 OFFCURVE",
"156 -175 OFFCURVE",
"162 -183 CURVE SMOOTH",
"176 -201 LINE SMOOTH",
"183 -209 OFFCURVE",
"191 -213 OFFCURVE",
"200 -206 CURVE SMOOTH"
);
}
);
width = 444;
}
);
unicode = 002C;
},
{
glyphname = exclam;
lastChange = "2016-02-16 23:27:08 +0000";
layers = (
{
components = (
{
name = period;
transform = "{0.803, 0, 0, 0.803, 31, -26}";
}
);
layerId = "93A312F7-B931-4485-B08E-C367313EB5E7";
name = Regular;
paths = (
{
closed = 1;
nodes = (
"304 438 LINE SMOOTH",
"312 442 OFFCURVE",
"316 447 OFFCURVE",
"316 458 CURVE SMOOTH",
"311 1398 LINE SMOOTH",
"311 1411 OFFCURVE",
"302 1416 OFFCURVE",
"291 1412 CURVE SMOOTH",
"159 1366 LINE SMOOTH",
"150 1363 OFFCURVE",
"145 1357 OFFCURVE",
"146 1347 CURVE SMOOTH",
"198 386 LINE"
);
}
);
width = 520;
}
);
unicode = 0021;
},
{
glyphname = numbersign;
lastChange = "2016-02-16 23:29:20 +0000";
layers = (
{
layerId = "93A312F7-B931-4485-B08E-C367313EB5E7";
name = Regular;
paths = (
{
closed = 1;
nodes = (
"415 35 LINE SMOOTH",
"423 35 OFFCURVE",
"431 40 OFFCURVE",
"432 49 CURVE SMOOTH",
"484 406 LINE",
"757 406 LINE",
"706 55 LINE SMOOTH",
"704 44 OFFCURVE",
"713 35 OFFCURVE",
"725 35 CURVE SMOOTH",
"800 35 LINE SMOOTH",
"808 35 OFFCURVE",
"816 40 OFFCURVE",
"818 49 CURVE SMOOTH",
"869 406 LINE",
"1145 406 LINE SMOOTH",
"1153 406 OFFCURVE",
"1160 411 OFFCURVE",
"1162 420 CURVE SMOOTH",
"1174 491 LINE SMOOTH",
"1176 503 OFFCURVE",
"1167 513 OFFCURVE",
"1156 513 CURVE SMOOTH",
"885 513 LINE",
"936 868 LINE",
"1231 868 LINE SMOOTH",
"1239 868 OFFCURVE",
"1245 873 OFFCURVE",
"1247 882 CURVE SMOOTH",
"1259 953 LINE SMOOTH",
"1261 965 OFFCURVE",
"1252 975 OFFCURVE",
"1241 975 CURVE SMOOTH",
"952 975 LINE",
"1005 1341 LINE",
"1006 1352 OFFCURVE",
"998 1362 OFFCURVE",
"987 1362 CURVE SMOOTH",
"911 1362 LINE SMOOTH",
"903 1362 OFFCURVE",
"895 1356 OFFCURVE",
"894 1347 CURVE SMOOTH",
"839 975 LINE",
"567 975 LINE",
"620 1341 LINE SMOOTH",
"622 1352 OFFCURVE",
"613 1362 OFFCURVE",
"601 1362 CURVE SMOOTH",
"526 1362 LINE SMOOTH",
"518 1362 OFFCURVE",
"509 1356 OFFCURVE",
"508 1347 CURVE SMOOTH",
"454 975 LINE",
"213 975 LINE SMOOTH",
"205 975 OFFCURVE",
"196 969 OFFCURVE",
"195 960 CURVE SMOOTH",
"185 889 LINE SMOOTH",
"183 877 OFFCURVE",
"192 868 OFFCURVE",
"204 868 CURVE SMOOTH",
"439 868 LINE",
"388 513 LINE",
"143 513 LINE SMOOTH",
"135 513 OFFCURVE",
"126 507 OFFCURVE",
"125 498 CURVE SMOOTH",
"115 427 LINE SMOOTH",
"113 415 OFFCURVE",
"122 406 OFFCURVE",
"133 406 CURVE SMOOTH",
"371 406 LINE",
"321 55 LINE SMOOTH",
"319 44 OFFCURVE",
"328 35 OFFCURVE",
"339 35 CURVE SMOOTH"
);
},
{
closed = 1;
nodes = (
"552 868 LINE",
"823 868 LINE",
"773 513 LINE",
"500 513 LINE"
);
}
);
width = 1374;
}
);
unicode = 0023;
},
{
glyphname = period;
lastChange = "2016-02-16 23:30:07 +0000";
layers = (
{
layerId = "93A312F7-B931-4485-B08E-C367313EB5E7";
name = Regular;
paths = (
{
closed = 1;
nodes = (
"324 -75 OFFCURVE",
"341 -72 OFFCURVE",
"354 -54 CURVE SMOOTH",
"447 75 LINE SMOOTH",
"489 134 OFFCURVE",
"489 150 OFFCURVE",
"437 186 CURVE SMOOTH",
"392 217 OFFCURVE",
"328 260 OFFCURVE",
"291 282 CURVE SMOOTH",
"273 293 OFFCURVE",
"256 287 OFFCURVE",
"244 270 CURVE SMOOTH",
"122 92 LINE SMOOTH",
"109 72 OFFCURVE",
"113 57 OFFCURVE",
"132 45 CURVE SMOOTH",
"306 -64 LINE SMOOTH"
);
}
);
width = 591;
}
);
unicode = 002E;
},
{
glyphname = quotesingle;
lastChange = "2016-02-16 23:31:10 +0000";
layers = (
{
layerId = "93A312F7-B931-4485-B08E-C367313EB5E7";
name = Regular;
paths = (
{
closed = 1;
nodes = (
"210 1157 LINE SMOOTH",
"216 1157 OFFCURVE",
"218 1156 OFFCURVE",
"218 1160 CURVE SMOOTH",
"251 1654 LINE",
"251 1657 OFFCURVE",
"250 1662 OFFCURVE",
"245 1662 CURVE SMOOTH",
"125 1662 LINE SMOOTH",
"121 1662 OFFCURVE",
"117 1662 OFFCURVE",
"117 1656 CURVE SMOOTH",
"115 1165 LINE SMOOTH",
"115 1162 OFFCURVE",
"116 1157 OFFCURVE",
"118 1157 CURVE SMOOTH"
);
}
);
width = 366;
}
);
unicode = 0027;
},
{
glyphname = semicolon;
lastChange = "2016-02-16 23:34:55 +0000";
layers = (
{
layerId = "93A312F7-B931-4485-B08E-C367313EB5E7";
name = Regular;
paths = (
{
closed = 1;
nodes = (
"209 -198 OFFCURVE",
"225 -190 OFFCURVE",
"235 -171 CURVE SMOOTH",
"294 -57 LINE SMOOTH",
"371 92 OFFCURVE",
"483 291 OFFCURVE",
"271 411 CURVE SMOOTH",
"252 422 OFFCURVE",
"235 417 OFFCURVE",
"224 397 CURVE SMOOTH",
"166 293 LINE SMOOTH",
"155 273 OFFCURVE",
"159 258 OFFCURVE",
"178 247 CURVE SMOOTH",
"258 202 OFFCURVE",
"317 149 OFFCURVE",
"229 -5 CURVE SMOOTH",
"155 -135 LINE SMOOTH",
"144 -155 OFFCURVE",
"151 -172 OFFCURVE",
"171 -181 CURVE SMOOTH",
"189 -189 LINE SMOOTH"
);
},
{
closed = 1;
nodes = (
"270 712 OFFCURVE",
"287 716 OFFCURVE",
"300 734 CURVE SMOOTH",
"368 828 LINE SMOOTH",
"400 873 OFFCURVE",
"409 884 OFFCURVE",
"359 917 CURVE SMOOTH",
"327 938 OFFCURVE",
"282 965 OFFCURVE",
"253 981 CURVE SMOOTH",
"235 991 OFFCURVE",
"218 986 OFFCURVE",
"206 969 CURVE SMOOTH",
"122 845 LINE SMOOTH",
"109 826 OFFCURVE",
"112 810 OFFCURVE",
"132 798 CURVE SMOOTH",
"252 723 LINE SMOOTH"
);
}
);
width = 513;
}
);
unicode = 003B;
},
{
glyphname = slash;
lastChange = "2016-02-16 23:35:34 +0000";
layers = (
{
layerId = "93A312F7-B931-4485-B08E-C367313EB5E7";
name = Regular;
paths = (
{
closed = 1;
nodes = (
"213 -393 LINE SMOOTH",
"218 -393 OFFCURVE",
"224 -390 OFFCURVE",
"227 -383 CURVE SMOOTH",
"903 1364 LINE SMOOTH",
"909 1379 OFFCURVE",
"898 1392 OFFCURVE",
"883 1392 CURVE SMOOTH",
"806 1392 LINE SMOOTH",
"800 1392 OFFCURVE",
"795 1388 OFFCURVE",
"792 1381 CURVE SMOOTH",
"116 -366 LINE SMOOTH",
"110 -381 OFFCURVE",
"121 -393 OFFCURVE",
"136 -393 CURVE SMOOTH"
);
}
);
width = 1019;
}
);
unicode = 002F;
},
{
glyphname = underscore;
lastChange = "2016-02-16 14:28:33 +0000";
layers = (
{
layerId = "93A312F7-B931-4485-B08E-C367313EB5E7";
name = Regular;
paths = (
{
closed = 1;
nodes = (
"1030 -286 LINE",
"1030 -173 LINE",
"0 -173 LINE",
"0 -286 LINE"
);
}
);
width = 1030;
}
);
unicode = 005F;
},
{
glyphname = braceleft;
lastChange = "2016-02-16 23:36:16 +0000";
layers = (
{
layerId = "93A312F7-B931-4485-B08E-C367313EB5E7";
name = Regular;
paths = (
{
closed = 1;
nodes = (
"616 -545 LINE SMOOTH",
"626 -545 OFFCURVE",
"634 -537 OFFCURVE",
"634 -528 CURVE SMOOTH",
"634 -471 LINE SMOOTH",
"634 -462 OFFCURVE",
"626 -454 OFFCURVE",
"616 -454 CURVE SMOOTH",
"445 -454 LINE SMOOTH",
"425 -454 OFFCURVE",
"409 -438 OFFCURVE",
"409 -419 CURVE SMOOTH",
"409 224 LINE SMOOTH",
"409 357 OFFCURVE",
"332 434 OFFCURVE",
"273 499 CURVE",
"332 565 OFFCURVE",
"409 642 OFFCURVE",
"409 774 CURVE SMOOTH",
"409 1417 LINE SMOOTH",
"409 1436 OFFCURVE",
"425 1452 OFFCURVE",
"445 1452 CURVE SMOOTH",
"616 1452 LINE SMOOTH",
"626 1452 OFFCURVE",
"634 1461 OFFCURVE",
"634 1470 CURVE SMOOTH",
"634 1526 LINE SMOOTH",
"634 1535 OFFCURVE",
"626 1543 OFFCURVE",
"616 1543 CURVE SMOOTH",
"422 1543 LINE SMOOTH",
"332 1543 OFFCURVE",
"284 1495 OFFCURVE",
"284 1405 CURVE SMOOTH",
"284 806 LINE SMOOTH",
"284 628 OFFCURVE",
"248 611 OFFCURVE",
"141 508 CURVE SMOOTH",
"136 504 OFFCURVE",
"136 495 OFFCURVE",
"141 490 CURVE SMOOTH",
"248 375 OFFCURVE",
"284 360 OFFCURVE",
"284 170 CURVE SMOOTH",
"284 -407 LINE SMOOTH",
"284 -497 OFFCURVE",
"332 -545 OFFCURVE",
"422 -545 CURVE SMOOTH"
);
}
);
width = 772;
}
);
unicode = 007B;
},
{
glyphname = braceright;
lastChange = "2016-02-16 23:36:35 +0000";
layers = (
{
layerId = "93A312F7-B931-4485-B08E-C367313EB5E7";
name = Regular;
paths = (
{
closed = 1;
nodes = (
"350 -545 LINE SMOOTH",
"439 -545 OFFCURVE",
"488 -497 OFFCURVE",
"488 -407 CURVE SMOOTH",
"488 170 LINE SMOOTH",
"488 360 OFFCURVE",
"523 375 OFFCURVE",
"630 490 CURVE SMOOTH",
"635 496 OFFCURVE",
"635 503 OFFCURVE",
"630 508 CURVE SMOOTH",
"523 611 OFFCURVE",
"488 628 OFFCURVE",
"488 806 CURVE SMOOTH",
"488 1405 LINE SMOOTH",
"488 1495 OFFCURVE",
"439 1543 OFFCURVE",
"350 1543 CURVE SMOOTH",
"155 1543 LINE SMOOTH",
"146 1543 OFFCURVE",
"138 1535 OFFCURVE",
"138 1526 CURVE SMOOTH",
"138 1470 LINE SMOOTH",
"138 1461 OFFCURVE",
"146 1452 OFFCURVE",
"155 1452 CURVE SMOOTH",
"327 1452 LINE SMOOTH",
"346 1452 OFFCURVE",
"362 1436 OFFCURVE",
"362 1417 CURVE SMOOTH",
"362 774 LINE SMOOTH",
"362 642 OFFCURVE",
"439 565 OFFCURVE",
"499 499 CURVE",
"439 434 OFFCURVE",
"362 357 OFFCURVE",
"362 224 CURVE SMOOTH",
"362 -419 LINE SMOOTH",
"362 -438 OFFCURVE",
"346 -454 OFFCURVE",
"327 -454 CURVE SMOOTH",
"155 -454 LINE SMOOTH",
"146 -454 OFFCURVE",
"138 -462 OFFCURVE",
"138 -471 CURVE SMOOTH",
"138 -528 LINE SMOOTH",
"138 -537 OFFCURVE",
"146 -545 OFFCURVE",
"155 -545 CURVE SMOOTH"
);
}
);
width = 772;
}
);
unicode = 007D;
userData = {
com.typemytype.robofont.guides = (
{
angle = 0;
isGlobal = 0;
x = 360;
y = 609;
}
);
};
},
{
glyphname = bracketleft;
lastChange = "2016-02-16 14:28:33 +0000";
layers = (
{
layerId = "93A312F7-B931-4485-B08E-C367313EB5E7";
name = Regular;
paths = (
{
closed = 1;
nodes = (
"470 -543 LINE SMOOTH",
"480 -543 OFFCURVE",
"488 -535 OFFCURVE",
"488 -526 CURVE SMOOTH",
"488 -469 LINE SMOOTH",
"488 -460 OFFCURVE",
"480 -452 OFFCURVE",
"470 -452 CURVE SMOOTH",
"263 -452 LINE",
"263 1451 LINE",
"470 1451 LINE SMOOTH",
"480 1451 OFFCURVE",
"488 1459 OFFCURVE",
"488 1469 CURVE SMOOTH",
"488 1525 LINE SMOOTH",
"488 1534 OFFCURVE",
"480 1542 OFFCURVE",
"470 1542 CURVE SMOOTH",
"155 1542 LINE SMOOTH",
"146 1542 OFFCURVE",
"138 1534 OFFCURVE",
"138 1525 CURVE SMOOTH",
"138 -526 LINE SMOOTH",
"138 -535 OFFCURVE",
"146 -543 OFFCURVE",
"155 -543 CURVE SMOOTH"
);
}
);
width = 626;
}
);
unicode = 005B;
},
{
glyphname = bracketright;
lastChange = "2016-02-16 14:28:33 +0000";
layers = (
{
layerId = "93A312F7-B931-4485-B08E-C367313EB5E7";
name = Regular;
paths = (
{
closed = 1;
nodes = (
"470 -543 LINE SMOOTH",
"480 -543 OFFCURVE",
"488 -535 OFFCURVE",
"488 -526 CURVE SMOOTH",
"488 1525 LINE SMOOTH",
"488 1534 OFFCURVE",
"480 1542 OFFCURVE",
"470 1542 CURVE SMOOTH",
"155 1542 LINE SMOOTH",
"146 1542 OFFCURVE",
"138 1534 OFFCURVE",
"138 1525 CURVE SMOOTH",
"138 1469 LINE SMOOTH",
"138 1459 OFFCURVE",
"146 1451 OFFCURVE",
"155 1451 CURVE SMOOTH",
"362 1451 LINE",
"362 -452 LINE",
"155 -452 LINE SMOOTH",
"146 -452 OFFCURVE",
"138 -460 OFFCURVE",
"138 -469 CURVE SMOOTH",
"138 -526 LINE SMOOTH",
"138 -535 OFFCURVE",
"146 -543 OFFCURVE",
"155 -543 CURVE SMOOTH"
);
}
);
width = 626;
}
);
unicode = 005D;
},
{
glyphname = parenleft;
lastChange = "2016-02-16 23:37:30 +0000";
layers = (
{
layerId = "93A312F7-B931-4485-B08E-C367313EB5E7";
name = Regular;
paths = (
{
closed = 1;
nodes = (
"551 -345 LINE SMOOTH",
"565 -345 OFFCURVE",
"569 -336 OFFCURVE",
"562 -324 CURVE SMOOTH",
"213 237 OFFCURVE",
"210 785 OFFCURVE",
"561 1324 CURVE SMOOTH",
"569 1335 OFFCURVE",
"564 1344 OFFCURVE",
"550 1344 CURVE SMOOTH",
"471 1344 LINE SMOOTH",
"462 1344 OFFCURVE",
"457 1341 OFFCURVE",
"451 1334 CURVE SMOOTH",
"33 772 OFFCURVE",
"33 215 OFFCURVE",
"451 -335 CURVE SMOOTH",
"457 -342 OFFCURVE",
"462 -345 OFFCURVE",
"471 -345 CURVE SMOOTH"
);
}
);
width = 704;
}
);
unicode = 0028;
},
{
glyphname = parenright;
lastChange = "2016-02-16 23:37:55 +0000";
layers = (
{
layerId = "93A312F7-B931-4485-B08E-C367313EB5E7";
name = Regular;
paths = (
{
closed = 1;
nodes = (
"232 -345 LINE SMOOTH",
"241 -345 OFFCURVE",
"247 -342 OFFCURVE",
"253 -335 CURVE SMOOTH",
"670 215 OFFCURVE",
"670 772 OFFCURVE",
"253 1334 CURVE SMOOTH",
"247 1341 OFFCURVE",
"241 1344 OFFCURVE",
"232 1344 CURVE SMOOTH",
"154 1344 LINE SMOOTH",
"140 1344 OFFCURVE",
"135 1335 OFFCURVE",
"143 1324 CURVE SMOOTH",
"493 785 OFFCURVE",
"491 237 OFFCURVE",
"141 -324 CURVE SMOOTH",
"135 -336 OFFCURVE",
"139 -345 OFFCURVE",
"153 -345 CURVE SMOOTH"
);
}
);
width = 704;
}
);
unicode = 0029;
},
{
glyphname = hyphen;
lastChange = "2016-02-16 14:28:33 +0000";
layers = (
{
layerId = "93A312F7-B931-4485-B08E-C367313EB5E7";
name = Regular;
paths = (
{
closed = 1;
nodes = (
"707 437 LINE SMOOTH",
"718 437 OFFCURVE",
"725 444 OFFCURVE",
"725 454 CURVE SMOOTH",
"725 544 LINE SMOOTH",
"725 554 OFFCURVE",
"718 561 OFFCURVE",
"707 561 CURVE SMOOTH",
"132 561 LINE SMOOTH",
"122 561 OFFCURVE",
"115 554 OFFCURVE",
"115 544 CURVE SMOOTH",
"115 454 LINE SMOOTH",
"115 444 OFFCURVE",
"122 437 OFFCURVE",
"132 437 CURVE SMOOTH"
);
}
);
width = 840;
}
);
unicode = 002D;
},
{
glyphname = hyphentwo;
lastChange = "2016-02-16 14:28:33 +0000";
layers = (
{
layerId = "93A312F7-B931-4485-B08E-C367313EB5E7";
name = Regular;
paths = (
{
closed = 1;
nodes = (
"747 416 LINE SMOOTH",
"758 416 OFFCURVE",
"765 423 OFFCURVE",
"765 434 CURVE SMOOTH",
"765 549 LINE SMOOTH",
"765 559 OFFCURVE",
"758 566 OFFCURVE",
"747 566 CURVE SMOOTH",
"132 566 LINE SMOOTH",
"122 566 OFFCURVE",
"115 559 OFFCURVE",
"115 549 CURVE SMOOTH",
"115 434 LINE SMOOTH",
"115 423 OFFCURVE",
"122 416 OFFCURVE",
"132 416 CURVE SMOOTH"
);
}
);
width = 880;
}
);
unicode = 2010;
},
{
glyphname = guillemetleft;
lastChange = "2016-03-02 08:33:40 +0000";
layers = (
{
layerId = "93A312F7-B931-4485-B08E-C367313EB5E7";
name = Regular;
paths = (
{
closed = 1;
nodes = (
"415 -117 OFFCURVE",
"427 -113 OFFCURVE",
"432 -103 CURVE SMOOTH",
"496 25 LINE",
"503 40 OFFCURVE",
"514 40 OFFCURVE",
"525 27 CURVE SMOOTH",
"569 -24 OFFCURVE",
"637 -70 OFFCURVE",
"729 -112 CURVE SMOOTH",
"742 -118 OFFCURVE",
"752 -115 OFFCURVE",
"758 -103 CURVE SMOOTH",
"838 55 LINE SMOOTH",
"844 68 OFFCURVE",
"839 78 OFFCURVE",
"827 83 CURVE SMOOTH",
"462 225 OFFCURVE",
"579 404 OFFCURVE",
"784 793 CURVE SMOOTH",
"790 805 OFFCURVE",
"788 815 OFFCURVE",
"775 821 CURVE SMOOTH",
"715 847 LINE SMOOTH",
"703 852 OFFCURVE",
"693 849 OFFCURVE",
"687 838 CURVE SMOOTH",
"548 597 OFFCURVE",
"382 338 OFFCURVE",
"462 129 CURVE SMOOTH",
"469 109 OFFCURVE",
"459 98 OFFCURVE",
"440 108 CURVE SMOOTH",
"150 246 OFFCURVE",
"265 426 OFFCURVE",
"457 793 CURVE SMOOTH",
"463 805 OFFCURVE",
"461 816 OFFCURVE",
"448 821 CURVE SMOOTH",
"387 847 LINE SMOOTH",
"376 852 OFFCURVE",
"365 849 OFFCURVE",
"359 838 CURVE SMOOTH",
"160 492 OFFCURVE",
"-92 109 OFFCURVE",
"402 -112 CURVE SMOOTH"
);
}
);
width = 955;
}
);
unicode = 00AB;
},
{
glyphname = guillemetright;
lastChange = "2016-03-02 08:34:46 +0000";
layers = (
{
layerId = "93A312F7-B931-4485-B08E-C367313EB5E7";
name = Regular;
paths = (
{
closed = 1;
nodes = (
"330 -65 OFFCURVE",
"403 -12 OFFCURVE",
"447 47 CURVE",
"524 -103 LINE SMOOTH",
"530 -113 OFFCURVE",
"541 -117 OFFCURVE",
"553 -112 CURVE SMOOTH",
"1049 109 OFFCURVE",
"795 492 OFFCURVE",
"596 838 CURVE SMOOTH",
"590 848 OFFCURVE",
"579 852 OFFCURVE",
"568 847 CURVE SMOOTH",
"507 821 LINE SMOOTH",
"495 816 OFFCURVE",
"492 805 OFFCURVE",
"498 793 CURVE SMOOTH",
"699 412 OFFCURVE",
"817 230 OFFCURVE",
"475 90 CURVE",
"594 306 OFFCURVE",
"417 581 OFFCURVE",
"270 838 CURVE SMOOTH",
"264 848 OFFCURVE",
"253 852 OFFCURVE",
"242 847 CURVE SMOOTH",
"180 821 LINE SMOOTH",
"168 816 OFFCURVE",
"166 805 OFFCURVE",
"172 793 CURVE SMOOTH",
"376 404 OFFCURVE",
"495 225 OFFCURVE",
"128 83 CURVE SMOOTH",
"116 78 OFFCURVE",
"112 68 OFFCURVE",
"117 55 CURVE SMOOTH",
"197 -103 LINE SMOOTH",
"202 -112 OFFCURVE",
"214 -117 OFFCURVE",
"226 -112 CURVE SMOOTH"
);
}
);
width = 956;
}
);
unicode = 00BB;
},
{
glyphname = "asteriskArt-ar";
lastChange = "2016-02-16 23:44:20 +0000";
layers = (
{
background = {
paths = (
{
closed = 1;
nodes = (
"367 251 LINE",
"421 304 LINE",
"367 357 LINE",
"314 304 LINE"
);
},
{
closed = 1;
nodes = (
"367 481 LINE",
"421 534 LINE",
"367 587 LINE",
"314 534 LINE"
);
},
{
closed = 1;
nodes = (
"488 403 LINE",
"488 166 LINE",
"525 166 LINE",
"525 403 LINE",
"770 403 LINE",
"770 442 LINE",
"525 442 LINE",
"525 677 LINE",
"488 677 LINE",
"488 442 LINE",
"243 442 LINE",
"243 403 LINE"
);
},
{
closed = 1;
nodes = (
"647 251 LINE",
"701 304 LINE",
"647 357 LINE",
"594 304 LINE"
);
},
{
closed = 1;
nodes = (
"647 481 LINE",
"701 534 LINE",
"647 587 LINE",
"594 534 LINE"
);
},
{
closed = 1;
nodes = (
"527 -11 LINE SMOOTH",
"531 -11 OFFCURVE",
"533 -9 OFFCURVE",
"533 -6 CURVE SMOOTH",
"533 46 LINE SMOOTH",
"533 49 OFFCURVE",
"534 50 OFFCURVE",
"537 50 CURVE SMOOTH",
"729 67 OFFCURVE",
"879 226 OFFCURVE",
"879 422 CURVE SMOOTH",
"879 618 OFFCURVE",
"729 776 OFFCURVE",
"537 793 CURVE SMOOTH",
"534 793 OFFCURVE",
"533 794 OFFCURVE",
"533 797 CURVE SMOOTH",
"533 849 LINE SMOOTH",
"533 852 OFFCURVE",
"531 854 OFFCURVE",
"527 854 CURVE SMOOTH",
"485 854 LINE SMOOTH",
"482 854 OFFCURVE",
"480 852 OFFCURVE",
"480 849 CURVE SMOOTH",
"480 797 LINE SMOOTH",
"480 795 OFFCURVE",
"479 793 OFFCURVE",
"475 793 CURVE SMOOTH",
"284 776 OFFCURVE",
"134 618 OFFCURVE",
"134 422 CURVE SMOOTH",
"134 226 OFFCURVE",
"284 67 OFFCURVE",
"475 50 CURVE SMOOTH",
"479 50 OFFCURVE",
"480 48 OFFCURVE",
"480 46 CURVE SMOOTH",
"480 -6 LINE SMOOTH",
"480 -9 OFFCURVE",
"482 -11 OFFCURVE",
"485 -11 CURVE SMOOTH"
);
},
{
closed = 1;
nodes = (
"488 82 OFFCURVE",
"473 97 OFFCURVE",
"473 115 CURVE SMOOTH",
"473 136 OFFCURVE",
"488 152 OFFCURVE",
"506 152 CURVE SMOOTH",
"525 152 OFFCURVE",
"541 136 OFFCURVE",
"541 115 CURVE SMOOTH",
"541 97 OFFCURVE",
"525 82 OFFCURVE",
"506 82 CURVE SMOOTH"
);
},
{
closed = 1;
nodes = (
"715 181 LINE SMOOTH",
"706 190 OFFCURVE",
"697 191 OFFCURVE",
"689 183 CURVE SMOOTH",
"651 155 OFFCURVE",
"588 130 OFFCURVE",
"509 189 CURVE SMOOTH",
"507 191 OFFCURVE",
"505 191 OFFCURVE",
"502 189 CURVE SMOOTH",
"425 130 OFFCURVE",
"362 155 OFFCURVE",
"324 183 CURVE SMOOTH",
"316 191 OFFCURVE",
"307 190 OFFCURVE",
"298 181 CURVE SMOOTH",
"292 174 LINE SMOOTH",
"290 173 OFFCURVE",
"288 173 OFFCURVE",
"285 174 CURVE SMOOTH",
"216 236 OFFCURVE",
"173 323 OFFCURVE",
"173 422 CURVE SMOOTH",
"173 521 OFFCURVE",
"216 611 OFFCURVE",
"285 671 CURVE SMOOTH",
"288 671 OFFCURVE",
"290 671 OFFCURVE",
"292 671 CURVE SMOOTH",
"298 665 LINE SMOOTH",
"307 657 OFFCURVE",
"316 656 OFFCURVE",
"324 664 CURVE SMOOTH",
"362 691 OFFCURVE",
"425 713 OFFCURVE",
"502 654 CURVE SMOOTH",
"505 652 OFFCURVE",
"507 652 OFFCURVE",
"509 654 CURVE SMOOTH",
"588 713 OFFCURVE",
"651 691 OFFCURVE",
"689 664 CURVE SMOOTH",
"697 656 OFFCURVE",
"706 657 OFFCURVE",
"715 665 CURVE SMOOTH",
"721 671 LINE SMOOTH",
"723 671 OFFCURVE",
"725 671 OFFCURVE",
"728 671 CURVE SMOOTH",
"797 611 OFFCURVE",
"840 521 OFFCURVE",
"840 422 CURVE SMOOTH",
"840 323 OFFCURVE",
"797 236 OFFCURVE",
"728 174 CURVE SMOOTH",
"725 173 OFFCURVE",
"723 173 OFFCURVE",
"721 174 CURVE SMOOTH"
);
},
{
closed = 1;
nodes = (
"487 691 OFFCURVE",
"472 706 OFFCURVE",
"472 725 CURVE SMOOTH",
"472 744 OFFCURVE",
"487 761 OFFCURVE",
"506 761 CURVE SMOOTH",
"525 761 OFFCURVE",
"541 744 OFFCURVE",
"541 725 CURVE SMOOTH",
"541 706 OFFCURVE",
"525 691 OFFCURVE",
"506 691 CURVE SMOOTH"
);
}
);
};
layerId = "93A312F7-B931-4485-B08E-C367313EB5E7";
name = Regular;
paths = (
{
closed = 1;
nodes = (
"608 -57 LINE SMOOTH",
"613 -57 OFFCURVE",
"615 -55 OFFCURVE",
"615 -52 CURVE SMOOTH",
"615 14 LINE SMOOTH",
"615 17 OFFCURVE",
"618 18 OFFCURVE",
"621 18 CURVE SMOOTH",
"861 40 OFFCURVE",
"1050 239 OFFCURVE",
"1050 485 CURVE SMOOTH",
"1050 731 OFFCURVE",
"861 929 OFFCURVE",
"621 951 CURVE SMOOTH",
"618 951 OFFCURVE",
"615 952 OFFCURVE",
"615 956 CURVE SMOOTH",
"615 1021 LINE SMOOTH",
"615 1025 OFFCURVE",
"613 1027 OFFCURVE",
"608 1027 CURVE SMOOTH",
"555 1027 LINE SMOOTH",
"552 1027 OFFCURVE",
"550 1025 OFFCURVE",
"550 1021 CURVE SMOOTH",
"550 956 LINE SMOOTH",
"550 953 OFFCURVE",
"547 951 OFFCURVE",
"543 951 CURVE SMOOTH",
"304 929 OFFCURVE",
"115 731 OFFCURVE",
"115 485 CURVE SMOOTH",
"115 239 OFFCURVE",
"304 40 OFFCURVE",
"543 18 CURVE SMOOTH",
"547 18 OFFCURVE",
"550 16 OFFCURVE",
"550 14 CURVE SMOOTH",
"550 -52 LINE SMOOTH",
"550 -55 OFFCURVE",
"552 -57 OFFCURVE",
"555 -57 CURVE SMOOTH"
);
},
{
closed = 1;
nodes = (
"559 59 OFFCURVE",
"541 77 OFFCURVE",
"541 100 CURVE SMOOTH",
"541 126 OFFCURVE",
"559 146 OFFCURVE",
"582 146 CURVE SMOOTH",
"606 146 OFFCURVE",
"626 126 OFFCURVE",
"626 100 CURVE SMOOTH",
"626 77 OFFCURVE",
"606 59 OFFCURVE",
"582 59 CURVE SMOOTH"
);
},
{
closed = 1;
nodes = (
"401 276 OFFCURVE",
"413 276 OFFCURVE",
"420 283 CURVE SMOOTH",
"462 324 LINE SMOOTH",
"470 332 OFFCURVE",
"470 342 OFFCURVE",
"462 350 CURVE SMOOTH",
"420 391 LINE SMOOTH",
"413 398 OFFCURVE",
"401 398 OFFCURVE",
"394 391 CURVE SMOOTH",
"353 350 LINE SMOOTH",
"346 343 OFFCURVE",
"346 331 OFFCURVE",
"353 324 CURVE SMOOTH",
"394 283 LINE SMOOTH"
);
},
{
closed = 1;
nodes = (
"218 252 OFFCURVE",
"164 361 OFFCURVE",
"164 485 CURVE SMOOTH",
"164 610 OFFCURVE",
"217 722 OFFCURVE",
"305 798 CURVE SMOOTH",
"307 800 OFFCURVE",
"311 801 OFFCURVE",
"313 798 CURVE SMOOTH",
"321 790 LINE SMOOTH",
"333 779 OFFCURVE",
"342 781 OFFCURVE",
"353 789 CURVE SMOOTH",
"398 819 OFFCURVE",
"467 845 OFFCURVE",
"552 793 CURVE SMOOTH",
"557 790 OFFCURVE",
"559 785 OFFCURVE",
"559 781 CURVE SMOOTH",
"559 528 LINE SMOOTH",
"559 519 OFFCURVE",
"551 511 OFFCURVE",
"542 511 CURVE SMOOTH",
"269 511 LINE SMOOTH",
"260 511 OFFCURVE",
"252 503 OFFCURVE",
"252 493 CURVE SMOOTH",
"252 478 LINE SMOOTH",
"252 469 OFFCURVE",
"260 461 OFFCURVE",
"269 461 CURVE SMOOTH",
"542 461 LINE SMOOTH",
"551 461 OFFCURVE",
"559 453 OFFCURVE",
"559 444 CURVE SMOOTH",
"559 189 LINE SMOOTH",
"559 184 OFFCURVE",
"557 179 OFFCURVE",
"552 176 CURVE SMOOTH",
"467 124 OFFCURVE",
"398 154 OFFCURVE",
"353 185 CURVE SMOOTH",
"342 193 OFFCURVE",
"331 195 OFFCURVE",
"321 183 CURVE SMOOTH",
"313 174 LINE SMOOTH",
"312 172 OFFCURVE",
"307 172 OFFCURVE",
"305 174 CURVE SMOOTH"
);
},
{
closed = 1;
nodes = (
"401 565 OFFCURVE",
"413 565 OFFCURVE",
"420 572 CURVE SMOOTH",
"462 613 LINE SMOOTH",
"470 621 OFFCURVE",
"470 630 OFFCURVE",
"462 638 CURVE SMOOTH",
"420 680 LINE SMOOTH",
"413 687 OFFCURVE",
"401 687 OFFCURVE",
"394 680 CURVE SMOOTH",
"353 638 LINE SMOOTH",
"345 630 OFFCURVE",
"346 620 OFFCURVE",
"353 613 CURVE SMOOTH",
"394 572 LINE SMOOTH"
);
},
{
closed = 1;
nodes = (
"753 276 OFFCURVE",
"765 276 OFFCURVE",
"772 283 CURVE SMOOTH",
"814 324 LINE SMOOTH",
"822 332 OFFCURVE",
"822 342 OFFCURVE",
"814 350 CURVE SMOOTH",
"772 391 LINE SMOOTH",
"765 398 OFFCURVE",
"753 398 OFFCURVE",
"746 391 CURVE SMOOTH",
"705 350 LINE SMOOTH",
"698 343 OFFCURVE",
"698 331 OFFCURVE",
"705 324 CURVE SMOOTH",
"746 283 LINE SMOOTH"
);
},
{
closed = 1;
nodes = (
"844 183 LINE SMOOTH",
"833 194 OFFCURVE",
"823 193 OFFCURVE",
"812 185 CURVE SMOOTH",
"768 154 OFFCURVE",
"699 124 OFFCURVE",
"614 175 CURVE SMOOTH",
"608 178 OFFCURVE",
"606 183 OFFCURVE",
"606 187 CURVE SMOOTH",
"606 444 LINE SMOOTH",
"606 453 OFFCURVE",
"614 461 OFFCURVE",
"623 461 CURVE SMOOTH",
"896 461 LINE SMOOTH",
"905 461 OFFCURVE",
"913 469 OFFCURVE",
"913 478 CURVE SMOOTH",
"913 493 LINE SMOOTH",
"913 503 OFFCURVE",
"905 511 OFFCURVE",
"896 511 CURVE SMOOTH",
"623 511 LINE SMOOTH",
"614 511 OFFCURVE",
"606 519 OFFCURVE",
"606 528 CURVE SMOOTH",
"606 782 LINE SMOOTH",
"606 787 OFFCURVE",
"608 791 OFFCURVE",
"614 795 CURVE SMOOTH",
"699 845 OFFCURVE",
"768 819 OFFCURVE",
"812 789 CURVE SMOOTH",
"823 782 OFFCURVE",
"833 780 OFFCURVE",
"844 790 CURVE SMOOTH",
"852 798 LINE SMOOTH",
"854 800 OFFCURVE",
"858 800 OFFCURVE",
"860 798 CURVE SMOOTH",
"946 722 OFFCURVE",
"1000 610 OFFCURVE",
"1000 485 CURVE SMOOTH",
"1000 361 OFFCURVE",
"946 252 OFFCURVE",
"860 174 CURVE SMOOTH",
"858 172 OFFCURVE",
"853 172 OFFCURVE",
"852 174 CURVE SMOOTH"
);
},
{
closed = 1;
nodes = (
"753 565 OFFCURVE",
"765 565 OFFCURVE",
"772 572 CURVE SMOOTH",
"814 613 LINE SMOOTH",
"822 621 OFFCURVE",
"822 630 OFFCURVE",
"814 638 CURVE SMOOTH",
"772 680 LINE SMOOTH",
"765 687 OFFCURVE",
"753 687 OFFCURVE",
"746 680 CURVE SMOOTH",
"705 638 LINE SMOOTH",
"698 631 OFFCURVE",
"698 620 OFFCURVE",
"705 613 CURVE SMOOTH",
"746 572 LINE SMOOTH"
);
},
{
closed = 1;
nodes = (
"558 823 OFFCURVE",
"539 842 OFFCURVE",
"539 866 CURVE SMOOTH",
"539 889 OFFCURVE",
"558 911 OFFCURVE",
"582 911 CURVE SMOOTH",
"606 911 OFFCURVE",
"626 889 OFFCURVE",
"626 866 CURVE SMOOTH",
"626 842 OFFCURVE",
"606 823 OFFCURVE",
"582 823 CURVE SMOOTH"
);
}
);
width = 1165;
}
);
unicode = 06DE;
userData = {
com.typemytype.robofont.layerData = {
background = {
anchors = (
);
components = (
);
contours = (
{
points = (
{
segmentType = line;
smooth = 0;
x = 333;
y = 251;
},
{
segmentType = line;
smooth = 0;
x = 387;
y = 304;
},
{
segmentType = line;
smooth = 0;
x = 333;
y = 357;
},
{
segmentType = line;
smooth = 0;
x = 280;
y = 304;
}
);
},
{
points = (
{
segmentType = line;
smooth = 0;
x = 333;
y = 481;
},
{
segmentType = line;
smooth = 0;
x = 387;
y = 534;
},
{
segmentType = line;
smooth = 0;
x = 333;
y = 587;
},
{
segmentType = line;
smooth = 0;
x = 280;
y = 534;
}
);
},
{
points = (
{
segmentType = line;
smooth = 0;
x = 454;
y = 403;
},
{
segmentType = line;
smooth = 0;
x = 454;
y = 166;
},
{
segmentType = line;
smooth = 0;
x = 491;
y = 166;
},
{
segmentType = line;
smooth = 0;
x = 491;
y = 403;
},
{
segmentType = line;
smooth = 0;
x = 736;
y = 403;
},
{
segmentType = line;
smooth = 0;
x = 736;
y = 442;
},
{
segmentType = line;
smooth = 0;
x = 491;
y = 442;
},
{
segmentType = line;
smooth = 0;
x = 491;
y = 677;
},
{
segmentType = line;
smooth = 0;
x = 454;
y = 677;
},
{
segmentType = line;
smooth = 0;
x = 454;
y = 442;
},
{
segmentType = line;
smooth = 0;
x = 209;
y = 442;
},
{
segmentType = line;
smooth = 0;
x = 209;
y = 403;
}
);
},
{
points = (
{
segmentType = line;
smooth = 0;
x = 613;
y = 251;
},
{
segmentType = line;
smooth = 0;
x = 667;
y = 304;
},
{
segmentType = line;
smooth = 0;
x = 613;
y = 357;
},
{
segmentType = line;
smooth = 0;
x = 560;
y = 304;
}
);
},
{
points = (
{
segmentType = line;
smooth = 0;
x = 613;
y = 481;
},
{
segmentType = line;
smooth = 0;
x = 667;
y = 534;
},
{
segmentType = line;
smooth = 0;
x = 613;
y = 587;
},
{
segmentType = line;
smooth = 0;
x = 560;
y = 534;
}
);
},
{
points = (
{
segmentType = line;
smooth = 1;
x = 493;
y = "-11";
},
{
smooth = 0;
x = 497;
y = "-11";
},
{
smooth = 0;
x = 499;
y = "-9";
},
{
segmentType = curve;
smooth = 1;
x = 499;
y = "-6";
},
{
segmentType = line;
smooth = 1;
x = 499;
y = 46;
},
{
smooth = 0;
x = 499;
y = 49;
},
{
smooth = 0;
x = 500;
y = 50;
},
{
segmentType = curve;
smooth = 1;
x = 503;
y = 50;
},
{
smooth = 0;
x = 695;
y = 67;
},
{
smooth = 0;
x = 845;
y = 226;
},
{
segmentType = curve;
smooth = 1;
x = 845;
y = 422;
},
{
smooth = 0;
x = 845;
y = 618;
},
{
smooth = 0;
x = 695;
y = 776;
},
{
segmentType = curve;
smooth = 1;
x = 503;
y = 793;
},
{
smooth = 0;
x = 500;
y = 793;
},
{
smooth = 0;
x = 499;
y = 794;
},
{
segmentType = curve;
smooth = 1;
x = 499;
y = 797;
},
{
segmentType = line;
smooth = 1;
x = 499;
y = 849;
},
{
smooth = 0;
x = 499;
y = 852;
},
{
smooth = 0;
x = 497;
y = 854;
},
{
segmentType = curve;
smooth = 1;
x = 493;
y = 854;
},
{
segmentType = line;
smooth = 1;
x = 451;
y = 854;
},
{
smooth = 0;
x = 448;
y = 854;
},
{
smooth = 0;
x = 446;
y = 852;
},
{
segmentType = curve;
smooth = 1;
x = 446;
y = 849;
},
{
segmentType = line;
smooth = 1;
x = 446;
y = 797;
},
{
smooth = 0;
x = 446;
y = 795;
},
{
smooth = 0;
x = 445;
y = 793;
},
{
segmentType = curve;
smooth = 1;
x = 441;
y = 793;
},
{
smooth = 0;
x = 250;
y = 776;
},
{
smooth = 0;
x = 100;
y = 618;
},
{
segmentType = curve;
smooth = 1;
x = 100;
y = 422;
},
{
smooth = 0;
x = 100;
y = 226;
},
{
smooth = 0;
x = 250;
y = 67;
},
{
segmentType = curve;
smooth = 1;
x = 441;
y = 50;
},
{
smooth = 0;
x = 445;
y = 50;
},
{
smooth = 0;
x = 446;
y = 48;
},
{
segmentType = curve;
smooth = 1;
x = 446;
y = 46;
},
{
segmentType = line;
smooth = 1;
x = 446;
y = "-6";
},
{
smooth = 0;
x = 446;
y = "-9";
},
{
smooth = 0;
x = 448;
y = "-11";
},
{
segmentType = curve;
smooth = 1;
x = 451;
y = "-11";
}
);
},
{
points = (
{
smooth = 0;
x = 454;
y = 82;
},
{
smooth = 0;
x = 439;
y = 97;
},
{
segmentType = curve;
smooth = 1;
x = 439;
y = 115;
},
{
smooth = 0;
x = 439;
y = 136;
},
{
smooth = 0;
x = 454;
y = 152;
},
{
segmentType = curve;
smooth = 1;
x = 472;
y = 152;
},
{
smooth = 0;
x = 491;
y = 152;
},
{
smooth = 0;
x = 507;
y = 136;
},
{
segmentType = curve;
smooth = 1;
x = 507;
y = 115;
},
{
smooth = 0;
x = 507;
y = 97;
},
{
smooth = 0;
x = 491;
y = 82;
},
{
segmentType = curve;
smooth = 1;
x = 472;
y = 82;
}
);
},
{
points = (
{
segmentType = line;
smooth = 1;
x = 681;
y = 181;
},
{
smooth = 0;
x = 672;
y = 190;
},
{
smooth = 0;
x = 663;
y = 191;
},
{
segmentType = curve;
smooth = 1;
x = 655;
y = 183;
},
{
smooth = 0;
x = 617;
y = 155;
},
{
smooth = 0;
x = 554;
y = 130;
},
{
segmentType = curve;
smooth = 1;
x = 475;
y = 189;
},
{
smooth = 0;
x = 473;
y = 191;
},
{
smooth = 0;
x = 471;
y = 191;
},
{
segmentType = curve;
smooth = 1;
x = 468;
y = 189;
},
{
smooth = 0;
x = 391;
y = 130;
},
{
smooth = 0;
x = 328;
y = 155;
},
{
segmentType = curve;
smooth = 1;
x = 290;
y = 183;
},
{
smooth = 0;
x = 282;
y = 191;
},
{
smooth = 0;
x = 273;
y = 190;
},
{
segmentType = curve;
smooth = 1;
x = 264;
y = 181;
},
{
segmentType = line;
smooth = 1;
x = 258;
y = 174;
},
{
smooth = 0;
x = 256;
y = 173;
},
{
smooth = 0;
x = 254;
y = 173;
},
{
segmentType = curve;
smooth = 1;
x = 251;
y = 174;
},
{
smooth = 0;
x = 182;
y = 236;
},
{
smooth = 0;
x = 139;
y = 323;
},
{
segmentType = curve;
smooth = 1;
x = 139;
y = 422;
},
{
smooth = 0;
x = 139;
y = 521;
},
{
smooth = 0;
x = 182;
y = 611;
},
{
segmentType = curve;
smooth = 1;
x = 251;
y = 671;
},
{
smooth = 0;
x = 254;
y = 671;
},
{
smooth = 0;
x = 256;
y = 671;
},
{
segmentType = curve;
smooth = 1;
x = 258;
y = 671;
},
{
segmentType = line;
smooth = 1;
x = 264;
y = 665;
},
{
smooth = 0;
x = 273;
y = 657;
},
{
smooth = 0;
x = 282;
y = 656;
},
{
segmentType = curve;
smooth = 1;
x = 290;
y = 664;
},
{
smooth = 0;
x = 328;
y = 691;
},
{
smooth = 0;
x = 391;
y = 713;
},
{
segmentType = curve;
smooth = 1;
x = 468;
y = 654;
},
{
smooth = 0;
x = 471;
y = 652;
},
{
smooth = 0;
x = 473;
y = 652;
},
{
segmentType = curve;
smooth = 1;
x = 475;
y = 654;
},
{
smooth = 0;
x = 554;
y = 713;
},
{
smooth = 0;
x = 617;
y = 691;
},
{
segmentType = curve;
smooth = 1;
x = 655;
y = 664;
},
{
smooth = 0;
x = 663;
y = 656;
},
{
smooth = 0;
x = 672;
y = 657;
},
{
segmentType = curve;
smooth = 1;
x = 681;
y = 665;
},
{
segmentType = line;
smooth = 1;
x = 687;
y = 671;
},
{
smooth = 0;
x = 689;
y = 671;
},
{
smooth = 0;
x = 691;
y = 671;
},
{
segmentType = curve;
smooth = 1;
x = 694;
y = 671;
},
{
smooth = 0;
x = 763;
y = 611;
},
{
smooth = 0;
x = 806;
y = 521;
},
{
segmentType = curve;
smooth = 1;
x = 806;
y = 422;
},
{
smooth = 0;
x = 806;
y = 323;
},
{
smooth = 0;
x = 763;
y = 236;
},
{
segmentType = curve;
smooth = 1;
x = 694;
y = 174;
},
{
smooth = 0;
x = 691;
y = 173;
},
{
smooth = 0;
x = 689;
y = 173;
},
{
segmentType = curve;
smooth = 1;
x = 687;
y = 174;
}
);
},
{
points = (
{
smooth = 0;
x = 453;
y = 691;
},
{
smooth = 0;
x = 438;
y = 706;
},
{
segmentType = curve;
smooth = 1;
x = 438;
y = 725;
},
{
smooth = 0;
x = 438;
y = 744;
},
{
smooth = 0;
x = 453;
y = 761;
},
{
segmentType = curve;
smooth = 1;
x = 472;
y = 761;
},
{
smooth = 0;
x = 491;
y = 761;
},
{
smooth = 0;
x = 507;
y = 744;
},
{
segmentType = curve;
smooth = 1;
x = 507;
y = 725;
},
{
smooth = 0;
x = 507;
y = 706;
},
{
smooth = 0;
x = 491;
y = 691;
},
{
segmentType = curve;
smooth = 1;
x = 472;
y = 691;
}
);
}
);
lib = {
};
name = "asteriskArt-ar";
unicodes = (
);
width = 945;
};
};
};
},
{
glyphname = "fullstop-ar";
lastChange = "2016-02-16 23:44:53 +0000";
layers = (
{
layerId = "93A312F7-B931-4485-B08E-C367313EB5E7";
name = Regular;
paths = (
{
closed = 1;
nodes = (
"611 320 LINE SMOOTH",
"619 320 OFFCURVE",
"626 325 OFFCURVE",
"627 332 CURVE SMOOTH",
"652 446 LINE SMOOTH",
"654 459 OFFCURVE",
"646 469 OFFCURVE",
"634 469 CURVE SMOOTH",
"156 469 LINE SMOOTH",
"148 469 OFFCURVE",
"141 463 OFFCURVE",
"140 457 CURVE SMOOTH",
"115 343 LINE SMOOTH",
"113 330 OFFCURVE",
"121 320 OFFCURVE",
"133 320 CURVE SMOOTH"
);
}
);
width = 767;
}
);
unicode = 06D4;
},
{
glyphname = "comma-ar";
lastChange = "2016-02-16 23:46:12 +0000";
layers = (
{
layerId = "93A312F7-B931-4485-B08E-C367313EB5E7";
name = Regular;
paths = (
{
closed = 1;
nodes = (
"267 -33 OFFCURVE",
"274 -29 OFFCURVE",
"279 -21 CURVE SMOOTH",
"367 122 LINE SMOOTH",
"373 132 OFFCURVE",
"370 141 OFFCURVE",
"359 145 CURVE SMOOTH",
"252 181 OFFCURVE",
"203 230 OFFCURVE",
"296 407 CURVE SMOOTH",
"367 542 LINE SMOOTH",
"372 552 OFFCURVE",
"368 561 OFFCURVE",
"358 565 CURVE SMOOTH",
"308 585 LINE SMOOTH",
"298 589 OFFCURVE",
"290 587 OFFCURVE",
"285 577 CURVE SMOOTH",
"214 448 LINE SMOOTH",
"132 299 OFFCURVE",
"25 59 OFFCURVE",
"256 -29 CURVE SMOOTH"
);
}
);
width = 485;
}
);
unicode = 060C;
},
{
glyphname = "question-ar";
lastChange = "2016-02-16 23:47:39 +0000";
layers = (
{
components = (
{
name = period;
transform = "{0.876, 0, 0, 0.876, 262, -21}";
}
);
layerId = "93A312F7-B931-4485-B08E-C367313EB5E7";
name = Regular;
paths = (
{
closed = 1;
nodes = (
"551 432 LINE SMOOTH",
"562 436 OFFCURVE",
"567 443 OFFCURVE",
"567 454 CURVE SMOOTH",
"569 520 LINE SMOOTH",
"577 783 OFFCURVE",
"565 745 OFFCURVE",
"210 1052 CURVE SMOOTH",
"202 1059 OFFCURVE",
"202 1069 OFFCURVE",
"206 1079 CURVE SMOOTH",
"289 1273 OFFCURVE",
"522 1279 OFFCURVE",
"666 1190 CURVE SMOOTH",
"679 1182 OFFCURVE",
"688 1193 OFFCURVE",
"688 1206 CURVE SMOOTH",
"688 1312 LINE SMOOTH",
"688 1323 OFFCURVE",
"683 1329 OFFCURVE",
"675 1335 CURVE SMOOTH",
"452 1505 OFFCURVE",
"125 1370 OFFCURVE",
"115 1047 CURVE SMOOTH",
"110 877 OFFCURVE",
"225 837 OFFCURVE",
"348 720 CURVE SMOOTH",
"424 649 OFFCURVE",
"459 618 OFFCURVE",
"457 519 CURVE SMOOTH",
"455 422 LINE SMOOTH",
"455 407 OFFCURVE",
"464 403 OFFCURVE",
"476 407 CURVE SMOOTH"
);
}
);
width = 803;
}
);
unicode = 061F;
},
{
glyphname = "asterisk-ar";
lastChange = "2016-02-16 14:28:33 +0000";
layers = (
{
layerId = "93A312F7-B931-4485-B08E-C367313EB5E7";
name = Regular;
paths = (
{
closed = 1;
nodes = (
"424 351 LINE",
"597 220 LINE",
"619 239 LINE",
"541 437 LINE",
"725 555 LINE",
"716 584 LINE",
"498 574 LINE",
"434 787 LINE",
"406 787 LINE",
"353 574 LINE",
"124 581 LINE",
"115 555 LINE",
"309 436 LINE",
"235 228 LINE",
"255 212 LINE"
);
}
);
width = 840;
}
);
unicode = 066D;
},
{
glyphname = "endofayah-ar";
lastChange = "2016-02-16 23:48:15 +0000";
layers = (
{
layerId = "93A312F7-B931-4485-B08E-C367313EB5E7";
name = Regular;
paths = (
{
closed = 1;
nodes = (
"1609 -984 LINE SMOOTH",
"1619 -984 OFFCURVE",
"1626 -977 OFFCURVE",
"1626 -967 CURVE SMOOTH",
"1626 -776 LINE SMOOTH",
"1626 -766 OFFCURVE",
"1632 -760 OFFCURVE",
"1642 -759 CURVE SMOOTH",
"2339 -702 OFFCURVE",
"2888 -117 OFFCURVE",
"2888 593 CURVE SMOOTH",
"2888 1304 OFFCURVE",
"2339 1887 OFFCURVE",
"1642 1945 CURVE SMOOTH",
"1632 1946 OFFCURVE",
"1626 1952 OFFCURVE",
"1626 1962 CURVE SMOOTH",
"1626 2153 LINE SMOOTH",
"1626 2163 OFFCURVE",
"1619 2170 OFFCURVE",
"1609 2170 CURVE SMOOTH",
"1450 2170 LINE SMOOTH",
"1440 2170 OFFCURVE",
"1433 2163 OFFCURVE",
"1433 2153 CURVE SMOOTH",
"1433 1963 LINE SMOOTH",
"1433 1953 OFFCURVE",
"1427 1947 OFFCURVE",
"1417 1946 CURVE SMOOTH",
"720 1888 OFFCURVE",
"173 1304 OFFCURVE",
"173 593 CURVE SMOOTH",
"173 -117 OFFCURVE",
"720 -703 OFFCURVE",
"1417 -760 CURVE SMOOTH",
"1427 -761 OFFCURVE",
"1433 -767 OFFCURVE",
"1433 -777 CURVE SMOOTH",
"1433 -967 LINE SMOOTH",
"1433 -977 OFFCURVE",
"1440 -984 OFFCURVE",
"1450 -984 CURVE SMOOTH"
);
},
{
closed = 1;
nodes = (
"1461 -644 OFFCURVE",
"1406 -591 OFFCURVE",
"1406 -522 CURVE SMOOTH",
"1406 -453 OFFCURVE",
"1461 -394 OFFCURVE",
"1529 -394 CURVE SMOOTH",
"1598 -394 OFFCURVE",
"1656 -453 OFFCURVE",
"1656 -522 CURVE SMOOTH",
"1656 -591 OFFCURVE",
"1598 -644 OFFCURVE",
"1529 -644 CURVE SMOOTH"
);
},
{
closed = 1;
nodes = (
"469 -83 OFFCURVE",
"316 232 OFFCURVE",
"316 593 CURVE SMOOTH",
"316 954 OFFCURVE",
"469 1281 OFFCURVE",
"726 1501 CURVE SMOOTH",
"734 1508 OFFCURVE",
"742 1510 OFFCURVE",
"751 1501 CURVE SMOOTH",
"775 1477 LINE SMOOTH",
"806 1446 OFFCURVE",
"836 1443 OFFCURVE",
"871 1471 CURVE SMOOTH",
"1009 1581 OFFCURVE",
"1232 1661 OFFCURVE",
"1517 1438 CURVE SMOOTH",
"1525 1432 OFFCURVE",
"1534 1431 OFFCURVE",
"1542 1438 CURVE SMOOTH",
"1828 1661 OFFCURVE",
"2052 1581 OFFCURVE",
"2190 1471 CURVE SMOOTH",
"2224 1443 OFFCURVE",
"2254 1446 OFFCURVE",
"2285 1477 CURVE SMOOTH",
"2309 1501 LINE SMOOTH",
"2318 1510 OFFCURVE",
"2326 1508 OFFCURVE",
"2335 1501 CURVE SMOOTH",
"2591 1281 OFFCURVE",
"2744 954 OFFCURVE",
"2744 593 CURVE SMOOTH",
"2744 232 OFFCURVE",
"2591 -83 OFFCURVE",
"2335 -302 CURVE SMOOTH",
"2326 -309 OFFCURVE",
"2318 -312 OFFCURVE",
"2309 -302 CURVE SMOOTH",
"2285 -278 LINE SMOOTH",
"2254 -247 OFFCURVE",
"2224 -245 OFFCURVE",
"2190 -273 CURVE SMOOTH",
"2052 -383 OFFCURVE",
"1827 -475 OFFCURVE",
"1542 -252 CURVE SMOOTH",
"1534 -245 OFFCURVE",
"1525 -245 OFFCURVE",
"1517 -252 CURVE SMOOTH",
"1232 -475 OFFCURVE",
"1009 -383 OFFCURVE",
"871 -273 CURVE SMOOTH",
"836 -245 OFFCURVE",
"806 -247 OFFCURVE",
"775 -278 CURVE SMOOTH",
"751 -302 LINE SMOOTH",
"742 -312 OFFCURVE",
"734 -309 OFFCURVE",
"726 -302 CURVE SMOOTH"
);
},
{
closed = 1;
nodes = (
"1459 1580 OFFCURVE",
"1405 1633 OFFCURVE",
"1405 1702 CURVE SMOOTH",
"1405 1771 OFFCURVE",
"1459 1830 OFFCURVE",
"1528 1830 CURVE SMOOTH",
"1597 1830 OFFCURVE",
"1655 1771 OFFCURVE",
"1655 1702 CURVE SMOOTH",
"1655 1633 OFFCURVE",
"1597 1580 OFFCURVE",
"1528 1580 CURVE SMOOTH"
);
}
);
width = 3026;
}
);
unicode = 06DD;
},
{
glyphname = "parenleft-ar";
lastChange = "2016-02-16 23:49:50 +0000";
layers = (
{
layerId = "93A312F7-B931-4485-B08E-C367313EB5E7";
name = Regular;
paths = (
{
closed = 1;
nodes = (
"984 -481 OFFCURVE",
"991 -478 OFFCURVE",
"996 -471 CURVE SMOOTH",
"1040 -405 LINE SMOOTH",
"1046 -396 OFFCURVE",
"1042 -387 OFFCURVE",
"1032 -384 CURVE SMOOTH",
"876 -332 OFFCURVE",
"739 -241 OFFCURVE",
"633 -123 CURVE SMOOTH",
"626 -116 OFFCURVE",
"626 -108 OFFCURVE",
"633 -101 CURVE SMOOTH",
"645 -86 LINE SMOOTH",
"670 -57 OFFCURVE",
"672 -29 OFFCURVE",
"647 2 CURVE SMOOTH",
"568 110 OFFCURVE",
"494 273 OFFCURVE",
"674 494 CURVE SMOOTH",
"682 503 OFFCURVE",
"680 510 OFFCURVE",
"674 518 CURVE SMOOTH",
"503 735 OFFCURVE",
"574 891 OFFCURVE",
"651 996 CURVE SMOOTH",
"674 1028 OFFCURVE",
"672 1058 OFFCURVE",
"642 1084 CURVE SMOOTH",
"629 1095 LINE SMOOTH",
"621 1102 OFFCURVE",
"621 1110 OFFCURVE",
"628 1117 CURVE SMOOTH",
"734 1236 OFFCURVE",
"872 1328 OFFCURVE",
"1027 1381 CURVE SMOOTH",
"1038 1385 OFFCURVE",
"1041 1392 OFFCURVE",
"1034 1402 CURVE SMOOTH",
"981 1471 LINE SMOOTH",
"975 1479 OFFCURVE",
"968 1481 OFFCURVE",
"959 1478 CURVE SMOOTH",
"590 1339 OFFCURVE",
"321 998 OFFCURVE",
"288 592 CURVE SMOOTH",
"286 582 OFFCURVE",
"281 577 OFFCURVE",
"271 577 CURVE SMOOTH",
"130 577 LINE SMOOTH",
"121 577 OFFCURVE",
"115 570 OFFCURVE",
"115 561 CURVE SMOOTH",
"115 444 LINE SMOOTH",
"115 435 OFFCURVE",
"121 429 OFFCURVE",
"130 429 CURVE SMOOTH",
"270 429 LINE SMOOTH",
"279 429 OFFCURVE",
"285 423 OFFCURVE",
"286 414 CURVE SMOOTH",
"321 0 OFFCURVE",
"599 -345 OFFCURVE",
"975 -478 CURVE SMOOTH"
);
},
{
closed = 1;
nodes = (
"419 416 OFFCURVE",
"375 455 OFFCURVE",
"375 509 CURVE SMOOTH",
"375 564 OFFCURVE",
"419 606 OFFCURVE",
"473 606 CURVE SMOOTH",
"526 606 OFFCURVE",
"566 564 OFFCURVE",
"566 509 CURVE SMOOTH",
"566 455 OFFCURVE",
"526 416 OFFCURVE",
"473 416 CURVE SMOOTH"
);
}
);
width = 1157;
}
);
unicode = FD3E;
},
{
glyphname = "parenright-ar";
lastChange = "2016-02-16 23:51:28 +0000";
layers = (
{
layerId = "93A312F7-B931-4485-B08E-C367313EB5E7";
name = Regular;
paths = (
{
closed = 1;
nodes = (
"559 -345 OFFCURVE",
"836 0 OFFCURVE",
"871 414 CURVE SMOOTH",
"872 423 OFFCURVE",
"877 429 OFFCURVE",
"887 429 CURVE SMOOTH",
"1027 429 LINE SMOOTH",
"1036 429 OFFCURVE",
"1043 435 OFFCURVE",
"1043 444 CURVE SMOOTH",
"1043 561 LINE SMOOTH",
"1043 570 OFFCURVE",
"1036 577 OFFCURVE",
"1027 577 CURVE SMOOTH",
"885 577 LINE SMOOTH",
"876 577 OFFCURVE",
"870 582 OFFCURVE",
"869 591 CURVE SMOOTH",
"835 998 OFFCURVE",
"567 1340 OFFCURVE",
"198 1478 CURVE SMOOTH",
"190 1481 OFFCURVE",
"183 1478 OFFCURVE",
"177 1471 CURVE SMOOTH",
"123 1402 LINE SMOOTH",
"116 1394 OFFCURVE",
"118 1385 OFFCURVE",
"129 1381 CURVE SMOOTH",
"285 1329 OFFCURVE",
"423 1236 OFFCURVE",
"529 1117 CURVE SMOOTH",
"536 1110 OFFCURVE",
"536 1102 OFFCURVE",
"528 1095 CURVE SMOOTH",
"515 1084 LINE SMOOTH",
"485 1058 OFFCURVE",
"482 1028 OFFCURVE",
"506 996 CURVE SMOOTH",
"584 891 OFFCURVE",
"654 736 OFFCURVE",
"483 518 CURVE SMOOTH",
"477 510 OFFCURVE",
"475 504 OFFCURVE",
"483 494 CURVE SMOOTH",
"662 273 OFFCURVE",
"589 109 OFFCURVE",
"509 2 CURVE SMOOTH",
"486 -29 OFFCURVE",
"486 -57 OFFCURVE",
"512 -86 CURVE SMOOTH",
"524 -101 LINE SMOOTH",
"531 -108 OFFCURVE",
"531 -116 OFFCURVE",
"524 -124 CURVE SMOOTH",
"417 -241 OFFCURVE",
"281 -332 OFFCURVE",
"125 -384 CURVE SMOOTH",
"115 -388 OFFCURVE",
"112 -396 OFFCURVE",
"117 -405 CURVE SMOOTH",
"161 -471 LINE SMOOTH",
"166 -478 OFFCURVE",
"173 -482 OFFCURVE",
"182 -478 CURVE SMOOTH"
);
},
{
closed = 1;
nodes = (
"631 416 OFFCURVE",
"591 455 OFFCURVE",
"591 509 CURVE SMOOTH",
"591 564 OFFCURVE",
"631 606 OFFCURVE",
"684 606 CURVE SMOOTH",
"738 606 OFFCURVE",
"782 564 OFFCURVE",
"782 509 CURVE SMOOTH",
"782 455 OFFCURVE",
"738 416 OFFCURVE",
"684 416 CURVE SMOOTH"
);
}
);
width = 1158;
}
);
unicode = FD3F;
},
{
glyphname = "afghani-ar";
lastChange = "2016-02-16 23:52:50 +0000";
layers = (
{
layerId = "93A312F7-B931-4485-B08E-C367313EB5E7";
name = Regular;
paths = (
{
closed = 1;
nodes = (
"483 -5 OFFCURVE",
"621 -3 OFFCURVE",
"789 35 CURVE SMOOTH",
"1105 107 OFFCURVE",
"1128 291 OFFCURVE",
"1114 520 CURVE SMOOTH",
"1097 814 OFFCURVE",
"951 1129 OFFCURVE",
"761 1129 CURVE SMOOTH",
"530 1129 OFFCURVE",
"417 845 OFFCURVE",
"417 608 CURVE SMOOTH",
"417 302 OFFCURVE",
"793 336 OFFCURVE",
"974 423 CURVE SMOOTH",
"990 431 OFFCURVE",
"1006 422 OFFCURVE",
"1006 404 CURVE SMOOTH",
"1005 284 LINE SMOOTH",
"1005 278 OFFCURVE",
"1002 273 OFFCURVE",
"996 269 CURVE",
"843 186 OFFCURVE",
"595 166 OFFCURVE",
"261 179 CURVE",
"143 179 OFFCURVE",
"143 0 OFFCURVE",
"261 0 CURVE SMOOTH"
);
},
{
closed = 1;
nodes = (
"716 -619 LINE SMOOTH",
"719 -617 OFFCURVE",
"720 -614 OFFCURVE",
"720 -612 CURVE SMOOTH",
"718 -200 LINE SMOOTH",
"718 -195 OFFCURVE",
"714 -193 OFFCURVE",
"711 -195 CURVE SMOOTH",
"611 -253 LINE SMOOTH",
"607 -255 OFFCURVE",
"606 -258 OFFCURVE",
"606 -260 CURVE SMOOTH",
"633 -673 LINE SMOOTH",
"633 -677 OFFCURVE",
"634 -679 OFFCURVE",
"639 -676 CURVE SMOOTH"
);
},
{
closed = 1;
nodes = (
"536 573 OFFCURVE",
"519 588 OFFCURVE",
"519 593 CURVE SMOOTH",
"521 787 OFFCURVE",
"593 938 OFFCURVE",
"721 938 CURVE SMOOTH",
"835 938 OFFCURVE",
"950 757 OFFCURVE",
"984 572 CURVE",
"987 564 OFFCURVE",
"738 501 OFFCURVE",
"569 561 CURVE SMOOTH"
);
},
{
closed = 1;
nodes = (
"773 1417 OFFCURVE",
"776 1417 OFFCURVE",
"779 1419 CURVE",
"894 1561 LINE",
"900 1570 OFFCURVE",
"903 1588 OFFCURVE",
"894 1596 CURVE SMOOTH",
"759 1707 LINE",
"756 1709 OFFCURVE",
"752 1711 OFFCURVE",
"749 1707 CURVE SMOOTH",
"622 1549 LINE",
"618 1544 OFFCURVE",
"618 1541 OFFCURVE",
"622 1538 CURVE SMOOTH",
"770 1419 LINE"
);
}
);
width = 1256;
}
);
unicode = 060B;
},
{
glyphname = rial;
lastChange = "2016-02-16 23:53:25 +0000";
layers = (
{
layerId = "93A312F7-B931-4485-B08E-C367313EB5E7";
name = Regular;
paths = (
{
closed = 1;
nodes = (
"833 -121 OFFCURVE",
"935 20 OFFCURVE",
"991 175 CURVE",
"1362 175 LINE",
"1362 267 LINE",
"1018 267 LINE",
"1033 336 OFFCURVE",
"1035 386 OFFCURVE",
"1027 467 CURVE",
"1362 467 LINE",
"1362 559 LINE",
"1013 559 LINE",
"1000 676 OFFCURVE",
"973 796 OFFCURVE",
"921 971 CURVE SMOOTH",
"918 983 OFFCURVE",
"907 984 OFFCURVE",
"898 975 CURVE SMOOTH",
"795 871 LINE SMOOTH",
"789 864 OFFCURVE",
"787 857 OFFCURVE",
"789 848 CURVE SMOOTH",
"871 559 LINE",
"174 559 LINE",
"174 467 LINE",
"897 467 LINE",
"912 393 OFFCURVE",
"906 327 OFFCURVE",
"894 267 CURVE",
"174 267 LINE",
"174 175 LINE",
"853 175 LINE",
"721 -36 OFFCURVE",
"538 -123 OFFCURVE",
"217 -53 CURVE SMOOTH",
"207 -51 OFFCURVE",
"200 -57 OFFCURVE",
"197 -68 CURVE SMOOTH",
"174 -135 LINE SMOOTH",
"171 -144 OFFCURVE",
"176 -151 OFFCURVE",
"186 -154 CURVE SMOOTH",
"423 -233 OFFCURVE",
"589 -258 OFFCURVE",
"729 -179 CURVE SMOOTH"
);
}
);
width = 1500;
}
);
unicode = FDFC;
},
{
glyphname = asciitilde;
lastChange = "2016-03-02 10:16:07 +0000";
layers = (
{
layerId = "93A312F7-B931-4485-B08E-C367313EB5E7";
name = Regular;
paths = (
{
closed = 1;
nodes = (
"322 509 OFFCURVE",
"487 548 OFFCURVE",
"654 448 CURVE SMOOTH",
"839 338 OFFCURVE",
"1017 338 OFFCURVE",
"1173 452 CURVE",
"1106 553 LINE",
"966 474 OFFCURVE",
"832 473 OFFCURVE",
"637 580 CURVE SMOOTH",
"491 663 OFFCURVE",
"268 640 OFFCURVE",
"115 515 CURVE",
"175 413 LINE"
);
}
);
width = 1288;
}
);
unicode = 007E;
},
{
glyphname = divide;
lastChange = "2016-03-02 10:15:46 +0000";
layers = (
{
layerId = "93A312F7-B931-4485-B08E-C367313EB5E7";
name = Regular;
paths = (
{
closed = 1;
nodes = (
"1083 390 LINE",
"1083 545 LINE",
"115 545 LINE",
"115 390 LINE"
);
},
{
closed = 1;
nodes = (
"664 -70 OFFCURVE",
"709 -25 OFFCURVE",
"709 28 CURVE SMOOTH",
"709 83 OFFCURVE",
"664 128 OFFCURVE",
"610 128 CURVE SMOOTH",
"557 128 OFFCURVE",
"512 83 OFFCURVE",
"512 28 CURVE SMOOTH",
"512 -25 OFFCURVE",
"557 -70 OFFCURVE",
"610 -70 CURVE SMOOTH"
);
},
{
closed = 1;
nodes = (
"664 870 OFFCURVE",
"709 915 OFFCURVE",
"709 970 CURVE SMOOTH",
"709 1024 OFFCURVE",
"664 1068 OFFCURVE",
"610 1068 CURVE SMOOTH",
"557 1068 OFFCURVE",
"512 1024 OFFCURVE",
"512 970 CURVE SMOOTH",
"512 915 OFFCURVE",
"557 870 OFFCURVE",
"610 870 CURVE SMOOTH"
);
}
);
width = 1198;
}
);
unicode = 00F7;
},
{
glyphname = equal;
lastChange = "2016-03-02 10:16:21 +0000";
layers = (
{
layerId = "93A312F7-B931-4485-B08E-C367313EB5E7";
name = Regular;
paths = (
{
closed = 1;
nodes = (
"1083 631 LINE",
"1083 786 LINE",
"115 786 LINE",
"115 631 LINE"
);
},
{
closed = 1;
nodes = (
"1083 213 LINE",
"1083 368 LINE",
"115 368 LINE",
"115 213 LINE"
);
}
);
width = 1198;
}
);
unicode = 003D;
},
{
glyphname = greater;
lastChange = "2016-02-16 14:28:33 +0000";
layers = (
{
layerId = "93A312F7-B931-4485-B08E-C367313EB5E7";
name = Regular;
paths = (
{
closed = 1;
nodes = (
"1030 436 LINE",
"1030 564 LINE",
"115 1023 LINE",
"115 896 LINE",
"904 500 LINE",
"115 103 LINE",
"115 -24 LINE"
);
}
);
width = 1145;
}
);
unicode = 003E;
userData = {
com.typemytype.robofont.guides = (
{
angle = 0;
isGlobal = 0;
x = "-192";
y = 1070;
},
{
angle = 0;
isGlobal = 0;
x = "-196";
y = 0;
}
);
};
},
{
glyphname = less;
lastChange = "2016-02-16 14:28:33 +0000";
layers = (
{
layerId = "93A312F7-B931-4485-B08E-C367313EB5E7";
name = Regular;
paths = (
{
closed = 1;
nodes = (
"1030 103 LINE",
"241 500 LINE",
"1030 896 LINE",
"1030 1023 LINE",
"115 564 LINE",
"115 436 LINE",
"1030 -24 LINE"
);
}
);
width = 1145;
}
);
unicode = 003C;
},
{
glyphname = minus;
lastChange = "2016-02-16 14:28:33 +0000";
layers = (
{
layerId = "93A312F7-B931-4485-B08E-C367313EB5E7";
name = Regular;
paths = (
{
closed = 1;
nodes = (
"1143 419 LINE",
"1143 581 LINE",
"115 581 LINE",
"115 419 LINE"
);
}
);
width = 1258;
}
);
unicode = 2212;
},
{
glyphname = multiply;
lastChange = "2016-02-16 14:28:33 +0000";
layers = (
{
layerId = "93A312F7-B931-4485-B08E-C367313EB5E7";
name = Regular;
paths = (
{
closed = 1;
nodes = (
"619 416 LINE",
"1015 -30 LINE",
"1119 49 LINE",
"704 513 LINE",
"1089 945 LINE",
"992 1028 LINE",
"618 610 LINE",
"244 1028 LINE",
"147 945 LINE",
"532 513 LINE",
"115 47 LINE",
"221 -30 LINE"
);
}
);
width = 1234;
}
);
unicode = 00D7;
},
{
glyphname = plus;
lastChange = "2016-03-02 09:00:20 +0000";
layers = (
{
layerId = "93A312F7-B931-4485-B08E-C367313EB5E7";
name = Regular;
paths = (
{
closed = 1;
nodes = (
"681 45 LINE",
"674 435 LINE",
"1083 435 LINE",
"1083 590 LINE",
"678 590 LINE",
"675 956 LINE",
"516 955 LINE",
"523 590 LINE",
"115 590 LINE",
"115 435 LINE",
"523 435 LINE",
"530 43 LINE"
);
}
);
width = 1198;
}
);
unicode = 002B;
},
{
glyphname = dottedCircle;
lastChange = "2016-02-16 23:53:59 +0000";
layers = (
{
layerId = "93A312F7-B931-4485-B08E-C367313EB5E7";
name = Regular;
paths = (
{
closed = 1;
nodes = (
"707 637 OFFCURVE",
"736 637 OFFCURVE",
"759 676 CURVE SMOOTH",
"782 715 OFFCURVE",
"767 741 OFFCURVE",
"739 757 CURVE SMOOTH",
"713 772 OFFCURVE",
"681 772 OFFCURVE",
"659 734 CURVE SMOOTH",
"636 696 OFFCURVE",
"651 669 OFFCURVE",
"680 653 CURVE SMOOTH"
);
},
{
closed = 1;
nodes = (
"352 21 OFFCURVE",
"381 22 OFFCURVE",
"402 60 CURVE SMOOTH",
"424 99 OFFCURVE",
"411 124 OFFCURVE",
"383 140 CURVE SMOOTH",
"358 155 OFFCURVE",
"325 155 OFFCURVE",
"304 117 CURVE SMOOTH",
"281 78 OFFCURVE",
"296 53 OFFCURVE",
"323 37 CURVE SMOOTH"
);
},
{
closed = 1;
nodes = (
"290 192 OFFCURVE",
"291 221 OFFCURVE",
"275 248 CURVE SMOOTH",
"260 275 OFFCURVE",
"232 291 OFFCURVE",
"194 269 CURVE SMOOTH",
"155 246 OFFCURVE",
"155 217 OFFCURVE",
"171 189 CURVE SMOOTH",
"187 161 OFFCURVE",
"213 147 OFFCURVE",
"252 169 CURVE SMOOTH"
);
},
{
closed = 1;
nodes = (
"575 -18 OFFCURVE",
"590 7 OFFCURVE",
"590 39 CURVE SMOOTH",
"590 69 OFFCURVE",
"574 97 OFFCURVE",
"530 97 CURVE SMOOTH",
"485 97 OFFCURVE",
"470 71 OFFCURVE",
"470 39 CURVE SMOOTH",
"470 7 OFFCURVE",
"485 -18 OFFCURVE",
"530 -18 CURVE SMOOTH"
);
},
{
closed = 1;
nodes = (
"220 339 OFFCURVE",
"235 365 OFFCURVE",
"235 397 CURVE SMOOTH",
"235 427 OFFCURVE",
"218 454 OFFCURVE",
"175 454 CURVE SMOOTH",
"130 454 OFFCURVE",
"115 429 OFFCURVE",
"115 397 CURVE SMOOTH",
"115 365 OFFCURVE",
"130 339 OFFCURVE",
"175 339 CURVE SMOOTH"
);
},
{
closed = 1;
nodes = (
"217 508 OFFCURVE",
"248 508 OFFCURVE",
"269 547 CURVE SMOOTH",
"292 585 OFFCURVE",
"277 612 OFFCURVE",
"250 627 CURVE SMOOTH",
"223 643 OFFCURVE",
"192 642 OFFCURVE",
"170 604 CURVE SMOOTH",
"148 566 OFFCURVE",
"162 539 OFFCURVE",
"190 523 CURVE SMOOTH"
);
},
{
closed = 1;
nodes = (
"777 60 OFFCURVE",
"777 89 OFFCURVE",
"761 116 CURVE SMOOTH",
"746 143 OFFCURVE",
"719 159 OFFCURVE",
"681 137 CURVE SMOOTH",
"642 114 OFFCURVE",
"642 85 OFFCURVE",
"658 56 CURVE SMOOTH",
"674 29 OFFCURVE",
"699 15 OFFCURVE",
"738 37 CURVE SMOOTH"
);
},
{
closed = 1;
nodes = (
"838 150 OFFCURVE",
"867 150 OFFCURVE",
"890 189 CURVE SMOOTH",
"913 228 OFFCURVE",
"898 253 OFFCURVE",
"871 269 CURVE SMOOTH",
"844 284 OFFCURVE",
"813 284 OFFCURVE",
"791 246 CURVE SMOOTH",
"768 207 OFFCURVE",
"783 182 OFFCURVE",
"811 166 CURVE SMOOTH"
);
},
{
closed = 1;
nodes = (
"419 680 OFFCURVE",
"419 710 OFFCURVE",
"402 737 CURVE SMOOTH",
"388 764 OFFCURVE",
"360 779 OFFCURVE",
"322 757 CURVE SMOOTH",
"284 735 OFFCURVE",
"283 705 OFFCURVE",
"299 677 CURVE SMOOTH",
"315 650 OFFCURVE",
"342 635 OFFCURVE",
"379 658 CURVE SMOOTH"
);
},
{
closed = 1;
nodes = (
"931 339 OFFCURVE",
"946 365 OFFCURVE",
"946 397 CURVE SMOOTH",
"946 427 OFFCURVE",
"930 454 OFFCURVE",
"887 454 CURVE SMOOTH",
"842 454 OFFCURVE",
"827 429 OFFCURVE",
"827 397 CURVE SMOOTH",
"827 365 OFFCURVE",
"842 339 OFFCURVE",
"887 339 CURVE SMOOTH"
);
},
{
closed = 1;
nodes = (
"575 698 OFFCURVE",
"590 723 OFFCURVE",
"590 756 CURVE SMOOTH",
"590 785 OFFCURVE",
"574 813 OFFCURVE",
"530 813 CURVE SMOOTH",
"485 813 OFFCURVE",
"470 788 OFFCURVE",
"470 756 CURVE SMOOTH",
"470 723 OFFCURVE",
"485 698 OFFCURVE",
"530 698 CURVE SMOOTH"
);
},
{
closed = 1;
nodes = (
"907 547 OFFCURVE",
"907 577 OFFCURVE",
"891 605 CURVE SMOOTH",
"876 630 OFFCURVE",
"849 646 OFFCURVE",
"811 624 CURVE SMOOTH",
"772 603 OFFCURVE",
"772 573 OFFCURVE",
"788 545 CURVE SMOOTH",
"804 518 OFFCURVE",
"829 503 OFFCURVE",
"868 526 CURVE SMOOTH"
);
}
);
width = 1061;
}
);
unicode = 25CC;
},
{
glyphname = whiteStar.circled;
lastChange = "2016-02-16 14:28:32 +0000";
layers = (
{
layerId = "93A312F7-B931-4485-B08E-C367313EB5E7";
name = Regular;
paths = (
{
closed = 1;
nodes = (
"698 118 OFFCURVE",
"866 283 OFFCURVE",
"866 484 CURVE SMOOTH",
"866 685 OFFCURVE",
"698 852 OFFCURVE",
"490 852 CURVE SMOOTH",
"282 852 OFFCURVE",
"115 685 OFFCURVE",
"115 484 CURVE SMOOTH",
"115 283 OFFCURVE",
"282 118 OFFCURVE",
"490 118 CURVE SMOOTH"
);
},
{
closed = 1;
nodes = (
"308 229 LINE",
"383 437 LINE",
"189 557 LINE",
"198 582 LINE",
"427 575 LINE",
"480 788 LINE",
"507 788 LINE",
"572 575 LINE",
"790 585 LINE",
"798 557 LINE",
"614 438 LINE",
"692 240 LINE",
"670 221 LINE",
"498 352 LINE",
"329 213 LINE"
);
}
);
width = 981;
}
);
unicode = 272A;
},
{
glyphname = bar;
lastChange = "2016-02-16 14:28:32 +0000";
layers = (
{
layerId = "93A312F7-B931-4485-B08E-C367313EB5E7";
name = Regular;
paths = (
{
closed = 1;
nodes = (
"263 -543 LINE",
"263 1542 LINE",
"138 1542 LINE",
"138 -543 LINE"
);
}
);
width = 401;
}
);
unicode = 007C;
},
{
glyphname = at;
lastChange = "2016-02-16 14:28:33 +0000";
layers = (
{
layerId = "93A312F7-B931-4485-B08E-C367313EB5E7";
name = Regular;
paths = (
{
closed = 1;
nodes = (
"903 76 OFFCURVE",
"995 92 OFFCURVE",
"1078 130 CURVE",
"1047 214 LINE",
"979 185 OFFCURVE",
"897 168 OFFCURVE",
"797 168 CURVE SMOOTH",
"476 168 OFFCURVE",
"263 329 OFFCURVE",
"263 643 CURVE SMOOTH",
"263 944 OFFCURVE",
"475 1174 OFFCURVE",
"779 1174 CURVE SMOOTH",
"864 1174 OFFCURVE",
"941 1157 OFFCURVE",
"1010 1120 CURVE SMOOTH",
"1150 1050 OFFCURVE",
"1221 922 OFFCURVE",
"1221 784 CURVE SMOOTH",
"1221 667 OFFCURVE",
"1162 545 OFFCURVE",
"1068 480 CURVE SMOOTH",
"1033 455 OFFCURVE",
"1005 443 OFFCURVE",
"982 443 CURVE SMOOTH",
"958 443 OFFCURVE",
"940 462 OFFCURVE",
"940 483 CURVE SMOOTH",
"940 490 OFFCURVE",
"945 522 OFFCURVE",
"958 580 CURVE SMOOTH",
"1047 994 LINE",
"940 1011 LINE",
"915 899 LINE",
"868 975 OFFCURVE",
"800 1012 OFFCURVE",
"728 1012 CURVE SMOOTH",
"682 1012 OFFCURVE",
"634 995 OFFCURVE",
"583 963 CURVE SMOOTH",
"352 812 OFFCURVE",
"346 378 OFFCURVE",
"606 343 CURVE SMOOTH",
"680 331 OFFCURVE",
"762 361 OFFCURVE",
"834 443 CURVE",
"837 402 OFFCURVE",
"875 339 OFFCURVE",
"941 339 CURVE SMOOTH",
"1119 339 OFFCURVE",
"1312 543 OFFCURVE",
"1312 783 CURVE SMOOTH",
"1312 951 OFFCURVE",
"1224 1119 OFFCURVE",
"1059 1203 CURVE SMOOTH",
"979 1244 OFFCURVE",
"887 1265 OFFCURVE",
"784 1265 CURVE SMOOTH",
"652 1265 OFFCURVE",
"542 1235 OFFCURVE",
"448 1175 CURVE SMOOTH",
"263 1057 OFFCURVE",
"173 835 OFFCURVE",
"173 633 CURVE SMOOTH",
"173 274 OFFCURVE",
"422 76 OFFCURVE",
"798 76 CURVE SMOOTH"
);
},
{
closed = 1;
nodes = (
"565 826 OFFCURVE",
"646 921 OFFCURVE",
"736 921 CURVE SMOOTH",
"815 921 OFFCURVE",
"891 853 OFFCURVE",
"891 744 CURVE SMOOTH",
"891 337 OFFCURVE",
"412 319 OFFCURVE",
"530 718 CURVE SMOOTH"
);
}
);
width = 1450;
}
);
unicode = 0040;
},
{
glyphname = degree;
lastChange = "2016-02-16 14:28:33 +0000";
layers = (
{
layerId = "93A312F7-B931-4485-B08E-C367313EB5E7";
name = Regular;
paths = (
{
closed = 1;
nodes = (
"505 1070 OFFCURVE",
"633 1198 OFFCURVE",
"633 1358 CURVE SMOOTH",
"633 1517 OFFCURVE",
"505 1646 OFFCURVE",
"345 1646 CURVE SMOOTH",
"185 1646 OFFCURVE",
"57 1517 OFFCURVE",
"57 1358 CURVE SMOOTH",
"57 1198 OFFCURVE",
"185 1070 OFFCURVE",
"345 1070 CURVE SMOOTH"
);
},
{
closed = 1;
nodes = (
"233 1156 OFFCURVE",
"143 1247 OFFCURVE",
"143 1358 CURVE SMOOTH",
"143 1469 OFFCURVE",
"233 1559 OFFCURVE",
"345 1559 CURVE SMOOTH",
"458 1559 OFFCURVE",
"547 1469 OFFCURVE",
"547 1358 CURVE SMOOTH",
"547 1247 OFFCURVE",
"458 1156 OFFCURVE",
"345 1156 CURVE SMOOTH"
);
}
);
width = 690;
}
);
unicode = 00B0;
},
{
glyphname = asciicircum;
lastChange = "2016-02-16 14:28:33 +0000";
layers = (
{
layerId = "93A312F7-B931-4485-B08E-C367313EB5E7";
name = Regular;
paths = (
{
closed = 1;
nodes = (
"262 631 LINE",
"670 1592 LINE",
"1080 631 LINE",
"1226 631 LINE",
"757 1747 LINE",
"584 1747 LINE",
"115 631 LINE"
);
}
);
width = 1341;
}
);
unicode = 005E;
},
{
glyphname = lowringmod;
lastChange = "2016-02-16 14:28:33 +0000";
layers = (
{
layerId = "93A312F7-B931-4485-B08E-C367313EB5E7";
name = Regular;
paths = (
{
closed = 1;
nodes = (
"489 -481 OFFCURVE",
"606 -363 OFFCURVE",
"606 -217 CURVE SMOOTH",
"606 -74 OFFCURVE",
"489 45 OFFCURVE",
"343 45 CURVE SMOOTH",
"198 45 OFFCURVE",
"81 -74 OFFCURVE",
"81 -217 CURVE SMOOTH",
"81 -363 OFFCURVE",
"198 -481 OFFCURVE",
"343 -481 CURVE SMOOTH"
);
},
{
closed = 1;
nodes = (
"241 -401 OFFCURVE",
"160 -319 OFFCURVE",
"160 -216 CURVE SMOOTH",
"160 -116 OFFCURVE",
"241 -33 OFFCURVE",
"343 -33 CURVE SMOOTH",
"445 -33 OFFCURVE",
"527 -116 OFFCURVE",
"527 -216 CURVE SMOOTH",
"527 -319 OFFCURVE",
"445 -401 OFFCURVE",
"343 -401 CURVE SMOOTH"
);
}
);
width = 687;
}
);
unicode = 02F3;
},
